M48
;Layer_Color=9474304
;FILE_FORMAT=2:5
INCH,LZ
;TYPE=PLATED
T1F00S00C0.03543
T2F00S00C0.11811
%
T01
X0389508Y0416715
X0399508
Y0426716
X0389508
Y0436716
X0399508
Y0446715
X0389508
Y0456715
X0399508
X0414449Y0456535
X0424449
X0434449
X0434291Y0444038
X0424291
X0414291
Y0431541
X0424291
X0434291
T02
X0451457Y0420911
Y0456344
M30
