M48
;Layer_Color=9474304
;FILE_FORMAT=2:5
INCH,LZ
;TYPE=PLATED
T1F00S00C0.02559
T2F00S00C0.03000
T3F00S00C0.03543
T4F00S00C0.11811
%
T01
X0159744Y0221161
Y0229035
Y0236909
Y0244783
Y0252658
Y0260531
Y0268406
Y0276279
Y0284154
X0167618Y0284154
Y027628
Y0268406
Y0260531
Y0252658
Y0244783
Y023691
Y0229035
Y0221161
X0088878Y0221161
Y0229035
Y0236909
Y0244783
Y0252658
Y0260531
Y0268406
Y0276279
Y0284154
X0081004Y0284154
Y027628
Y0268406
Y0260531
Y0252658
Y0244783
Y023691
Y0229035
Y0221161
T02
X0048031Y0015866
Y0025866
Y0035866
Y0045866
Y0055866
Y0065866
Y0075866
Y0085866
Y0095866
Y0105866
Y0115866
Y0125866
Y0135866
Y0145866
Y0155866
X0118032
Y0145866
Y0135866
Y0125866
Y0115866
Y0105866
Y0095866
Y0085866
Y0075866
Y0065866
Y0055866
Y0045866
Y0035866
Y0025866
Y0015866
Y0165866
Y0175866
Y0185866
Y0195866
Y0205866
X0048031
Y0195866
Y0185866
Y0175866
Y0165866
T03
X003061Y0036752
Y0046752
X0057382Y0224311
Y0234311
Y0244311
Y0254311
Y0264311
Y0274311
Y0284311
Y0294311
X0061004Y0326122
Y0336122
X0051004
Y0326122
X0041004
Y0336122
X0031004
Y0326122
X0021004
Y0336122
T04
X0018504Y001939
X0152657Y0024705
X0160531Y0304232
X0014862Y0296358
M30
