G04*
G04 #@! TF.GenerationSoftware,Altium Limited,Altium Designer,19.1.5 (86)*
G04*
G04 Layer_Physical_Order=1*
G04 Layer_Color=255*
%FSLAX25Y25*%
%MOIN*%
G70*
G01*
G75*
%ADD20C,0.02000*%
%ADD21C,0.05000*%
%ADD22C,0.02500*%
%ADD23R,0.05906X0.05906*%
%ADD24C,0.05906*%
%ADD25C,0.15748*%
%ADD26C,0.06000*%
%ADD27C,0.04528*%
%ADD28R,0.04528X0.04528*%
%ADD29R,0.05906X0.05906*%
G36*
X76772Y314567D02*
X172047D01*
Y9449D01*
X1575D01*
Y343701D01*
X76772D01*
Y314567D01*
D02*
G37*
%LPC*%
G36*
X61004Y339504D02*
X60129Y339388D01*
X59313Y339051D01*
X58613Y338513D01*
X58075Y337813D01*
X57737Y336997D01*
X57622Y336122D01*
X57737Y335247D01*
X58075Y334431D01*
X58613Y333731D01*
X59313Y333193D01*
X60129Y332856D01*
X61004Y332740D01*
X61879Y332856D01*
X62695Y333193D01*
X63395Y333731D01*
X63933Y334431D01*
X64270Y335247D01*
X64386Y336122D01*
X64270Y336997D01*
X63933Y337813D01*
X63395Y338513D01*
X62695Y339051D01*
X61879Y339388D01*
X61004Y339504D01*
D02*
G37*
G36*
X51004D02*
X50129Y339388D01*
X49313Y339051D01*
X48613Y338513D01*
X48075Y337813D01*
X47738Y336997D01*
X47622Y336122D01*
X47738Y335247D01*
X48075Y334431D01*
X48613Y333731D01*
X49313Y333193D01*
X50129Y332856D01*
X51004Y332740D01*
X51879Y332856D01*
X52695Y333193D01*
X53395Y333731D01*
X53932Y334431D01*
X54270Y335247D01*
X54386Y336122D01*
X54270Y336997D01*
X53932Y337813D01*
X53395Y338513D01*
X52695Y339051D01*
X51879Y339388D01*
X51004Y339504D01*
D02*
G37*
G36*
X21004D02*
X20129Y339388D01*
X19313Y339051D01*
X18613Y338513D01*
X18075Y337813D01*
X17738Y336997D01*
X17622Y336122D01*
X17738Y335247D01*
X18075Y334431D01*
X18613Y333731D01*
X19313Y333193D01*
X20129Y332856D01*
X21004Y332740D01*
X21879Y332856D01*
X22695Y333193D01*
X23395Y333731D01*
X23933Y334431D01*
X24270Y335247D01*
X24386Y336122D01*
X24270Y336997D01*
X23933Y337813D01*
X23395Y338513D01*
X22695Y339051D01*
X21879Y339388D01*
X21004Y339504D01*
D02*
G37*
G36*
X41004D02*
X40129Y339388D01*
X39313Y339051D01*
X38613Y338513D01*
X38075Y337813D01*
X37738Y336997D01*
X37622Y336122D01*
X37738Y335247D01*
X38075Y334431D01*
X38613Y333731D01*
X39313Y333193D01*
X39946Y332931D01*
X39846Y332431D01*
X32162D01*
X32062Y332931D01*
X32695Y333193D01*
X33395Y333731D01*
X33933Y334431D01*
X34270Y335247D01*
X34386Y336122D01*
X34270Y336997D01*
X33933Y337813D01*
X33395Y338513D01*
X32695Y339051D01*
X31879Y339388D01*
X31004Y339504D01*
X30129Y339388D01*
X29313Y339051D01*
X28613Y338513D01*
X28075Y337813D01*
X27738Y336997D01*
X27622Y336122D01*
X27738Y335247D01*
X28075Y334431D01*
X28613Y333731D01*
X29313Y333193D01*
X29946Y332931D01*
X29846Y332431D01*
X25886D01*
X25886Y332431D01*
X25340Y332323D01*
X24877Y332013D01*
X24876Y332013D01*
X22338Y329475D01*
X17651D01*
Y322769D01*
X24357D01*
Y327456D01*
X26477Y329576D01*
X29276D01*
X29375Y329077D01*
X29313Y329051D01*
X28613Y328513D01*
X28075Y327813D01*
X27738Y326997D01*
X27622Y326122D01*
X27738Y325247D01*
X28075Y324431D01*
X28613Y323731D01*
X29313Y323193D01*
X29322Y323190D01*
Y232828D01*
X29450Y232185D01*
X29814Y231639D01*
X93888Y167564D01*
Y74705D01*
X94017Y74061D01*
X94381Y73515D01*
X108161Y59736D01*
X108707Y59371D01*
X109350Y59243D01*
X109350Y59243D01*
X116050D01*
X116195Y58743D01*
X115607Y58291D01*
X115062Y57581D01*
X114719Y56754D01*
X114602Y55866D01*
X114719Y54979D01*
X115062Y54151D01*
X115607Y53441D01*
X116317Y52896D01*
X117144Y52554D01*
X118032Y52437D01*
X118919Y52554D01*
X119746Y52896D01*
X120456Y53441D01*
X121001Y54151D01*
X121344Y54979D01*
X121461Y55866D01*
X121344Y56754D01*
X121001Y57581D01*
X120456Y58291D01*
X119868Y58743D01*
X120013Y59243D01*
X121949D01*
X122593Y59371D01*
X123138Y59736D01*
X126682Y63279D01*
X126682Y63279D01*
X126853Y63535D01*
X127353Y63384D01*
Y45231D01*
X124651Y42529D01*
X120089D01*
X119919Y43029D01*
X120456Y43441D01*
X121001Y44151D01*
X121344Y44978D01*
X121461Y45866D01*
X121344Y46754D01*
X121001Y47581D01*
X120456Y48291D01*
X119746Y48836D01*
X118919Y49179D01*
X118032Y49295D01*
X117144Y49179D01*
X116317Y48836D01*
X115607Y48291D01*
X115062Y47581D01*
X114719Y46754D01*
X114602Y45866D01*
X114719Y44978D01*
X115062Y44151D01*
X115607Y43441D01*
X116144Y43029D01*
X115974Y42529D01*
X115256D01*
X115256Y42529D01*
X114612Y42401D01*
X114066Y42036D01*
X109736Y37705D01*
X109371Y37159D01*
X109243Y36516D01*
Y22972D01*
X109371Y22329D01*
X109736Y21783D01*
X114732Y16786D01*
X114719Y16754D01*
X114602Y15866D01*
X114719Y14978D01*
X115062Y14151D01*
X115607Y13441D01*
X116317Y12896D01*
X117144Y12554D01*
X118032Y12437D01*
X118919Y12554D01*
X119746Y12896D01*
X120456Y13441D01*
X121001Y14151D01*
X121344Y14978D01*
X121461Y15866D01*
X121344Y16754D01*
X121001Y17581D01*
X120456Y18291D01*
X119746Y18836D01*
X118919Y19179D01*
X118032Y19295D01*
X117144Y19179D01*
X117112Y19165D01*
X112608Y23669D01*
Y35819D01*
X113620Y36831D01*
X114093Y36597D01*
X114063Y36366D01*
X122000D01*
X121929Y36910D01*
X121526Y37883D01*
X120926Y38664D01*
X121037Y39164D01*
X125348D01*
X125992Y39292D01*
X126538Y39657D01*
X130225Y43344D01*
X130225Y43344D01*
X130590Y43890D01*
X130718Y44534D01*
X130718Y44534D01*
X130718Y227551D01*
X141937Y238770D01*
X142518D01*
X142669Y238270D01*
X142413Y238099D01*
X142413Y238099D01*
X131783Y227469D01*
X131418Y226923D01*
X131290Y226279D01*
Y41504D01*
X118951Y29165D01*
X118919Y29179D01*
X118032Y29295D01*
X117144Y29179D01*
X116317Y28836D01*
X115607Y28291D01*
X115062Y27581D01*
X114719Y26754D01*
X114602Y25866D01*
X114719Y24979D01*
X115062Y24151D01*
X115607Y23441D01*
X116317Y22896D01*
X117144Y22554D01*
X118032Y22437D01*
X118919Y22554D01*
X119746Y22896D01*
X120456Y23441D01*
X121001Y24151D01*
X121344Y24979D01*
X121461Y25866D01*
X121344Y26754D01*
X121331Y26786D01*
X134162Y39617D01*
X134162Y39617D01*
X134527Y40163D01*
X134655Y40807D01*
Y225583D01*
X144299Y235227D01*
X157677D01*
X157844Y235010D01*
X158401Y234583D01*
X159049Y234314D01*
X159744Y234223D01*
X160440Y234314D01*
X161088Y234583D01*
X161644Y235010D01*
X162071Y235566D01*
X162339Y236214D01*
X162431Y236909D01*
X162339Y237605D01*
X162071Y238253D01*
X161644Y238809D01*
X161088Y239236D01*
X160440Y239505D01*
X159744Y239596D01*
X159049Y239505D01*
X158401Y239236D01*
X157844Y238809D01*
X157677Y238592D01*
X156498D01*
X156346Y239092D01*
X156603Y239263D01*
X159472Y242132D01*
X159744Y242097D01*
X160440Y242188D01*
X161088Y242457D01*
X161644Y242884D01*
X162071Y243440D01*
X162339Y244088D01*
X162431Y244783D01*
X162339Y245479D01*
X162071Y246127D01*
X161644Y246683D01*
X161088Y247110D01*
X160440Y247379D01*
X159744Y247470D01*
X159049Y247379D01*
X158401Y247110D01*
X157844Y246683D01*
X157417Y246127D01*
X157149Y245479D01*
X157057Y244783D01*
X157093Y244512D01*
X154717Y242135D01*
X141240D01*
X140596Y242007D01*
X140051Y241642D01*
X140050Y241642D01*
X127846Y229438D01*
X127481Y228892D01*
X127353Y228248D01*
X127353Y69490D01*
X126853Y69339D01*
X126682Y69595D01*
X126682Y69595D01*
X121331Y74946D01*
X121344Y74979D01*
X121461Y75866D01*
X121344Y76754D01*
X121001Y77581D01*
X120456Y78291D01*
X119746Y78836D01*
X118919Y79179D01*
X118032Y79295D01*
X117144Y79179D01*
X116317Y78836D01*
X115607Y78291D01*
X115062Y77581D01*
X114719Y76754D01*
X114602Y75866D01*
X114719Y74979D01*
X115062Y74151D01*
X115607Y73441D01*
X116317Y72896D01*
X117144Y72554D01*
X118032Y72437D01*
X118919Y72554D01*
X118951Y72567D01*
X123810Y67709D01*
Y65165D01*
X121252Y62608D01*
X120191D01*
X120021Y63108D01*
X120456Y63441D01*
X121001Y64151D01*
X121344Y64978D01*
X121461Y65866D01*
X121344Y66754D01*
X121001Y67581D01*
X120456Y68291D01*
X119746Y68836D01*
X118919Y69179D01*
X118032Y69296D01*
X117144Y69179D01*
X116317Y68836D01*
X115607Y68291D01*
X115062Y67581D01*
X115048Y67548D01*
X110618D01*
X101190Y76976D01*
Y169980D01*
X101062Y170624D01*
X100698Y171170D01*
X100697Y171170D01*
X39379Y232488D01*
Y322118D01*
X40120Y322859D01*
X40129Y322856D01*
X41004Y322740D01*
X41879Y322856D01*
X42695Y323193D01*
X43395Y323731D01*
X43933Y324431D01*
X44037Y324684D01*
X44537Y324584D01*
Y313091D01*
X41412Y309966D01*
X41102Y309503D01*
X40994Y308957D01*
X40994Y308957D01*
Y233366D01*
X40994Y233366D01*
X41102Y232820D01*
X41412Y232357D01*
X50420Y223349D01*
X50420Y223349D01*
X50883Y223040D01*
X51429Y222931D01*
X51429Y222931D01*
X54029D01*
Y220958D01*
X60735D01*
Y227664D01*
X54029D01*
Y225786D01*
X52020D01*
X43849Y233957D01*
Y308365D01*
X46974Y311491D01*
X46974Y311491D01*
X47283Y311954D01*
X47392Y312500D01*
Y323515D01*
X47892Y323685D01*
X48185Y323303D01*
X49011Y322669D01*
X49972Y322271D01*
X50504Y322201D01*
Y326122D01*
Y330043D01*
X49972Y329973D01*
X49011Y329575D01*
X48185Y328941D01*
X47892Y328560D01*
X47392Y328729D01*
Y329823D01*
X47392Y329823D01*
X47283Y330369D01*
X46974Y330832D01*
X46974Y330832D01*
X45793Y332013D01*
X45330Y332323D01*
X44783Y332431D01*
X44783Y332431D01*
X42162D01*
X42062Y332931D01*
X42695Y333193D01*
X43395Y333731D01*
X43933Y334431D01*
X44270Y335247D01*
X44386Y336122D01*
X44270Y336997D01*
X43933Y337813D01*
X43395Y338513D01*
X42695Y339051D01*
X41879Y339388D01*
X41004Y339504D01*
D02*
G37*
G36*
X51504Y330043D02*
Y326622D01*
X54925D01*
X54855Y327154D01*
X54457Y328116D01*
X53823Y328941D01*
X52997Y329575D01*
X52036Y329973D01*
X51504Y330043D01*
D02*
G37*
G36*
X61004Y329504D02*
X60129Y329388D01*
X59313Y329051D01*
X58613Y328513D01*
X58075Y327813D01*
X57737Y326997D01*
X57622Y326122D01*
X57737Y325247D01*
X58075Y324431D01*
X58613Y323731D01*
X59313Y323193D01*
X60129Y322856D01*
X61004Y322740D01*
X61879Y322856D01*
X62695Y323193D01*
X63395Y323731D01*
X63933Y324431D01*
X64270Y325247D01*
X64386Y326122D01*
X64270Y326997D01*
X63933Y327813D01*
X63395Y328513D01*
X62695Y329051D01*
X61879Y329388D01*
X61004Y329504D01*
D02*
G37*
G36*
X54925Y325622D02*
X51504D01*
Y322201D01*
X52036Y322271D01*
X52997Y322669D01*
X53823Y323303D01*
X54457Y324129D01*
X54855Y325090D01*
X54925Y325622D01*
D02*
G37*
G36*
X161031Y313100D02*
Y304732D01*
X169399D01*
X169277Y305972D01*
X168770Y307645D01*
X167946Y309186D01*
X166837Y310538D01*
X165486Y311647D01*
X163944Y312471D01*
X162271Y312978D01*
X161031Y313100D01*
D02*
G37*
G36*
X160031D02*
X158792Y312978D01*
X157119Y312471D01*
X155578Y311647D01*
X154226Y310538D01*
X153117Y309186D01*
X152293Y307645D01*
X151786Y305972D01*
X151664Y304732D01*
X160031D01*
Y313100D01*
D02*
G37*
G36*
X15362Y305226D02*
Y296858D01*
X23730D01*
X23608Y298098D01*
X23100Y299771D01*
X22276Y301312D01*
X21167Y302663D01*
X19816Y303772D01*
X18275Y304596D01*
X16602Y305104D01*
X15362Y305226D01*
D02*
G37*
G36*
X14362D02*
X13123Y305104D01*
X11450Y304596D01*
X9908Y303772D01*
X8557Y302663D01*
X7448Y301312D01*
X6624Y299771D01*
X6117Y298098D01*
X5994Y296858D01*
X14362D01*
Y305226D01*
D02*
G37*
G36*
X169399Y303732D02*
X161031D01*
Y295365D01*
X162271Y295487D01*
X163944Y295994D01*
X165486Y296818D01*
X166837Y297927D01*
X167946Y299278D01*
X168770Y300820D01*
X169277Y302493D01*
X169399Y303732D01*
D02*
G37*
G36*
X160031D02*
X151664D01*
X151786Y302493D01*
X152293Y300820D01*
X153117Y299278D01*
X154226Y297927D01*
X155578Y296818D01*
X157119Y295994D01*
X158792Y295487D01*
X160031Y295365D01*
Y303732D01*
D02*
G37*
G36*
X57382Y297693D02*
X56507Y297577D01*
X55691Y297240D01*
X54991Y296702D01*
X54453Y296002D01*
X54115Y295186D01*
X54000Y294311D01*
X54115Y293436D01*
X54453Y292620D01*
X54991Y291920D01*
X55691Y291382D01*
X56507Y291044D01*
X57382Y290929D01*
X58257Y291044D01*
X59073Y291382D01*
X59773Y291920D01*
X60311Y292620D01*
X60648Y293436D01*
X60764Y294311D01*
X60648Y295186D01*
X60311Y296002D01*
X59773Y296702D01*
X59073Y297240D01*
X58257Y297577D01*
X57382Y297693D01*
D02*
G37*
G36*
X23730Y295858D02*
X15362D01*
Y287491D01*
X16602Y287613D01*
X18275Y288120D01*
X19816Y288944D01*
X21167Y290053D01*
X22276Y291404D01*
X23100Y292946D01*
X23608Y294619D01*
X23730Y295858D01*
D02*
G37*
G36*
X14362D02*
X5994D01*
X6117Y294619D01*
X6624Y292946D01*
X7448Y291404D01*
X8557Y290053D01*
X9908Y288944D01*
X11450Y288120D01*
X13123Y287613D01*
X14362Y287491D01*
Y295858D01*
D02*
G37*
G36*
X84268Y287417D02*
X81504D01*
Y284654D01*
X84268D01*
Y287417D01*
D02*
G37*
G36*
X80504D02*
X77740D01*
Y284654D01*
X80504D01*
Y287417D01*
D02*
G37*
G36*
X167618Y286840D02*
X166923Y286749D01*
X166275Y286480D01*
X165718Y286053D01*
X165291Y285497D01*
X165023Y284849D01*
X164931Y284154D01*
X165023Y283458D01*
X165291Y282810D01*
X165718Y282254D01*
X166275Y281827D01*
X166923Y281558D01*
X167618Y281467D01*
X168314Y281558D01*
X168962Y281827D01*
X169518Y282254D01*
X169945Y282810D01*
X170213Y283458D01*
X170305Y284154D01*
X170213Y284849D01*
X169945Y285497D01*
X169518Y286053D01*
X168962Y286480D01*
X168314Y286749D01*
X167618Y286840D01*
D02*
G37*
G36*
X159744Y286840D02*
X159049Y286749D01*
X158401Y286480D01*
X157844Y286053D01*
X157417Y285497D01*
X157149Y284849D01*
X157057Y284154D01*
X157149Y283458D01*
X157417Y282810D01*
X157844Y282254D01*
X158401Y281827D01*
X159049Y281558D01*
X159744Y281467D01*
X160440Y281558D01*
X161088Y281827D01*
X161644Y282254D01*
X162071Y282810D01*
X162339Y283458D01*
X162431Y284154D01*
X162339Y284849D01*
X162071Y285497D01*
X161644Y286053D01*
X161088Y286480D01*
X160440Y286749D01*
X159744Y286840D01*
D02*
G37*
G36*
X88878D02*
X88183Y286749D01*
X87535Y286480D01*
X86978Y286053D01*
X86551Y285497D01*
X86283Y284849D01*
X86191Y284154D01*
X86283Y283458D01*
X86551Y282810D01*
X86978Y282254D01*
X87535Y281827D01*
X88183Y281558D01*
X88878Y281467D01*
X89573Y281558D01*
X90221Y281827D01*
X90778Y282254D01*
X91205Y282810D01*
X91473Y283458D01*
X91565Y284154D01*
X91473Y284849D01*
X91205Y285497D01*
X90778Y286053D01*
X90221Y286480D01*
X89573Y286749D01*
X88878Y286840D01*
D02*
G37*
G36*
X57382Y287693D02*
X56507Y287577D01*
X55691Y287240D01*
X54991Y286702D01*
X54453Y286002D01*
X54115Y285186D01*
X54000Y284311D01*
X54115Y283436D01*
X54453Y282620D01*
X54991Y281920D01*
X55691Y281382D01*
X56507Y281045D01*
X57382Y280929D01*
X58257Y281045D01*
X59073Y281382D01*
X59773Y281920D01*
X60311Y282620D01*
X60648Y283436D01*
X60764Y284311D01*
X60648Y285186D01*
X60311Y286002D01*
X59773Y286702D01*
X59073Y287240D01*
X58257Y287577D01*
X57382Y287693D01*
D02*
G37*
G36*
X84268Y283654D02*
X81504D01*
Y280890D01*
X84268D01*
Y283654D01*
D02*
G37*
G36*
X80504D02*
X77740D01*
Y280890D01*
X80504D01*
Y283654D01*
D02*
G37*
G36*
X167618Y278966D02*
X166923Y278875D01*
X166275Y278606D01*
X165718Y278179D01*
X165291Y277623D01*
X165023Y276975D01*
X164931Y276280D01*
X165023Y275584D01*
X165291Y274936D01*
X165718Y274380D01*
X166275Y273953D01*
X166923Y273684D01*
X167618Y273593D01*
X168314Y273684D01*
X168962Y273953D01*
X169518Y274380D01*
X169945Y274936D01*
X170213Y275584D01*
X170305Y276280D01*
X170213Y276975D01*
X169945Y277623D01*
X169518Y278179D01*
X168962Y278606D01*
X168314Y278875D01*
X167618Y278966D01*
D02*
G37*
G36*
X81004D02*
X80309Y278875D01*
X79660Y278606D01*
X79104Y278179D01*
X78677Y277623D01*
X78409Y276975D01*
X78317Y276280D01*
X78409Y275584D01*
X78677Y274936D01*
X79104Y274380D01*
X79660Y273953D01*
X80309Y273684D01*
X81004Y273593D01*
X81699Y273684D01*
X82347Y273953D01*
X82904Y274380D01*
X83331Y274936D01*
X83599Y275584D01*
X83691Y276280D01*
X83599Y276975D01*
X83331Y277623D01*
X82904Y278179D01*
X82347Y278606D01*
X81699Y278875D01*
X81004Y278966D01*
D02*
G37*
G36*
X159744Y278966D02*
X159049Y278875D01*
X158401Y278606D01*
X157844Y278179D01*
X157417Y277623D01*
X157149Y276975D01*
X157057Y276279D01*
X157149Y275584D01*
X157417Y274936D01*
X157844Y274380D01*
X158401Y273953D01*
X159049Y273684D01*
X159744Y273593D01*
X160440Y273684D01*
X161088Y273953D01*
X161644Y274380D01*
X162071Y274936D01*
X162339Y275584D01*
X162431Y276279D01*
X162339Y276975D01*
X162071Y277623D01*
X161644Y278179D01*
X161088Y278606D01*
X160440Y278875D01*
X159744Y278966D01*
D02*
G37*
G36*
X88878D02*
X88183Y278875D01*
X87535Y278606D01*
X86978Y278179D01*
X86551Y277623D01*
X86283Y276975D01*
X86191Y276279D01*
X86283Y275584D01*
X86551Y274936D01*
X86978Y274380D01*
X87535Y273953D01*
X88183Y273684D01*
X88878Y273593D01*
X89573Y273684D01*
X90221Y273953D01*
X90778Y274380D01*
X91205Y274936D01*
X91473Y275584D01*
X91565Y276279D01*
X91473Y276975D01*
X91205Y277623D01*
X90778Y278179D01*
X90221Y278606D01*
X89573Y278875D01*
X88878Y278966D01*
D02*
G37*
G36*
X57382Y277693D02*
X56507Y277577D01*
X55691Y277240D01*
X54991Y276702D01*
X54453Y276002D01*
X54115Y275186D01*
X54000Y274311D01*
X54115Y273436D01*
X54453Y272620D01*
X54991Y271920D01*
X55691Y271382D01*
X56507Y271044D01*
X57382Y270929D01*
X58257Y271044D01*
X59073Y271382D01*
X59773Y271920D01*
X60311Y272620D01*
X60648Y273436D01*
X60764Y274311D01*
X60648Y275186D01*
X60311Y276002D01*
X59773Y276702D01*
X59073Y277240D01*
X58257Y277577D01*
X57382Y277693D01*
D02*
G37*
G36*
X167618Y271092D02*
X166923Y271001D01*
X166275Y270732D01*
X165718Y270305D01*
X165291Y269749D01*
X165023Y269101D01*
X164931Y268406D01*
X165023Y267710D01*
X165291Y267062D01*
X165718Y266506D01*
X166275Y266079D01*
X166923Y265810D01*
X167618Y265719D01*
X168314Y265810D01*
X168962Y266079D01*
X169518Y266506D01*
X169945Y267062D01*
X170213Y267710D01*
X170305Y268406D01*
X170213Y269101D01*
X169945Y269749D01*
X169518Y270305D01*
X168962Y270732D01*
X168314Y271001D01*
X167618Y271092D01*
D02*
G37*
G36*
X81004D02*
X80309Y271001D01*
X79660Y270732D01*
X79104Y270305D01*
X78677Y269749D01*
X78409Y269101D01*
X78317Y268406D01*
X78409Y267710D01*
X78677Y267062D01*
X79104Y266506D01*
X79660Y266079D01*
X80309Y265810D01*
X81004Y265719D01*
X81699Y265810D01*
X82347Y266079D01*
X82904Y266506D01*
X83331Y267062D01*
X83599Y267710D01*
X83691Y268406D01*
X83599Y269101D01*
X83331Y269749D01*
X82904Y270305D01*
X82347Y270732D01*
X81699Y271001D01*
X81004Y271092D01*
D02*
G37*
G36*
X159744Y271092D02*
X159049Y271001D01*
X158401Y270732D01*
X157844Y270305D01*
X157417Y269749D01*
X157149Y269101D01*
X157057Y268406D01*
X157149Y267710D01*
X157417Y267062D01*
X157844Y266506D01*
X158401Y266079D01*
X159049Y265810D01*
X159744Y265719D01*
X160440Y265810D01*
X161088Y266079D01*
X161644Y266506D01*
X162071Y267062D01*
X162339Y267710D01*
X162431Y268406D01*
X162339Y269101D01*
X162071Y269749D01*
X161644Y270305D01*
X161088Y270732D01*
X160440Y271001D01*
X159744Y271092D01*
D02*
G37*
G36*
X88878D02*
X88183Y271001D01*
X87535Y270732D01*
X86978Y270305D01*
X86551Y269749D01*
X86283Y269101D01*
X86191Y268406D01*
X86283Y267710D01*
X86551Y267062D01*
X86978Y266506D01*
X87535Y266079D01*
X88183Y265810D01*
X88878Y265719D01*
X89573Y265810D01*
X90221Y266079D01*
X90778Y266506D01*
X91205Y267062D01*
X91473Y267710D01*
X91565Y268406D01*
X91473Y269101D01*
X91205Y269749D01*
X90778Y270305D01*
X90221Y270732D01*
X89573Y271001D01*
X88878Y271092D01*
D02*
G37*
G36*
X57382Y267693D02*
X56507Y267577D01*
X55691Y267240D01*
X54991Y266702D01*
X54453Y266002D01*
X54115Y265186D01*
X54000Y264311D01*
X54115Y263436D01*
X54453Y262620D01*
X54991Y261920D01*
X55691Y261382D01*
X56507Y261045D01*
X57382Y260929D01*
X58257Y261045D01*
X59073Y261382D01*
X59773Y261920D01*
X60311Y262620D01*
X60648Y263436D01*
X60764Y264311D01*
X60648Y265186D01*
X60311Y266002D01*
X59773Y266702D01*
X59073Y267240D01*
X58257Y267577D01*
X57382Y267693D01*
D02*
G37*
G36*
X167618Y263218D02*
X166923Y263127D01*
X166275Y262858D01*
X165718Y262431D01*
X165291Y261875D01*
X165023Y261227D01*
X164931Y260531D01*
X165023Y259836D01*
X165291Y259188D01*
X165718Y258632D01*
X166275Y258205D01*
X166923Y257936D01*
X167618Y257845D01*
X168314Y257936D01*
X168962Y258205D01*
X169518Y258632D01*
X169945Y259188D01*
X170213Y259836D01*
X170305Y260531D01*
X170213Y261227D01*
X169945Y261875D01*
X169518Y262431D01*
X168962Y262858D01*
X168314Y263127D01*
X167618Y263218D01*
D02*
G37*
G36*
X81004D02*
X80309Y263127D01*
X79660Y262858D01*
X79104Y262431D01*
X78677Y261875D01*
X78409Y261227D01*
X78317Y260531D01*
X78409Y259836D01*
X78677Y259188D01*
X79104Y258632D01*
X79660Y258205D01*
X80309Y257936D01*
X81004Y257845D01*
X81699Y257936D01*
X82347Y258205D01*
X82904Y258632D01*
X83331Y259188D01*
X83599Y259836D01*
X83691Y260531D01*
X83599Y261227D01*
X83331Y261875D01*
X82904Y262431D01*
X82347Y262858D01*
X81699Y263127D01*
X81004Y263218D01*
D02*
G37*
G36*
X159744Y263218D02*
X159049Y263127D01*
X158401Y262858D01*
X157844Y262431D01*
X157417Y261875D01*
X157149Y261227D01*
X157057Y260531D01*
X157149Y259836D01*
X157417Y259188D01*
X157844Y258632D01*
X158401Y258205D01*
X159049Y257936D01*
X159744Y257845D01*
X160440Y257936D01*
X161088Y258205D01*
X161644Y258632D01*
X162071Y259188D01*
X162339Y259836D01*
X162431Y260531D01*
X162339Y261227D01*
X162071Y261875D01*
X161644Y262431D01*
X161088Y262858D01*
X160440Y263127D01*
X159744Y263218D01*
D02*
G37*
G36*
X88878D02*
X88183Y263127D01*
X87535Y262858D01*
X86978Y262431D01*
X86551Y261875D01*
X86283Y261227D01*
X86191Y260531D01*
X86283Y259836D01*
X86551Y259188D01*
X86978Y258632D01*
X87535Y258205D01*
X88183Y257936D01*
X88878Y257845D01*
X89573Y257936D01*
X90221Y258205D01*
X90778Y258632D01*
X91205Y259188D01*
X91473Y259836D01*
X91565Y260531D01*
X91473Y261227D01*
X91205Y261875D01*
X90778Y262431D01*
X90221Y262858D01*
X89573Y263127D01*
X88878Y263218D01*
D02*
G37*
G36*
X57382Y257693D02*
X56507Y257577D01*
X55691Y257240D01*
X54991Y256702D01*
X54453Y256002D01*
X54115Y255186D01*
X54000Y254311D01*
X54115Y253436D01*
X54119Y253427D01*
X49893Y249201D01*
X49528Y248656D01*
X49400Y248012D01*
Y242421D01*
X49528Y241777D01*
X49893Y241232D01*
X53043Y238082D01*
X53588Y237717D01*
X54232Y237589D01*
X54407D01*
X54471Y237401D01*
X54531Y237089D01*
X53929Y236304D01*
X53531Y235343D01*
X53461Y234811D01*
X57382D01*
X61303D01*
X61233Y235343D01*
X60835Y236304D01*
X60232Y237089D01*
X60293Y237401D01*
X60357Y237589D01*
X66527D01*
X68298Y235819D01*
Y214075D01*
X68426Y213431D01*
X68791Y212885D01*
X86999Y194676D01*
X86999Y194676D01*
X87545Y194312D01*
X88189Y194184D01*
X115048D01*
X115062Y194151D01*
X115607Y193441D01*
X116317Y192896D01*
X117144Y192554D01*
X118032Y192437D01*
X118919Y192554D01*
X119746Y192896D01*
X120456Y193441D01*
X121001Y194151D01*
X121344Y194978D01*
X121461Y195866D01*
X121344Y196754D01*
X121001Y197581D01*
X120456Y198291D01*
X119746Y198836D01*
X118919Y199179D01*
X118032Y199295D01*
X117144Y199179D01*
X116317Y198836D01*
X115607Y198291D01*
X115062Y197581D01*
X115048Y197548D01*
X88886D01*
X71663Y214772D01*
Y236516D01*
X71535Y237159D01*
X71170Y237705D01*
X68414Y240461D01*
X67868Y240826D01*
X67224Y240954D01*
X59298D01*
X59237Y241069D01*
X59166Y241454D01*
X59773Y241920D01*
X60311Y242620D01*
X60314Y242629D01*
X68575D01*
X72235Y238968D01*
Y215650D01*
X72363Y215006D01*
X72728Y214460D01*
X82511Y204677D01*
X83057Y204312D01*
X83701Y204184D01*
X115048D01*
X115062Y204151D01*
X115607Y203441D01*
X116317Y202896D01*
X117144Y202554D01*
X118032Y202437D01*
X118919Y202554D01*
X119746Y202896D01*
X120456Y203441D01*
X121001Y204151D01*
X121344Y204978D01*
X121461Y205866D01*
X121344Y206754D01*
X121001Y207581D01*
X120456Y208291D01*
X119746Y208836D01*
X118919Y209179D01*
X118032Y209295D01*
X117144Y209179D01*
X116317Y208836D01*
X115607Y208291D01*
X115062Y207581D01*
X115048Y207548D01*
X84398D01*
X75600Y216346D01*
Y239665D01*
X75472Y240309D01*
X75107Y240855D01*
X70461Y245501D01*
X69915Y245865D01*
X69272Y245993D01*
X60314D01*
X60311Y246002D01*
X59773Y246702D01*
X59073Y247240D01*
X58257Y247577D01*
X57382Y247693D01*
X56507Y247577D01*
X55691Y247240D01*
X54991Y246702D01*
X54453Y246002D01*
X54115Y245186D01*
X54000Y244311D01*
X54115Y243436D01*
X54453Y242620D01*
X54991Y241920D01*
X55598Y241454D01*
X55526Y241069D01*
X55466Y240954D01*
X54929D01*
X52765Y243118D01*
Y247315D01*
X56498Y251048D01*
X56507Y251045D01*
X57382Y250929D01*
X58257Y251045D01*
X59073Y251382D01*
X59773Y251920D01*
X60311Y252620D01*
X60648Y253436D01*
X60764Y254311D01*
X60648Y255186D01*
X60311Y256002D01*
X59773Y256702D01*
X59073Y257240D01*
X58257Y257577D01*
X57382Y257693D01*
D02*
G37*
G36*
X167618Y255344D02*
X166923Y255253D01*
X166275Y254984D01*
X165718Y254557D01*
X165291Y254001D01*
X165023Y253353D01*
X164931Y252658D01*
X165023Y251962D01*
X165291Y251314D01*
X165718Y250758D01*
X166275Y250331D01*
X166923Y250062D01*
X167618Y249971D01*
X168314Y250062D01*
X168962Y250331D01*
X169518Y250758D01*
X169945Y251314D01*
X170213Y251962D01*
X170305Y252658D01*
X170213Y253353D01*
X169945Y254001D01*
X169518Y254557D01*
X168962Y254984D01*
X168314Y255253D01*
X167618Y255344D01*
D02*
G37*
G36*
X81004D02*
X80309Y255253D01*
X79660Y254984D01*
X79104Y254557D01*
X78677Y254001D01*
X78409Y253353D01*
X78317Y252658D01*
X78409Y251962D01*
X78677Y251314D01*
X79104Y250758D01*
X79660Y250331D01*
X80309Y250062D01*
X81004Y249971D01*
X81699Y250062D01*
X82347Y250331D01*
X82904Y250758D01*
X83331Y251314D01*
X83599Y251962D01*
X83691Y252658D01*
X83599Y253353D01*
X83331Y254001D01*
X82904Y254557D01*
X82347Y254984D01*
X81699Y255253D01*
X81004Y255344D01*
D02*
G37*
G36*
X159744Y255344D02*
X159049Y255253D01*
X158401Y254984D01*
X157844Y254557D01*
X157417Y254001D01*
X157149Y253353D01*
X157057Y252658D01*
X157149Y251962D01*
X157417Y251314D01*
X157844Y250758D01*
X158401Y250331D01*
X159049Y250062D01*
X159744Y249971D01*
X160440Y250062D01*
X161088Y250331D01*
X161644Y250758D01*
X162071Y251314D01*
X162339Y251962D01*
X162431Y252658D01*
X162339Y253353D01*
X162071Y254001D01*
X161644Y254557D01*
X161088Y254984D01*
X160440Y255253D01*
X159744Y255344D01*
D02*
G37*
G36*
X88878D02*
X88183Y255253D01*
X87535Y254984D01*
X86978Y254557D01*
X86551Y254001D01*
X86283Y253353D01*
X86191Y252658D01*
X86283Y251962D01*
X86551Y251314D01*
X86978Y250758D01*
X87535Y250331D01*
X88183Y250062D01*
X88878Y249971D01*
X89573Y250062D01*
X90221Y250331D01*
X90778Y250758D01*
X91205Y251314D01*
X91473Y251962D01*
X91565Y252658D01*
X91473Y253353D01*
X91205Y254001D01*
X90778Y254557D01*
X90221Y254984D01*
X89573Y255253D01*
X88878Y255344D01*
D02*
G37*
G36*
X89378Y248009D02*
Y245283D01*
X92104D01*
X92058Y245635D01*
X91729Y246429D01*
X91206Y247111D01*
X90524Y247634D01*
X89730Y247963D01*
X89378Y248009D01*
D02*
G37*
G36*
X88378D02*
X88026Y247963D01*
X87232Y247634D01*
X86550Y247111D01*
X86027Y246429D01*
X85698Y245635D01*
X85652Y245283D01*
X88378D01*
Y248009D01*
D02*
G37*
G36*
X167618Y247470D02*
X166923Y247379D01*
X166275Y247110D01*
X165718Y246683D01*
X165291Y246127D01*
X165023Y245479D01*
X164931Y244783D01*
X165023Y244088D01*
X165291Y243440D01*
X165718Y242884D01*
X166275Y242457D01*
X166923Y242188D01*
X167618Y242097D01*
X168314Y242188D01*
X168962Y242457D01*
X169518Y242884D01*
X169945Y243440D01*
X170213Y244088D01*
X170305Y244783D01*
X170213Y245479D01*
X169945Y246127D01*
X169518Y246683D01*
X168962Y247110D01*
X168314Y247379D01*
X167618Y247470D01*
D02*
G37*
G36*
X81004D02*
X80309Y247379D01*
X79660Y247110D01*
X79104Y246683D01*
X78677Y246127D01*
X78409Y245479D01*
X78317Y244783D01*
X78409Y244088D01*
X78677Y243440D01*
X79104Y242884D01*
X79660Y242457D01*
X80309Y242188D01*
X81004Y242097D01*
X81699Y242188D01*
X82347Y242457D01*
X82904Y242884D01*
X83331Y243440D01*
X83599Y244088D01*
X83691Y244783D01*
X83599Y245479D01*
X83331Y246127D01*
X82904Y246683D01*
X82347Y247110D01*
X81699Y247379D01*
X81004Y247470D01*
D02*
G37*
G36*
X92104Y244283D02*
X89378D01*
Y241557D01*
X89730Y241604D01*
X90524Y241933D01*
X91206Y242456D01*
X91729Y243138D01*
X92058Y243931D01*
X92104Y244283D01*
D02*
G37*
G36*
X88378D02*
X85652D01*
X85698Y243931D01*
X86027Y243138D01*
X86550Y242456D01*
X87232Y241933D01*
X88026Y241604D01*
X88378Y241557D01*
Y244283D01*
D02*
G37*
G36*
X167618Y239596D02*
X166923Y239505D01*
X166275Y239236D01*
X165718Y238809D01*
X165291Y238253D01*
X165023Y237605D01*
X164931Y236910D01*
X165023Y236214D01*
X165291Y235566D01*
X165718Y235010D01*
X166275Y234583D01*
X166923Y234314D01*
X167618Y234223D01*
X168314Y234314D01*
X168962Y234583D01*
X169518Y235010D01*
X169945Y235566D01*
X170213Y236214D01*
X170305Y236910D01*
X170213Y237605D01*
X169945Y238253D01*
X169518Y238809D01*
X168962Y239236D01*
X168314Y239505D01*
X167618Y239596D01*
D02*
G37*
G36*
X81004D02*
X80309Y239505D01*
X79660Y239236D01*
X79104Y238809D01*
X78677Y238253D01*
X78409Y237605D01*
X78317Y236910D01*
X78409Y236214D01*
X78677Y235566D01*
X79104Y235010D01*
X79660Y234583D01*
X80309Y234314D01*
X81004Y234223D01*
X81699Y234314D01*
X82347Y234583D01*
X82904Y235010D01*
X83331Y235566D01*
X83599Y236214D01*
X83691Y236910D01*
X83599Y237605D01*
X83331Y238253D01*
X82904Y238809D01*
X82347Y239236D01*
X81699Y239505D01*
X81004Y239596D01*
D02*
G37*
G36*
X88878Y239596D02*
X88183Y239505D01*
X87535Y239236D01*
X86978Y238809D01*
X86551Y238253D01*
X86283Y237605D01*
X86191Y236909D01*
X86283Y236214D01*
X86551Y235566D01*
X86978Y235010D01*
X87535Y234583D01*
X88183Y234314D01*
X88878Y234223D01*
X89573Y234314D01*
X90221Y234583D01*
X90778Y235010D01*
X91205Y235566D01*
X91473Y236214D01*
X91565Y236909D01*
X91473Y237605D01*
X91205Y238253D01*
X90778Y238809D01*
X90221Y239236D01*
X89573Y239505D01*
X88878Y239596D01*
D02*
G37*
G36*
X61303Y233811D02*
X57882D01*
Y230390D01*
X58414Y230460D01*
X59375Y230858D01*
X60201Y231492D01*
X60835Y232318D01*
X61233Y233279D01*
X61303Y233811D01*
D02*
G37*
G36*
X56882D02*
X53461D01*
X53531Y233279D01*
X53929Y232318D01*
X54563Y231492D01*
X55388Y230858D01*
X56350Y230460D01*
X56882Y230390D01*
Y233811D01*
D02*
G37*
G36*
X167618Y231722D02*
X166923Y231631D01*
X166275Y231362D01*
X165718Y230935D01*
X165291Y230379D01*
X165023Y229731D01*
X164931Y229035D01*
X165023Y228340D01*
X165291Y227692D01*
X165718Y227136D01*
X166275Y226709D01*
X166923Y226440D01*
X167618Y226349D01*
X168314Y226440D01*
X168962Y226709D01*
X169518Y227136D01*
X169945Y227692D01*
X170213Y228340D01*
X170305Y229035D01*
X170213Y229731D01*
X169945Y230379D01*
X169518Y230935D01*
X168962Y231362D01*
X168314Y231631D01*
X167618Y231722D01*
D02*
G37*
G36*
X81004D02*
X80309Y231631D01*
X79660Y231362D01*
X79104Y230935D01*
X78677Y230379D01*
X78409Y229731D01*
X78317Y229035D01*
X78409Y228340D01*
X78677Y227692D01*
X79104Y227136D01*
X79660Y226709D01*
X80309Y226440D01*
X81004Y226349D01*
X81699Y226440D01*
X82347Y226709D01*
X82904Y227136D01*
X83331Y227692D01*
X83599Y228340D01*
X83691Y229035D01*
X83599Y229731D01*
X83331Y230379D01*
X82904Y230935D01*
X82347Y231362D01*
X81699Y231631D01*
X81004Y231722D01*
D02*
G37*
G36*
X159744Y231722D02*
X159049Y231631D01*
X158401Y231362D01*
X157844Y230935D01*
X157417Y230379D01*
X157149Y229731D01*
X157057Y229035D01*
X157149Y228340D01*
X157417Y227692D01*
X157844Y227136D01*
X158401Y226709D01*
X159049Y226440D01*
X159744Y226349D01*
X160440Y226440D01*
X161088Y226709D01*
X161644Y227136D01*
X162071Y227692D01*
X162339Y228340D01*
X162431Y229035D01*
X162339Y229731D01*
X162071Y230379D01*
X161644Y230935D01*
X161088Y231362D01*
X160440Y231631D01*
X159744Y231722D01*
D02*
G37*
G36*
X88878D02*
X88183Y231631D01*
X87535Y231362D01*
X86978Y230935D01*
X86551Y230379D01*
X86283Y229731D01*
X86191Y229035D01*
X86283Y228340D01*
X86551Y227692D01*
X86978Y227136D01*
X87535Y226709D01*
X88183Y226440D01*
X88878Y226349D01*
X89573Y226440D01*
X90221Y226709D01*
X90778Y227136D01*
X91205Y227692D01*
X91473Y228340D01*
X91565Y229035D01*
X91473Y229731D01*
X91205Y230379D01*
X90778Y230935D01*
X90221Y231362D01*
X89573Y231631D01*
X88878Y231722D01*
D02*
G37*
G36*
X167618Y223848D02*
X166923Y223757D01*
X166275Y223488D01*
X165718Y223061D01*
X165291Y222505D01*
X165023Y221857D01*
X164931Y221161D01*
X165023Y220466D01*
X165291Y219818D01*
X165718Y219262D01*
X166275Y218835D01*
X166923Y218566D01*
X167618Y218475D01*
X168314Y218566D01*
X168962Y218835D01*
X169518Y219262D01*
X169945Y219818D01*
X170213Y220466D01*
X170305Y221161D01*
X170213Y221857D01*
X169945Y222505D01*
X169518Y223061D01*
X168962Y223488D01*
X168314Y223757D01*
X167618Y223848D01*
D02*
G37*
G36*
X81004D02*
X80309Y223757D01*
X79660Y223488D01*
X79104Y223061D01*
X78677Y222505D01*
X78409Y221857D01*
X78317Y221161D01*
X78409Y220466D01*
X78677Y219818D01*
X79104Y219262D01*
X79660Y218835D01*
X80309Y218566D01*
X81004Y218475D01*
X81699Y218566D01*
X82347Y218835D01*
X82904Y219262D01*
X83331Y219818D01*
X83599Y220466D01*
X83691Y221161D01*
X83599Y221857D01*
X83331Y222505D01*
X82904Y223061D01*
X82347Y223488D01*
X81699Y223757D01*
X81004Y223848D01*
D02*
G37*
G36*
X159744Y223848D02*
X159049Y223757D01*
X158401Y223488D01*
X157844Y223061D01*
X157417Y222505D01*
X157149Y221857D01*
X157057Y221161D01*
X157149Y220466D01*
X157417Y219818D01*
X157844Y219262D01*
X158401Y218835D01*
X159049Y218566D01*
X159744Y218475D01*
X160440Y218566D01*
X161088Y218835D01*
X161644Y219262D01*
X162071Y219818D01*
X162339Y220466D01*
X162431Y221161D01*
X162339Y221857D01*
X162071Y222505D01*
X161644Y223061D01*
X161088Y223488D01*
X160440Y223757D01*
X159744Y223848D01*
D02*
G37*
G36*
X88878D02*
X88183Y223757D01*
X87535Y223488D01*
X86978Y223061D01*
X86551Y222505D01*
X86283Y221857D01*
X86191Y221161D01*
X86283Y220466D01*
X86551Y219818D01*
X86978Y219262D01*
X87535Y218835D01*
X88183Y218566D01*
X88878Y218475D01*
X89573Y218566D01*
X90221Y218835D01*
X90778Y219262D01*
X91205Y219818D01*
X91473Y220466D01*
X91565Y221161D01*
X91473Y221857D01*
X91205Y222505D01*
X90778Y223061D01*
X90221Y223488D01*
X89573Y223757D01*
X88878Y223848D01*
D02*
G37*
G36*
X48031Y209295D02*
X47144Y209179D01*
X46317Y208836D01*
X45607Y208291D01*
X45062Y207581D01*
X44719Y206754D01*
X44602Y205866D01*
X44719Y204978D01*
X45062Y204151D01*
X45607Y203441D01*
X46317Y202896D01*
X47144Y202554D01*
X48031Y202437D01*
X48919Y202554D01*
X49746Y202896D01*
X50456Y203441D01*
X51001Y204151D01*
X51344Y204978D01*
X51461Y205866D01*
X51344Y206754D01*
X51001Y207581D01*
X50456Y208291D01*
X49746Y208836D01*
X48919Y209179D01*
X48031Y209295D01*
D02*
G37*
G36*
Y199295D02*
X47144Y199179D01*
X46317Y198836D01*
X45607Y198291D01*
X45062Y197581D01*
X44719Y196754D01*
X44602Y195866D01*
X44719Y194978D01*
X45062Y194151D01*
X45607Y193441D01*
X46317Y192896D01*
X47144Y192554D01*
X48031Y192437D01*
X48919Y192554D01*
X49746Y192896D01*
X50456Y193441D01*
X51001Y194151D01*
X51344Y194978D01*
X51461Y195866D01*
X51344Y196754D01*
X51001Y197581D01*
X50456Y198291D01*
X49746Y198836D01*
X48919Y199179D01*
X48031Y199295D01*
D02*
G37*
G36*
X118532Y189835D02*
Y186366D01*
X122000D01*
X121929Y186910D01*
X121526Y187883D01*
X120884Y188719D01*
X120049Y189360D01*
X119076Y189763D01*
X118532Y189835D01*
D02*
G37*
G36*
X117532D02*
X116987Y189763D01*
X116014Y189360D01*
X115179Y188719D01*
X114538Y187883D01*
X114134Y186910D01*
X114063Y186366D01*
X117532D01*
Y189835D01*
D02*
G37*
G36*
X48531D02*
Y186366D01*
X52000D01*
X51929Y186910D01*
X51525Y187883D01*
X50884Y188719D01*
X50049Y189360D01*
X49076Y189763D01*
X48531Y189835D01*
D02*
G37*
G36*
X47532D02*
X46987Y189763D01*
X46014Y189360D01*
X45179Y188719D01*
X44537Y187883D01*
X44134Y186910D01*
X44063Y186366D01*
X47532D01*
Y189835D01*
D02*
G37*
G36*
X122000Y185366D02*
X118532D01*
Y181897D01*
X119076Y181969D01*
X120049Y182372D01*
X120884Y183013D01*
X121526Y183849D01*
X121929Y184822D01*
X122000Y185366D01*
D02*
G37*
G36*
X117532D02*
X114063D01*
X114134Y184822D01*
X114538Y183849D01*
X115179Y183013D01*
X116014Y182372D01*
X116987Y181969D01*
X117532Y181897D01*
Y185366D01*
D02*
G37*
G36*
X52000D02*
X48531D01*
Y181897D01*
X49076Y181969D01*
X50049Y182372D01*
X50884Y183013D01*
X51525Y183849D01*
X51929Y184822D01*
X52000Y185366D01*
D02*
G37*
G36*
X47532D02*
X44063D01*
X44134Y184822D01*
X44537Y183849D01*
X45179Y183013D01*
X46014Y182372D01*
X46987Y181969D01*
X47532Y181897D01*
Y185366D01*
D02*
G37*
G36*
X118032Y179296D02*
X117144Y179179D01*
X116317Y178836D01*
X115607Y178291D01*
X115062Y177581D01*
X114719Y176754D01*
X114602Y175866D01*
X114719Y174978D01*
X115062Y174151D01*
X115607Y173441D01*
X116317Y172896D01*
X117144Y172554D01*
X118032Y172437D01*
X118919Y172554D01*
X119746Y172896D01*
X120456Y173441D01*
X121001Y174151D01*
X121344Y174978D01*
X121461Y175866D01*
X121344Y176754D01*
X121001Y177581D01*
X120456Y178291D01*
X119746Y178836D01*
X118919Y179179D01*
X118032Y179296D01*
D02*
G37*
G36*
X48031D02*
X47144Y179179D01*
X46317Y178836D01*
X45607Y178291D01*
X45062Y177581D01*
X44719Y176754D01*
X44602Y175866D01*
X44719Y174978D01*
X45062Y174151D01*
X45607Y173441D01*
X46317Y172896D01*
X47144Y172554D01*
X48031Y172437D01*
X48919Y172554D01*
X49746Y172896D01*
X50456Y173441D01*
X51001Y174151D01*
X51344Y174978D01*
X51461Y175866D01*
X51344Y176754D01*
X51001Y177581D01*
X50456Y178291D01*
X49746Y178836D01*
X48919Y179179D01*
X48031Y179296D01*
D02*
G37*
G36*
X118032Y169296D02*
X117144Y169179D01*
X116317Y168836D01*
X115607Y168291D01*
X115062Y167581D01*
X114719Y166754D01*
X114602Y165866D01*
X114719Y164979D01*
X115062Y164151D01*
X115607Y163441D01*
X116317Y162896D01*
X117144Y162554D01*
X118032Y162437D01*
X118919Y162554D01*
X119746Y162896D01*
X120456Y163441D01*
X121001Y164151D01*
X121344Y164979D01*
X121461Y165866D01*
X121344Y166754D01*
X121001Y167581D01*
X120456Y168291D01*
X119746Y168836D01*
X118919Y169179D01*
X118032Y169296D01*
D02*
G37*
G36*
X48031D02*
X47144Y169179D01*
X46317Y168836D01*
X45607Y168291D01*
X45062Y167581D01*
X44719Y166754D01*
X44602Y165866D01*
X44719Y164979D01*
X45062Y164151D01*
X45607Y163441D01*
X46317Y162896D01*
X47144Y162554D01*
X48031Y162437D01*
X48919Y162554D01*
X49746Y162896D01*
X50456Y163441D01*
X51001Y164151D01*
X51344Y164979D01*
X51461Y165866D01*
X51344Y166754D01*
X51001Y167581D01*
X50456Y168291D01*
X49746Y168836D01*
X48919Y169179D01*
X48031Y169296D01*
D02*
G37*
G36*
X118032Y159295D02*
X117144Y159179D01*
X116317Y158836D01*
X115607Y158291D01*
X115062Y157581D01*
X114719Y156754D01*
X114602Y155866D01*
X114719Y154979D01*
X115062Y154151D01*
X115607Y153441D01*
X116317Y152896D01*
X117144Y152554D01*
X118032Y152437D01*
X118919Y152554D01*
X119746Y152896D01*
X120456Y153441D01*
X121001Y154151D01*
X121344Y154979D01*
X121461Y155866D01*
X121344Y156754D01*
X121001Y157581D01*
X120456Y158291D01*
X119746Y158836D01*
X118919Y159179D01*
X118032Y159295D01*
D02*
G37*
G36*
X48031D02*
X47144Y159179D01*
X46317Y158836D01*
X45607Y158291D01*
X45062Y157581D01*
X44719Y156754D01*
X44602Y155866D01*
X44719Y154979D01*
X45062Y154151D01*
X45607Y153441D01*
X46317Y152896D01*
X47144Y152554D01*
X48031Y152437D01*
X48919Y152554D01*
X49746Y152896D01*
X50456Y153441D01*
X51001Y154151D01*
X51344Y154979D01*
X51461Y155866D01*
X51344Y156754D01*
X51001Y157581D01*
X50456Y158291D01*
X49746Y158836D01*
X48919Y159179D01*
X48031Y159295D01*
D02*
G37*
G36*
X118032Y149295D02*
X117144Y149179D01*
X116317Y148836D01*
X115607Y148291D01*
X115062Y147581D01*
X114719Y146754D01*
X114602Y145866D01*
X114719Y144978D01*
X115062Y144151D01*
X115607Y143441D01*
X116317Y142896D01*
X117144Y142554D01*
X118032Y142437D01*
X118919Y142554D01*
X119746Y142896D01*
X120456Y143441D01*
X121001Y144151D01*
X121344Y144978D01*
X121461Y145866D01*
X121344Y146754D01*
X121001Y147581D01*
X120456Y148291D01*
X119746Y148836D01*
X118919Y149179D01*
X118032Y149295D01*
D02*
G37*
G36*
X48031D02*
X47144Y149179D01*
X46317Y148836D01*
X45607Y148291D01*
X45062Y147581D01*
X44719Y146754D01*
X44602Y145866D01*
X44719Y144978D01*
X45062Y144151D01*
X45607Y143441D01*
X46317Y142896D01*
X47144Y142554D01*
X48031Y142437D01*
X48919Y142554D01*
X49746Y142896D01*
X50456Y143441D01*
X51001Y144151D01*
X51344Y144978D01*
X51461Y145866D01*
X51344Y146754D01*
X51001Y147581D01*
X50456Y148291D01*
X49746Y148836D01*
X48919Y149179D01*
X48031Y149295D01*
D02*
G37*
G36*
X118532Y139835D02*
Y136366D01*
X122000D01*
X121929Y136910D01*
X121526Y137883D01*
X120884Y138719D01*
X120049Y139360D01*
X119076Y139763D01*
X118532Y139835D01*
D02*
G37*
G36*
X117532D02*
X116987Y139763D01*
X116014Y139360D01*
X115179Y138719D01*
X114538Y137883D01*
X114134Y136910D01*
X114063Y136366D01*
X117532D01*
Y139835D01*
D02*
G37*
G36*
X48531D02*
Y136366D01*
X52000D01*
X51929Y136910D01*
X51525Y137883D01*
X50884Y138719D01*
X50049Y139360D01*
X49076Y139763D01*
X48531Y139835D01*
D02*
G37*
G36*
X47532D02*
X46987Y139763D01*
X46014Y139360D01*
X45179Y138719D01*
X44537Y137883D01*
X44134Y136910D01*
X44063Y136366D01*
X47532D01*
Y139835D01*
D02*
G37*
G36*
X122000Y135366D02*
X118532D01*
Y131897D01*
X119076Y131969D01*
X120049Y132372D01*
X120884Y133013D01*
X121526Y133849D01*
X121929Y134822D01*
X122000Y135366D01*
D02*
G37*
G36*
X117532D02*
X114063D01*
X114134Y134822D01*
X114538Y133849D01*
X115179Y133013D01*
X116014Y132372D01*
X116987Y131969D01*
X117532Y131897D01*
Y135366D01*
D02*
G37*
G36*
X52000D02*
X48531D01*
Y131897D01*
X49076Y131969D01*
X50049Y132372D01*
X50884Y133013D01*
X51525Y133849D01*
X51929Y134822D01*
X52000Y135366D01*
D02*
G37*
G36*
X47532D02*
X44063D01*
X44134Y134822D01*
X44537Y133849D01*
X45179Y133013D01*
X46014Y132372D01*
X46987Y131969D01*
X47532Y131897D01*
Y135366D01*
D02*
G37*
G36*
X118032Y129296D02*
X117144Y129179D01*
X116317Y128836D01*
X115607Y128291D01*
X115062Y127581D01*
X114719Y126754D01*
X114602Y125866D01*
X114719Y124978D01*
X115062Y124151D01*
X115607Y123441D01*
X116317Y122896D01*
X117144Y122554D01*
X118032Y122437D01*
X118919Y122554D01*
X119746Y122896D01*
X120456Y123441D01*
X121001Y124151D01*
X121344Y124978D01*
X121461Y125866D01*
X121344Y126754D01*
X121001Y127581D01*
X120456Y128291D01*
X119746Y128836D01*
X118919Y129179D01*
X118032Y129296D01*
D02*
G37*
G36*
X48031D02*
X47144Y129179D01*
X46317Y128836D01*
X45607Y128291D01*
X45062Y127581D01*
X44719Y126754D01*
X44602Y125866D01*
X44719Y124978D01*
X45062Y124151D01*
X45607Y123441D01*
X46317Y122896D01*
X47144Y122554D01*
X48031Y122437D01*
X48919Y122554D01*
X49746Y122896D01*
X50456Y123441D01*
X51001Y124151D01*
X51344Y124978D01*
X51461Y125866D01*
X51344Y126754D01*
X51001Y127581D01*
X50456Y128291D01*
X49746Y128836D01*
X48919Y129179D01*
X48031Y129296D01*
D02*
G37*
G36*
X118032Y119296D02*
X117144Y119179D01*
X116317Y118836D01*
X115607Y118291D01*
X115062Y117581D01*
X114719Y116754D01*
X114602Y115866D01*
X114719Y114979D01*
X115062Y114151D01*
X115607Y113441D01*
X116317Y112896D01*
X117144Y112554D01*
X118032Y112437D01*
X118919Y112554D01*
X119746Y112896D01*
X120456Y113441D01*
X121001Y114151D01*
X121344Y114979D01*
X121461Y115866D01*
X121344Y116754D01*
X121001Y117581D01*
X120456Y118291D01*
X119746Y118836D01*
X118919Y119179D01*
X118032Y119296D01*
D02*
G37*
G36*
X48031D02*
X47144Y119179D01*
X46317Y118836D01*
X45607Y118291D01*
X45062Y117581D01*
X44719Y116754D01*
X44602Y115866D01*
X44719Y114979D01*
X45062Y114151D01*
X45607Y113441D01*
X46317Y112896D01*
X47144Y112554D01*
X48031Y112437D01*
X48919Y112554D01*
X49746Y112896D01*
X50456Y113441D01*
X51001Y114151D01*
X51344Y114979D01*
X51461Y115866D01*
X51344Y116754D01*
X51001Y117581D01*
X50456Y118291D01*
X49746Y118836D01*
X48919Y119179D01*
X48031Y119296D01*
D02*
G37*
G36*
X118032Y109295D02*
X117144Y109179D01*
X116317Y108836D01*
X115607Y108291D01*
X115062Y107581D01*
X114719Y106754D01*
X114602Y105866D01*
X114719Y104979D01*
X115062Y104151D01*
X115607Y103441D01*
X116317Y102896D01*
X117144Y102554D01*
X118032Y102437D01*
X118919Y102554D01*
X119746Y102896D01*
X120456Y103441D01*
X121001Y104151D01*
X121344Y104979D01*
X121461Y105866D01*
X121344Y106754D01*
X121001Y107581D01*
X120456Y108291D01*
X119746Y108836D01*
X118919Y109179D01*
X118032Y109295D01*
D02*
G37*
G36*
X48031D02*
X47144Y109179D01*
X46317Y108836D01*
X45607Y108291D01*
X45062Y107581D01*
X44719Y106754D01*
X44602Y105866D01*
X44719Y104979D01*
X45062Y104151D01*
X45607Y103441D01*
X46317Y102896D01*
X47144Y102554D01*
X48031Y102437D01*
X48919Y102554D01*
X49746Y102896D01*
X50456Y103441D01*
X51001Y104151D01*
X51344Y104979D01*
X51461Y105866D01*
X51344Y106754D01*
X51001Y107581D01*
X50456Y108291D01*
X49746Y108836D01*
X48919Y109179D01*
X48031Y109295D01*
D02*
G37*
G36*
X118032Y99296D02*
X117144Y99179D01*
X116317Y98836D01*
X115607Y98291D01*
X115062Y97581D01*
X114719Y96754D01*
X114602Y95866D01*
X114719Y94978D01*
X115062Y94151D01*
X115607Y93441D01*
X116317Y92896D01*
X117144Y92554D01*
X118032Y92437D01*
X118919Y92554D01*
X119746Y92896D01*
X120456Y93441D01*
X121001Y94151D01*
X121344Y94978D01*
X121461Y95866D01*
X121344Y96754D01*
X121001Y97581D01*
X120456Y98291D01*
X119746Y98836D01*
X118919Y99179D01*
X118032Y99296D01*
D02*
G37*
G36*
X48031D02*
X47144Y99179D01*
X46317Y98836D01*
X45607Y98291D01*
X45062Y97581D01*
X44719Y96754D01*
X44602Y95866D01*
X44719Y94978D01*
X45062Y94151D01*
X45607Y93441D01*
X46317Y92896D01*
X47144Y92554D01*
X48031Y92437D01*
X48919Y92554D01*
X49746Y92896D01*
X50456Y93441D01*
X51001Y94151D01*
X51344Y94978D01*
X51461Y95866D01*
X51344Y96754D01*
X51001Y97581D01*
X50456Y98291D01*
X49746Y98836D01*
X48919Y99179D01*
X48031Y99296D01*
D02*
G37*
G36*
X118532Y89835D02*
Y86366D01*
X122000D01*
X121929Y86910D01*
X121526Y87883D01*
X120884Y88719D01*
X120049Y89360D01*
X119076Y89763D01*
X118532Y89835D01*
D02*
G37*
G36*
X117532D02*
X116987Y89763D01*
X116014Y89360D01*
X115179Y88719D01*
X114538Y87883D01*
X114134Y86910D01*
X114063Y86366D01*
X117532D01*
Y89835D01*
D02*
G37*
G36*
X48531D02*
Y86366D01*
X52000D01*
X51929Y86910D01*
X51525Y87883D01*
X50884Y88719D01*
X50049Y89360D01*
X49076Y89763D01*
X48531Y89835D01*
D02*
G37*
G36*
X47532D02*
X46987Y89763D01*
X46014Y89360D01*
X45179Y88719D01*
X44537Y87883D01*
X44134Y86910D01*
X44063Y86366D01*
X47532D01*
Y89835D01*
D02*
G37*
G36*
X122000Y85366D02*
X118532D01*
Y81897D01*
X119076Y81969D01*
X120049Y82372D01*
X120884Y83013D01*
X121526Y83849D01*
X121929Y84822D01*
X122000Y85366D01*
D02*
G37*
G36*
X117532D02*
X114063D01*
X114134Y84822D01*
X114538Y83849D01*
X115179Y83013D01*
X116014Y82372D01*
X116987Y81969D01*
X117532Y81897D01*
Y85366D01*
D02*
G37*
G36*
X52000D02*
X48531D01*
Y81897D01*
X49076Y81969D01*
X50049Y82372D01*
X50884Y83013D01*
X51525Y83849D01*
X51929Y84822D01*
X52000Y85366D01*
D02*
G37*
G36*
X47532D02*
X44063D01*
X44134Y84822D01*
X44537Y83849D01*
X45179Y83013D01*
X46014Y82372D01*
X46987Y81969D01*
X47532Y81897D01*
Y85366D01*
D02*
G37*
G36*
X48031Y79295D02*
X47144Y79179D01*
X46317Y78836D01*
X45607Y78291D01*
X45062Y77581D01*
X44719Y76754D01*
X44602Y75866D01*
X44719Y74979D01*
X45062Y74151D01*
X45607Y73441D01*
X46317Y72896D01*
X47144Y72554D01*
X48031Y72437D01*
X48919Y72554D01*
X49746Y72896D01*
X50456Y73441D01*
X51001Y74151D01*
X51344Y74979D01*
X51461Y75866D01*
X51344Y76754D01*
X51001Y77581D01*
X50456Y78291D01*
X49746Y78836D01*
X48919Y79179D01*
X48031Y79295D01*
D02*
G37*
G36*
Y69296D02*
X47144Y69179D01*
X46317Y68836D01*
X45607Y68291D01*
X45062Y67581D01*
X44719Y66754D01*
X44602Y65866D01*
X44719Y64978D01*
X45062Y64151D01*
X45607Y63441D01*
X46317Y62896D01*
X47144Y62554D01*
X48031Y62437D01*
X48919Y62554D01*
X49746Y62896D01*
X50456Y63441D01*
X51001Y64151D01*
X51344Y64978D01*
X51461Y65866D01*
X51344Y66754D01*
X51001Y67581D01*
X50456Y68291D01*
X49746Y68836D01*
X48919Y69179D01*
X48031Y69296D01*
D02*
G37*
G36*
Y59295D02*
X47144Y59179D01*
X46317Y58836D01*
X45607Y58291D01*
X45062Y57581D01*
X44719Y56754D01*
X44602Y55866D01*
X44719Y54979D01*
X45062Y54151D01*
X45607Y53441D01*
X46317Y52896D01*
X47144Y52554D01*
X48031Y52437D01*
X48919Y52554D01*
X49746Y52896D01*
X50456Y53441D01*
X51001Y54151D01*
X51344Y54979D01*
X51461Y55866D01*
X51344Y56754D01*
X51001Y57581D01*
X50456Y58291D01*
X49746Y58836D01*
X48919Y59179D01*
X48031Y59295D01*
D02*
G37*
G36*
X33963Y50105D02*
X27257D01*
Y43399D01*
X33963D01*
Y50105D01*
D02*
G37*
G36*
X48031Y49295D02*
X47144Y49179D01*
X46317Y48836D01*
X45607Y48291D01*
X45062Y47581D01*
X44719Y46754D01*
X44602Y45866D01*
X44719Y44978D01*
X45062Y44151D01*
X45607Y43441D01*
X46317Y42896D01*
X47144Y42554D01*
X48031Y42437D01*
X48919Y42554D01*
X49746Y42896D01*
X50456Y43441D01*
X51001Y44151D01*
X51344Y44978D01*
X51461Y45866D01*
X51344Y46754D01*
X51001Y47581D01*
X50456Y48291D01*
X49746Y48836D01*
X48919Y49179D01*
X48031Y49295D01*
D02*
G37*
G36*
X48531Y39835D02*
Y36366D01*
X52000D01*
X51929Y36910D01*
X51525Y37883D01*
X50884Y38719D01*
X50049Y39360D01*
X49076Y39763D01*
X48531Y39835D01*
D02*
G37*
G36*
X47532D02*
X46987Y39763D01*
X46014Y39360D01*
X45179Y38719D01*
X44537Y37883D01*
X44134Y36910D01*
X44063Y36366D01*
X47532D01*
Y39835D01*
D02*
G37*
G36*
X122000Y35366D02*
X118532D01*
Y31897D01*
X119076Y31969D01*
X120049Y32372D01*
X120884Y33013D01*
X121526Y33849D01*
X121929Y34822D01*
X122000Y35366D01*
D02*
G37*
G36*
X117532D02*
X114063D01*
X114134Y34822D01*
X114538Y33849D01*
X115179Y33013D01*
X116014Y32372D01*
X116987Y31969D01*
X117532Y31897D01*
Y35366D01*
D02*
G37*
G36*
X52000D02*
X48531D01*
Y31897D01*
X49076Y31969D01*
X50049Y32372D01*
X50884Y33013D01*
X51525Y33849D01*
X51929Y34822D01*
X52000Y35366D01*
D02*
G37*
G36*
X47532D02*
X44063D01*
X44134Y34822D01*
X44537Y33849D01*
X45179Y33013D01*
X46014Y32372D01*
X46987Y31969D01*
X47532Y31897D01*
Y35366D01*
D02*
G37*
G36*
X153157Y33572D02*
Y25205D01*
X161525D01*
X161403Y26444D01*
X160896Y28117D01*
X160072Y29659D01*
X158963Y31010D01*
X157612Y32119D01*
X156070Y32943D01*
X154397Y33450D01*
X153157Y33572D01*
D02*
G37*
G36*
X152157D02*
X150918Y33450D01*
X149245Y32943D01*
X147704Y32119D01*
X146352Y31010D01*
X145243Y29659D01*
X144419Y28117D01*
X143912Y26444D01*
X143790Y25205D01*
X152157D01*
Y33572D01*
D02*
G37*
G36*
X30610Y40134D02*
X29735Y40018D01*
X28919Y39681D01*
X28219Y39143D01*
X27682Y38443D01*
X27344Y37627D01*
X27229Y36752D01*
X27344Y35877D01*
X27682Y35061D01*
X28219Y34361D01*
X28919Y33823D01*
X29735Y33485D01*
X30610Y33370D01*
X31486Y33485D01*
X31494Y33489D01*
X40092Y24891D01*
X40638Y24526D01*
X41282Y24398D01*
X44959D01*
X45062Y24151D01*
X45607Y23441D01*
X46317Y22896D01*
X47144Y22554D01*
X48031Y22437D01*
X48919Y22554D01*
X49746Y22896D01*
X50456Y23441D01*
X51001Y24151D01*
X51344Y24979D01*
X51461Y25866D01*
X51344Y26754D01*
X51001Y27581D01*
X50456Y28291D01*
X49746Y28836D01*
X48919Y29179D01*
X48031Y29295D01*
X47144Y29179D01*
X46317Y28836D01*
X45607Y28291D01*
X45201Y27763D01*
X41978D01*
X33873Y35868D01*
X33877Y35877D01*
X33992Y36752D01*
X33877Y37627D01*
X33539Y38443D01*
X33001Y39143D01*
X32301Y39681D01*
X31486Y40018D01*
X30610Y40134D01*
D02*
G37*
G36*
X19004Y28258D02*
Y19890D01*
X27372D01*
X27250Y21129D01*
X26742Y22802D01*
X25918Y24344D01*
X24809Y25695D01*
X23458Y26804D01*
X21916Y27628D01*
X20244Y28135D01*
X19004Y28258D01*
D02*
G37*
G36*
X18004D02*
X16764Y28135D01*
X15092Y27628D01*
X13550Y26804D01*
X12199Y25695D01*
X11090Y24344D01*
X10266Y22802D01*
X9758Y21129D01*
X9636Y19890D01*
X18004D01*
Y28258D01*
D02*
G37*
G36*
X161525Y24205D02*
X153157D01*
Y15837D01*
X154397Y15959D01*
X156070Y16466D01*
X157612Y17290D01*
X158963Y18399D01*
X160072Y19751D01*
X160896Y21292D01*
X161403Y22965D01*
X161525Y24205D01*
D02*
G37*
G36*
X152157D02*
X143790D01*
X143912Y22965D01*
X144419Y21292D01*
X145243Y19751D01*
X146352Y18399D01*
X147704Y17290D01*
X149245Y16466D01*
X150918Y15959D01*
X152157Y15837D01*
Y24205D01*
D02*
G37*
G36*
X48031Y19295D02*
X47144Y19179D01*
X46317Y18836D01*
X45607Y18291D01*
X45062Y17581D01*
X44719Y16754D01*
X44602Y15866D01*
X44719Y14978D01*
X45062Y14151D01*
X45607Y13441D01*
X46317Y12896D01*
X47144Y12554D01*
X48031Y12437D01*
X48919Y12554D01*
X49746Y12896D01*
X50456Y13441D01*
X51001Y14151D01*
X51344Y14978D01*
X51461Y15866D01*
X51344Y16754D01*
X51001Y17581D01*
X50456Y18291D01*
X49746Y18836D01*
X48919Y19179D01*
X48031Y19295D01*
D02*
G37*
G36*
X27372Y18890D02*
X19004D01*
Y10522D01*
X20244Y10644D01*
X21916Y11152D01*
X23458Y11976D01*
X24809Y13084D01*
X25918Y14436D01*
X26742Y15977D01*
X27250Y17650D01*
X27372Y18890D01*
D02*
G37*
G36*
X18004D02*
X9636D01*
X9758Y17650D01*
X10266Y15977D01*
X11090Y14436D01*
X12199Y13084D01*
X13550Y11976D01*
X15092Y11152D01*
X16764Y10644D01*
X18004Y10522D01*
Y18890D01*
D02*
G37*
%LPD*%
G36*
X39375Y329077D02*
X39313Y329051D01*
X38613Y328513D01*
X38075Y327813D01*
X37738Y326997D01*
X37622Y326122D01*
X37738Y325247D01*
X37741Y325238D01*
X36507Y324005D01*
X36143Y323459D01*
X36015Y322815D01*
Y231791D01*
X36143Y231148D01*
X36507Y230602D01*
X97825Y169283D01*
Y76279D01*
X97954Y75636D01*
X98318Y75090D01*
X108732Y64676D01*
X109277Y64312D01*
X109921Y64184D01*
X109921Y64184D01*
X115048D01*
X115062Y64151D01*
X115607Y63441D01*
X116042Y63108D01*
X115872Y62608D01*
X110047D01*
X97253Y75402D01*
Y168261D01*
X97253Y168261D01*
X97125Y168905D01*
X96760Y169451D01*
X32686Y233525D01*
Y323190D01*
X32695Y323193D01*
X33395Y323731D01*
X33933Y324431D01*
X34270Y325247D01*
X34386Y326122D01*
X34270Y326997D01*
X33933Y327813D01*
X33395Y328513D01*
X32695Y329051D01*
X32632Y329077D01*
X32732Y329576D01*
X39276D01*
X39375Y329077D01*
D02*
G37*
D20*
X54094Y20866D02*
X56693Y23464D01*
X19980Y20866D02*
X54094D01*
X18504Y19390D02*
X19980Y20866D01*
X56693Y23464D02*
Y31496D01*
X52323Y35866D02*
X56693Y31496D01*
X48031Y35866D02*
X52323D01*
X14862Y296358D02*
X24016Y287205D01*
Y209882D02*
Y287205D01*
Y209882D02*
X48031Y185866D01*
X51429Y224358D02*
X57335D01*
X57382Y224311D01*
X42421Y233366D02*
X51429Y224358D01*
X42421Y233366D02*
Y308957D01*
X45965Y312500D01*
Y329823D01*
X44783Y331004D02*
X45965Y329823D01*
X25886Y331004D02*
X44783D01*
X21004Y326122D02*
X25886Y331004D01*
D21*
X88721Y296122D02*
X96831Y304232D01*
X160531D01*
D22*
X47146Y300925D02*
X53445Y307224D01*
X47146Y236909D02*
Y300925D01*
X53445Y323681D02*
X81004Y296122D01*
X51004Y326122D02*
X53445Y323681D01*
Y307224D02*
Y323681D01*
X99508Y76279D02*
Y169980D01*
X37697Y231791D02*
X99508Y169980D01*
X37697Y231791D02*
Y322815D01*
X41004Y326122D01*
X47146Y236909D02*
X49744Y234311D01*
X57382D01*
X88878Y244783D02*
X95571Y251476D01*
Y289272D01*
X88721Y296122D02*
X95571Y289272D01*
X81004Y296122D02*
X88721D01*
X81004Y284154D02*
Y296122D01*
X129035Y228248D02*
X141240Y240453D01*
X129035Y228248D02*
X129035Y44534D01*
X125348Y40846D02*
X129035Y44534D01*
X141240Y240453D02*
X155413D01*
X159744Y244783D01*
X88189Y195866D02*
X118032D01*
X69980Y214075D02*
X88189Y195866D01*
X69980Y214075D02*
Y236516D01*
X67224Y239272D02*
X69980Y236516D01*
X109350Y60925D02*
X121949D01*
X95571Y74705D02*
X109350Y60925D01*
X95571Y74705D02*
Y168261D01*
X31004Y232828D02*
X95571Y168261D01*
X125492Y64468D02*
Y68405D01*
X118032Y75866D02*
X125492Y68405D01*
X121949Y60925D02*
X125492Y64468D01*
X31004Y232828D02*
Y326122D01*
X99508Y76279D02*
X109921Y65866D01*
X118032D01*
X110925Y22972D02*
X118032Y15866D01*
X110925Y22972D02*
Y36516D01*
X115256Y40846D01*
X125348D01*
X118032Y25866D02*
X132972Y40807D01*
Y226279D01*
X143602Y236909D01*
X159744D01*
X54232Y239272D02*
X67224D01*
X51083Y242421D02*
X54232Y239272D01*
X51083Y242421D02*
Y248012D01*
X57382Y254311D01*
X83701Y205866D02*
X118032D01*
X73917Y215650D02*
X83701Y205866D01*
X73917Y215650D02*
Y239665D01*
X69272Y244311D02*
X73917Y239665D01*
X57382Y244311D02*
X69272D01*
X47817Y26081D02*
X48031Y25866D01*
X41282Y26081D02*
X47817D01*
X30610Y36752D02*
X41282Y26081D01*
D23*
X30610Y46752D02*
D03*
X57382Y224311D02*
D03*
D24*
X30610Y36752D02*
D03*
X57382Y294311D02*
D03*
Y284311D02*
D03*
Y274311D02*
D03*
Y264311D02*
D03*
Y254311D02*
D03*
Y244311D02*
D03*
Y234311D02*
D03*
X61004Y336122D02*
D03*
Y326122D02*
D03*
X51004Y336122D02*
D03*
Y326122D02*
D03*
X41004Y336122D02*
D03*
Y326122D02*
D03*
X31004Y336122D02*
D03*
Y326122D02*
D03*
X21004Y336122D02*
D03*
D25*
X160531Y304232D02*
D03*
X14862Y296358D02*
D03*
X18504Y19390D02*
D03*
X152657Y24705D02*
D03*
D26*
X48031Y15866D02*
D03*
Y25866D02*
D03*
Y35866D02*
D03*
Y45866D02*
D03*
Y55866D02*
D03*
Y105866D02*
D03*
Y95866D02*
D03*
Y85866D02*
D03*
Y75866D02*
D03*
Y65866D02*
D03*
Y165866D02*
D03*
Y175866D02*
D03*
Y185866D02*
D03*
Y195866D02*
D03*
Y205866D02*
D03*
Y155866D02*
D03*
Y145866D02*
D03*
Y135866D02*
D03*
Y125866D02*
D03*
Y115866D02*
D03*
X118032D02*
D03*
Y125866D02*
D03*
Y135866D02*
D03*
Y145866D02*
D03*
Y155866D02*
D03*
Y205866D02*
D03*
Y195866D02*
D03*
Y185866D02*
D03*
Y175866D02*
D03*
Y165866D02*
D03*
Y65866D02*
D03*
Y75866D02*
D03*
Y85866D02*
D03*
Y95866D02*
D03*
Y105866D02*
D03*
Y55866D02*
D03*
Y45866D02*
D03*
Y35866D02*
D03*
Y25866D02*
D03*
Y15866D02*
D03*
D27*
X159744Y221161D02*
D03*
Y229035D02*
D03*
Y236909D02*
D03*
Y244783D02*
D03*
Y252658D02*
D03*
Y260531D02*
D03*
Y268406D02*
D03*
Y276279D02*
D03*
Y284154D02*
D03*
X167618Y221161D02*
D03*
Y229035D02*
D03*
Y236910D02*
D03*
Y244783D02*
D03*
Y252658D02*
D03*
Y260531D02*
D03*
Y268406D02*
D03*
Y276280D02*
D03*
Y284154D02*
D03*
X88878Y221161D02*
D03*
Y229035D02*
D03*
Y236909D02*
D03*
Y244783D02*
D03*
Y252658D02*
D03*
Y260531D02*
D03*
Y268406D02*
D03*
Y276279D02*
D03*
Y284154D02*
D03*
X81004Y221161D02*
D03*
Y229035D02*
D03*
Y236910D02*
D03*
Y244783D02*
D03*
Y252658D02*
D03*
Y260531D02*
D03*
Y268406D02*
D03*
Y276280D02*
D03*
D28*
Y284154D02*
D03*
D29*
X21004Y326122D02*
D03*
M02*
