G04*
G04 #@! TF.GenerationSoftware,Altium Limited,Altium Designer,19.1.5 (86)*
G04*
G04 Layer_Color=8388736*
%FSLAX25Y25*%
%MOIN*%
G70*
G01*
G75*
%ADD13R,0.06706X0.06706*%
%ADD14C,0.06706*%
%ADD15C,0.16548*%
%ADD16C,0.06800*%
%ADD17C,0.05328*%
%ADD18R,0.05328X0.05328*%
%ADD19R,0.06706X0.06706*%
D13*
X30610Y46752D02*
D03*
X57382Y224311D02*
D03*
D14*
X30610Y36752D02*
D03*
X57382Y294311D02*
D03*
Y284311D02*
D03*
Y274311D02*
D03*
Y264311D02*
D03*
Y254311D02*
D03*
Y244311D02*
D03*
Y234311D02*
D03*
X61004Y336122D02*
D03*
Y326122D02*
D03*
X51004Y336122D02*
D03*
Y326122D02*
D03*
X41004Y336122D02*
D03*
Y326122D02*
D03*
X31004Y336122D02*
D03*
Y326122D02*
D03*
X21004Y336122D02*
D03*
D15*
X160531Y304232D02*
D03*
X14862Y296358D02*
D03*
X18504Y19390D02*
D03*
X152657Y24705D02*
D03*
D16*
X48031Y15866D02*
D03*
Y25866D02*
D03*
Y35866D02*
D03*
Y45866D02*
D03*
Y55866D02*
D03*
Y105866D02*
D03*
Y95866D02*
D03*
Y85866D02*
D03*
Y75866D02*
D03*
Y65866D02*
D03*
Y165866D02*
D03*
Y175866D02*
D03*
Y185866D02*
D03*
Y195866D02*
D03*
Y205866D02*
D03*
Y155866D02*
D03*
Y145866D02*
D03*
Y135866D02*
D03*
Y125866D02*
D03*
Y115866D02*
D03*
X118032D02*
D03*
Y125866D02*
D03*
Y135866D02*
D03*
Y145866D02*
D03*
Y155866D02*
D03*
Y205866D02*
D03*
Y195866D02*
D03*
Y185866D02*
D03*
Y175866D02*
D03*
Y165866D02*
D03*
Y65866D02*
D03*
Y75866D02*
D03*
Y85866D02*
D03*
Y95866D02*
D03*
Y105866D02*
D03*
Y55866D02*
D03*
Y45866D02*
D03*
Y35866D02*
D03*
Y25866D02*
D03*
Y15866D02*
D03*
D17*
X159744Y221161D02*
D03*
Y229035D02*
D03*
Y236909D02*
D03*
Y244783D02*
D03*
Y252658D02*
D03*
Y260531D02*
D03*
Y268406D02*
D03*
Y276279D02*
D03*
Y284154D02*
D03*
X167618Y221161D02*
D03*
Y229035D02*
D03*
Y236910D02*
D03*
Y244783D02*
D03*
Y252658D02*
D03*
Y260531D02*
D03*
Y268406D02*
D03*
Y276280D02*
D03*
Y284154D02*
D03*
X88878Y221161D02*
D03*
Y229035D02*
D03*
Y236909D02*
D03*
Y244783D02*
D03*
Y252658D02*
D03*
Y260531D02*
D03*
Y268406D02*
D03*
Y276279D02*
D03*
Y284154D02*
D03*
X81004Y221161D02*
D03*
Y229035D02*
D03*
Y236910D02*
D03*
Y244783D02*
D03*
Y252658D02*
D03*
Y260531D02*
D03*
Y268406D02*
D03*
Y276280D02*
D03*
D18*
Y284154D02*
D03*
D19*
X21004Y326122D02*
D03*
M02*
