G04*
G04 #@! TF.GenerationSoftware,Altium Limited,Altium Designer,19.1.5 (86)*
G04*
G04 Layer_Physical_Order=2*
G04 Layer_Color=16711680*
%FSLAX25Y25*%
%MOIN*%
G70*
G01*
G75*
%ADD36C,0.02000*%
%ADD37C,0.05000*%
%ADD38C,0.01200*%
%ADD39C,0.02500*%
%ADD40C,0.15748*%
%ADD41C,0.35433*%
%ADD42C,0.06300*%
%ADD43R,0.05906X0.05906*%
%ADD44C,0.05906*%
%ADD45R,0.05906X0.05906*%
%ADD46C,0.05000*%
G36*
X168110Y578313D02*
X167633Y578163D01*
X163350Y584350D01*
X157211Y588498D01*
X157357Y588976D01*
X168110D01*
Y578313D01*
D02*
G37*
G36*
X22616Y588476D02*
X15541Y583760D01*
X10736Y576456D01*
X10236Y576606D01*
Y588976D01*
X22465D01*
X22616Y588476D01*
D02*
G37*
G36*
X136402Y588498D02*
X129885Y584154D01*
X124964Y576673D01*
X123192Y567421D01*
X124964Y558169D01*
X130279Y550492D01*
X137759Y545374D01*
X146814Y543799D01*
X155869Y545374D01*
X163350Y550492D01*
X167633Y556679D01*
X168110Y556530D01*
Y361024D01*
X10236D01*
Y557452D01*
X10736Y557608D01*
X15935Y550098D01*
X23415Y544980D01*
X32471Y543405D01*
X41526Y544980D01*
X49006Y550098D01*
X54321Y557776D01*
X56049Y566799D01*
X67441D01*
X67631Y566824D01*
X71246D01*
Y573530D01*
X64541D01*
Y572649D01*
X55016D01*
X54321Y576279D01*
X49006Y583957D01*
X42317Y588476D01*
X42470Y588976D01*
X136257D01*
X136402Y588498D01*
D02*
G37*
%LPC*%
G36*
X107894Y583559D02*
X107018Y583444D01*
X106203Y583106D01*
X105502Y582568D01*
X104965Y581868D01*
X104627Y581052D01*
X104512Y580177D01*
X104627Y579302D01*
X104965Y578486D01*
X105502Y577786D01*
X106203Y577248D01*
X107018Y576911D01*
X107894Y576795D01*
X108769Y576911D01*
X109584Y577248D01*
X110285Y577786D01*
X110822Y578486D01*
X111160Y579302D01*
X111275Y580177D01*
X111160Y581052D01*
X110822Y581868D01*
X110285Y582568D01*
X109584Y583106D01*
X108769Y583444D01*
X107894Y583559D01*
D02*
G37*
G36*
X97894D02*
X97018Y583444D01*
X96203Y583106D01*
X95503Y582568D01*
X94965Y581868D01*
X94627Y581052D01*
X94512Y580177D01*
X94627Y579302D01*
X94965Y578486D01*
X95503Y577786D01*
X96203Y577248D01*
X97018Y576911D01*
X97894Y576795D01*
X98769Y576911D01*
X99585Y577248D01*
X100285Y577786D01*
X100822Y578486D01*
X101160Y579302D01*
X101275Y580177D01*
X101160Y581052D01*
X100822Y581868D01*
X100285Y582568D01*
X99585Y583106D01*
X98769Y583444D01*
X97894Y583559D01*
D02*
G37*
G36*
X87894D02*
X87019Y583444D01*
X86203Y583106D01*
X85502Y582568D01*
X84965Y581868D01*
X84627Y581052D01*
X84512Y580177D01*
X84627Y579302D01*
X84965Y578486D01*
X85502Y577786D01*
X86203Y577248D01*
X87019Y576911D01*
X87894Y576795D01*
X88769Y576911D01*
X89584Y577248D01*
X90285Y577786D01*
X90822Y578486D01*
X91160Y579302D01*
X91275Y580177D01*
X91160Y581052D01*
X90822Y581868D01*
X90285Y582568D01*
X89584Y583106D01*
X88769Y583444D01*
X87894Y583559D01*
D02*
G37*
G36*
X77894D02*
X77018Y583444D01*
X76203Y583106D01*
X75503Y582568D01*
X74965Y581868D01*
X74627Y581052D01*
X74512Y580177D01*
X74627Y579302D01*
X74965Y578486D01*
X75503Y577786D01*
X76203Y577248D01*
X77018Y576911D01*
X77894Y576795D01*
X78769Y576911D01*
X79584Y577248D01*
X80285Y577786D01*
X80822Y578486D01*
X81160Y579302D01*
X81275Y580177D01*
X81160Y581052D01*
X80822Y581868D01*
X80285Y582568D01*
X79584Y583106D01*
X78769Y583444D01*
X77894Y583559D01*
D02*
G37*
G36*
X67894D02*
X67019Y583444D01*
X66203Y583106D01*
X65503Y582568D01*
X64965Y581868D01*
X64627Y581052D01*
X64512Y580177D01*
X64627Y579302D01*
X64965Y578486D01*
X65503Y577786D01*
X66203Y577248D01*
X67019Y576911D01*
X67894Y576795D01*
X68769Y576911D01*
X69585Y577248D01*
X70285Y577786D01*
X70822Y578486D01*
X71160Y579302D01*
X71275Y580177D01*
X71160Y581052D01*
X70822Y581868D01*
X70285Y582568D01*
X69585Y583106D01*
X68769Y583444D01*
X67894Y583559D01*
D02*
G37*
G36*
X98394Y574098D02*
Y570677D01*
X101815D01*
X101745Y571209D01*
X101346Y572171D01*
X100713Y572996D01*
X99887Y573630D01*
X98926Y574028D01*
X98394Y574098D01*
D02*
G37*
G36*
X97394D02*
X96862Y574028D01*
X95900Y573630D01*
X95075Y572996D01*
X94441Y572171D01*
X94043Y571209D01*
X93973Y570677D01*
X97394D01*
Y574098D01*
D02*
G37*
G36*
X107894Y573559D02*
X107018Y573444D01*
X106203Y573106D01*
X105502Y572568D01*
X104965Y571868D01*
X104627Y571052D01*
X104512Y570177D01*
X104627Y569302D01*
X104965Y568486D01*
X105502Y567786D01*
X106203Y567248D01*
X107018Y566911D01*
X107894Y566795D01*
X108769Y566911D01*
X109584Y567248D01*
X110285Y567786D01*
X110822Y568486D01*
X111160Y569302D01*
X111275Y570177D01*
X111160Y571052D01*
X110822Y571868D01*
X110285Y572568D01*
X109584Y573106D01*
X108769Y573444D01*
X107894Y573559D01*
D02*
G37*
G36*
X101815Y569677D02*
X98394D01*
Y566256D01*
X98926Y566326D01*
X99887Y566724D01*
X100713Y567358D01*
X101346Y568184D01*
X101745Y569145D01*
X101815Y569677D01*
D02*
G37*
G36*
X97394D02*
X93973D01*
X94043Y569145D01*
X94441Y568184D01*
X95075Y567358D01*
X95900Y566724D01*
X96862Y566326D01*
X97394Y566256D01*
Y569677D01*
D02*
G37*
G36*
X87894Y573559D02*
X87019Y573444D01*
X86203Y573106D01*
X85502Y572568D01*
X84965Y571868D01*
X84627Y571052D01*
X84512Y570177D01*
X84627Y569302D01*
X84905Y568631D01*
X79413Y563139D01*
X79243Y563158D01*
X78913Y563310D01*
Y566970D01*
X79584Y567248D01*
X80285Y567786D01*
X80822Y568486D01*
X81160Y569302D01*
X81275Y570177D01*
X81160Y571052D01*
X80822Y571868D01*
X80285Y572568D01*
X79584Y573106D01*
X78769Y573444D01*
X77894Y573559D01*
X77018Y573444D01*
X76203Y573106D01*
X75503Y572568D01*
X74965Y571868D01*
X74627Y571052D01*
X74512Y570177D01*
X74627Y569302D01*
X74965Y568486D01*
X75503Y567786D01*
X76203Y567248D01*
X76874Y566970D01*
Y561544D01*
X64574Y549245D01*
X64353Y548914D01*
X64276Y548524D01*
Y501210D01*
X34293Y471227D01*
X34072Y470896D01*
X33995Y470506D01*
Y465723D01*
X34072Y465333D01*
X34293Y465002D01*
X35043Y464252D01*
Y462067D01*
X34600Y461883D01*
X33995Y461419D01*
X33530Y460813D01*
X33238Y460107D01*
X33138Y459350D01*
X33238Y458593D01*
X33530Y457888D01*
X33995Y457282D01*
X34600Y456817D01*
X35306Y456525D01*
X36063Y456425D01*
X36820Y456525D01*
X37525Y456817D01*
X38131Y457282D01*
X38596Y457888D01*
X38780Y458331D01*
X39862D01*
X78720Y419473D01*
X78709Y419390D01*
X78808Y418633D01*
X79101Y417927D01*
X79566Y417321D01*
X80171Y416857D01*
X80877Y416564D01*
X81634Y416465D01*
X82391Y416564D01*
X83096Y416857D01*
X83702Y417321D01*
X84167Y417927D01*
X84459Y418633D01*
X84559Y419390D01*
X84459Y420147D01*
X84167Y420852D01*
X83702Y421458D01*
X83096Y421923D01*
X82391Y422215D01*
X81634Y422315D01*
X80877Y422215D01*
X80171Y421923D01*
X79596Y421481D01*
X75514Y425562D01*
X75579Y425813D01*
X75736Y426047D01*
X81673D01*
X81857Y425604D01*
X82322Y424999D01*
X82927Y424534D01*
X83633Y424242D01*
X84390Y424142D01*
X85147Y424242D01*
X85852Y424534D01*
X86458Y424999D01*
X86923Y425604D01*
X87215Y426310D01*
X87315Y427067D01*
X87215Y427824D01*
X86923Y428529D01*
X86458Y429135D01*
X85852Y429600D01*
X85147Y429892D01*
X84390Y429992D01*
X83633Y429892D01*
X82927Y429600D01*
X82322Y429135D01*
X81857Y428529D01*
X81673Y428087D01*
X76061D01*
X52724Y451424D01*
X53007Y451848D01*
X53121Y451801D01*
X53878Y451701D01*
X54635Y451801D01*
X55340Y452093D01*
X55946Y452558D01*
X56411Y453163D01*
X56703Y453869D01*
X56803Y454626D01*
X56703Y455383D01*
X56411Y456088D01*
X55946Y456694D01*
X55598Y456962D01*
X55519Y457590D01*
X56435Y458506D01*
X56656Y458837D01*
X56734Y459227D01*
Y464087D01*
X91406Y498760D01*
X92077Y498482D01*
X92953Y498366D01*
X93828Y498482D01*
X94644Y498820D01*
X95344Y499357D01*
X95881Y500057D01*
X96219Y500873D01*
X96334Y501748D01*
X96219Y502623D01*
X95881Y503439D01*
X95344Y504139D01*
X94644Y504677D01*
X93828Y505015D01*
X92953Y505130D01*
X92077Y505015D01*
X91262Y504677D01*
X90561Y504139D01*
X90024Y503439D01*
X89686Y502623D01*
X89571Y501748D01*
X89686Y500873D01*
X89964Y500202D01*
X54993Y465231D01*
X54772Y464900D01*
X54695Y464510D01*
Y462373D01*
X54195Y462274D01*
X54147Y462388D01*
X53683Y462993D01*
X53077Y463458D01*
X52634Y463642D01*
Y465916D01*
X77630Y490913D01*
X77851Y491244D01*
X77929Y491634D01*
Y503318D01*
X80383Y505772D01*
X87996D01*
X88386Y505849D01*
X88717Y506070D01*
X91406Y508760D01*
X92077Y508482D01*
X92953Y508366D01*
X93828Y508482D01*
X94644Y508820D01*
X95344Y509357D01*
X95881Y510057D01*
X96219Y510873D01*
X96334Y511748D01*
X96219Y512623D01*
X95881Y513439D01*
X95344Y514139D01*
X94644Y514677D01*
X93828Y515015D01*
X92953Y515130D01*
X92077Y515015D01*
X91262Y514677D01*
X90561Y514139D01*
X90024Y513439D01*
X89686Y512623D01*
X89571Y511748D01*
X89686Y510873D01*
X89964Y510202D01*
X87574Y507811D01*
X85121D01*
X84962Y508261D01*
X84966Y508311D01*
X85772Y508929D01*
X86405Y509755D01*
X86804Y510716D01*
X86874Y511248D01*
X82953D01*
X79032D01*
X79102Y510716D01*
X79500Y509755D01*
X80134Y508929D01*
X80939Y508311D01*
X80944Y508261D01*
X80784Y507811D01*
X79961D01*
X79571Y507733D01*
X79240Y507512D01*
X76188Y504461D01*
X75968Y504130D01*
X75890Y503740D01*
Y492056D01*
X50893Y467060D01*
X50672Y466729D01*
X50595Y466339D01*
Y463642D01*
X50152Y463458D01*
X49546Y462993D01*
X49081Y462388D01*
X48789Y461682D01*
X48689Y460925D01*
X48789Y460168D01*
X49081Y459463D01*
X49546Y458857D01*
X50152Y458392D01*
X50857Y458100D01*
X51614Y458000D01*
X52371Y458100D01*
X52615Y458201D01*
X52941Y457804D01*
X52835Y457333D01*
X52415Y457159D01*
X51810Y456694D01*
X51345Y456088D01*
X51053Y455383D01*
X50953Y454626D01*
X51053Y453869D01*
X51100Y453755D01*
X50676Y453472D01*
X48432Y455716D01*
Y457508D01*
X48354Y457898D01*
X48133Y458228D01*
X41172Y465190D01*
X41183Y465353D01*
X41647Y465959D01*
X41939Y466664D01*
X42039Y467421D01*
X41939Y468178D01*
X41647Y468884D01*
X41183Y469490D01*
X40577Y469954D01*
X40134Y470138D01*
Y471073D01*
X68216Y499155D01*
X68437Y499486D01*
X68515Y499876D01*
Y546920D01*
X80815Y559220D01*
X81036Y559551D01*
X81113Y559941D01*
Y561955D01*
X86347Y567189D01*
X87019Y566911D01*
X87894Y566795D01*
X88769Y566911D01*
X89584Y567248D01*
X90285Y567786D01*
X90822Y568486D01*
X91160Y569302D01*
X91275Y570177D01*
X91160Y571052D01*
X90822Y571868D01*
X90285Y572568D01*
X89584Y573106D01*
X88769Y573444D01*
X87894Y573559D01*
D02*
G37*
G36*
X86305Y545101D02*
X79600D01*
Y538395D01*
X86305D01*
Y545101D01*
D02*
G37*
G36*
X92953Y545130D02*
X92077Y545015D01*
X91262Y544677D01*
X90561Y544139D01*
X90024Y543439D01*
X89686Y542623D01*
X89571Y541748D01*
X89686Y540873D01*
X90024Y540057D01*
X90561Y539357D01*
X91262Y538820D01*
X92077Y538482D01*
X92953Y538367D01*
X93828Y538482D01*
X94644Y538820D01*
X95344Y539357D01*
X95881Y540057D01*
X96219Y540873D01*
X96334Y541748D01*
X96219Y542623D01*
X95881Y543439D01*
X95344Y544139D01*
X94644Y544677D01*
X93828Y545015D01*
X92953Y545130D01*
D02*
G37*
G36*
X153256Y542529D02*
Y534161D01*
X161624D01*
X161502Y535401D01*
X160994Y537074D01*
X160170Y538615D01*
X159061Y539967D01*
X157710Y541076D01*
X156168Y541900D01*
X154496Y542407D01*
X153256Y542529D01*
D02*
G37*
G36*
X152256Y542529D02*
X151016Y542407D01*
X149344Y541900D01*
X147802Y541076D01*
X146451Y539967D01*
X145342Y538615D01*
X144518Y537074D01*
X144010Y535401D01*
X143888Y534161D01*
X152256D01*
Y542529D01*
D02*
G37*
G36*
X29634Y540954D02*
Y532587D01*
X38001D01*
X37879Y533826D01*
X37372Y535499D01*
X36548Y537041D01*
X35439Y538392D01*
X34088Y539501D01*
X32546Y540325D01*
X30874Y540832D01*
X29634Y540954D01*
D02*
G37*
G36*
X28634D02*
X27394Y540832D01*
X25721Y540325D01*
X24180Y539501D01*
X22829Y538392D01*
X21720Y537041D01*
X20896Y535499D01*
X20388Y533826D01*
X20266Y532587D01*
X28634D01*
Y540954D01*
D02*
G37*
G36*
X93453Y535669D02*
Y532248D01*
X96874D01*
X96804Y532780D01*
X96406Y533742D01*
X95772Y534567D01*
X94946Y535201D01*
X93985Y535599D01*
X93453Y535669D01*
D02*
G37*
G36*
X92453Y535669D02*
X91921Y535599D01*
X90959Y535201D01*
X90134Y534567D01*
X89500Y533742D01*
X89102Y532780D01*
X89032Y532248D01*
X92453D01*
Y535669D01*
D02*
G37*
G36*
X82953Y535130D02*
X82077Y535015D01*
X81262Y534677D01*
X80562Y534139D01*
X80024Y533439D01*
X79686Y532623D01*
X79571Y531748D01*
X79686Y530873D01*
X80024Y530057D01*
X80562Y529357D01*
X81262Y528820D01*
X82077Y528482D01*
X82953Y528367D01*
X83828Y528482D01*
X84644Y528820D01*
X85344Y529357D01*
X85881Y530057D01*
X86219Y530873D01*
X86334Y531748D01*
X86219Y532623D01*
X85881Y533439D01*
X85344Y534139D01*
X84644Y534677D01*
X83828Y535015D01*
X82953Y535130D01*
D02*
G37*
G36*
X96874Y531248D02*
X93453D01*
Y527827D01*
X93985Y527897D01*
X94946Y528296D01*
X95772Y528929D01*
X96406Y529755D01*
X96804Y530716D01*
X96874Y531248D01*
D02*
G37*
G36*
X92453D02*
X89032D01*
X89102Y530716D01*
X89500Y529755D01*
X90134Y528929D01*
X90959Y528296D01*
X91921Y527897D01*
X92453Y527827D01*
Y531248D01*
D02*
G37*
G36*
X161624Y533161D02*
X153256D01*
Y524794D01*
X154496Y524916D01*
X156168Y525423D01*
X157710Y526247D01*
X159061Y527356D01*
X160170Y528707D01*
X160994Y530249D01*
X161502Y531922D01*
X161624Y533161D01*
D02*
G37*
G36*
X152256D02*
X143888D01*
X144010Y531922D01*
X144518Y530249D01*
X145342Y528707D01*
X146451Y527356D01*
X147802Y526247D01*
X149344Y525423D01*
X151016Y524916D01*
X152256Y524794D01*
Y533161D01*
D02*
G37*
G36*
X28634Y531587D02*
X20266D01*
X20388Y530347D01*
X20896Y528674D01*
X21720Y527133D01*
X22829Y525781D01*
X24180Y524672D01*
X25721Y523848D01*
X27394Y523341D01*
X28634Y523219D01*
Y531587D01*
D02*
G37*
G36*
X38001D02*
X29634D01*
Y523219D01*
X30874Y523341D01*
X32546Y523848D01*
X34088Y524672D01*
X35439Y525781D01*
X36548Y527133D01*
X37372Y528674D01*
X37879Y530347D01*
X38001Y531587D01*
D02*
G37*
G36*
X92953Y525130D02*
X92077Y525015D01*
X91262Y524677D01*
X90561Y524139D01*
X90024Y523439D01*
X89686Y522623D01*
X89571Y521748D01*
X89686Y520873D01*
X90024Y520057D01*
X90561Y519357D01*
X91262Y518820D01*
X92077Y518482D01*
X92953Y518366D01*
X93828Y518482D01*
X94644Y518820D01*
X95344Y519357D01*
X95881Y520057D01*
X96219Y520873D01*
X96334Y521748D01*
X96219Y522623D01*
X95881Y523439D01*
X95344Y524139D01*
X94644Y524677D01*
X93828Y525015D01*
X92953Y525130D01*
D02*
G37*
G36*
X82953D02*
X82077Y525015D01*
X81262Y524677D01*
X80562Y524139D01*
X80024Y523439D01*
X79686Y522623D01*
X79571Y521748D01*
X79686Y520873D01*
X80024Y520057D01*
X80562Y519357D01*
X81262Y518820D01*
X82077Y518482D01*
X82953Y518366D01*
X83828Y518482D01*
X84644Y518820D01*
X85344Y519357D01*
X85881Y520057D01*
X86219Y520873D01*
X86334Y521748D01*
X86219Y522623D01*
X85881Y523439D01*
X85344Y524139D01*
X84644Y524677D01*
X83828Y525015D01*
X82953Y525130D01*
D02*
G37*
G36*
X83453Y515669D02*
Y512248D01*
X86874D01*
X86804Y512780D01*
X86405Y513742D01*
X85772Y514567D01*
X84946Y515201D01*
X83985Y515599D01*
X83453Y515669D01*
D02*
G37*
G36*
X82453Y515669D02*
X81921Y515599D01*
X80959Y515201D01*
X80134Y514567D01*
X79500Y513742D01*
X79102Y512780D01*
X79032Y512248D01*
X82453D01*
Y515669D01*
D02*
G37*
G36*
X130354Y516275D02*
X129479Y516160D01*
X128664Y515822D01*
X127963Y515285D01*
X127426Y514584D01*
X127088Y513769D01*
X126973Y512894D01*
X127088Y512018D01*
X127426Y511203D01*
X127963Y510502D01*
X128664Y509965D01*
X129479Y509627D01*
X130354Y509512D01*
X131230Y509627D01*
X132045Y509965D01*
X132746Y510502D01*
X133283Y511203D01*
X133621Y512018D01*
X133736Y512894D01*
X133621Y513769D01*
X133283Y514584D01*
X132746Y515285D01*
X132045Y515822D01*
X131230Y516160D01*
X130354Y516275D01*
D02*
G37*
G36*
X59061Y514435D02*
X52356D01*
Y507730D01*
X59061D01*
Y514435D01*
D02*
G37*
G36*
X45709Y514464D02*
X44833Y514349D01*
X44018Y514011D01*
X43317Y513474D01*
X42780Y512774D01*
X42442Y511958D01*
X42327Y511083D01*
X42442Y510207D01*
X42780Y509392D01*
X43317Y508692D01*
X44018Y508154D01*
X44833Y507816D01*
X45709Y507701D01*
X46584Y507816D01*
X47400Y508154D01*
X48100Y508692D01*
X48637Y509392D01*
X48975Y510207D01*
X49090Y511083D01*
X48975Y511958D01*
X48637Y512774D01*
X48100Y513474D01*
X47400Y514011D01*
X46584Y514349D01*
X45709Y514464D01*
D02*
G37*
G36*
X35709D02*
X34833Y514349D01*
X34018Y514011D01*
X33318Y513474D01*
X32780Y512774D01*
X32442Y511958D01*
X32327Y511083D01*
X32442Y510207D01*
X32551Y509944D01*
X27770Y505163D01*
X27461Y504700D01*
X27352Y504153D01*
X27352Y504153D01*
Y494587D01*
X27352Y494587D01*
X27461Y494040D01*
X27770Y493577D01*
X29837Y491510D01*
X30300Y491201D01*
X30847Y491092D01*
X30847Y491092D01*
X46015D01*
X46030Y491057D01*
X46495Y490451D01*
X47100Y489987D01*
X47806Y489694D01*
X48563Y489595D01*
X49320Y489694D01*
X50025Y489987D01*
X50631Y490451D01*
X51096Y491057D01*
X51388Y491763D01*
X51488Y492520D01*
X51388Y493277D01*
X51096Y493982D01*
X50631Y494588D01*
X50025Y495053D01*
X49320Y495345D01*
X48563Y495445D01*
X47806Y495345D01*
X47100Y495053D01*
X46495Y494588D01*
X46030Y493982D01*
X46015Y493947D01*
X31438D01*
X30207Y495178D01*
Y503562D01*
X34570Y507925D01*
X34833Y507816D01*
X35709Y507701D01*
X36584Y507816D01*
X37400Y508154D01*
X38100Y508692D01*
X38637Y509392D01*
X38975Y510207D01*
X39090Y511083D01*
X38975Y511958D01*
X38637Y512774D01*
X38100Y513474D01*
X37400Y514011D01*
X36584Y514349D01*
X35709Y514464D01*
D02*
G37*
G36*
X120854Y506815D02*
Y503394D01*
X124275D01*
X124205Y503926D01*
X123807Y504887D01*
X123173Y505713D01*
X122348Y506346D01*
X121386Y506745D01*
X120854Y506815D01*
D02*
G37*
G36*
X119854D02*
X119323Y506745D01*
X118361Y506346D01*
X117535Y505713D01*
X116902Y504887D01*
X116503Y503926D01*
X116433Y503394D01*
X119854D01*
Y506815D01*
D02*
G37*
G36*
X36209Y505004D02*
Y501583D01*
X39630D01*
X39560Y502115D01*
X39161Y503076D01*
X38528Y503902D01*
X37702Y504535D01*
X36740Y504934D01*
X36209Y505004D01*
D02*
G37*
G36*
X35209D02*
X34677Y504934D01*
X33715Y504535D01*
X32890Y503902D01*
X32256Y503076D01*
X31858Y502115D01*
X31788Y501583D01*
X35209D01*
Y505004D01*
D02*
G37*
G36*
X140354Y506275D02*
X139479Y506160D01*
X138663Y505822D01*
X137963Y505285D01*
X137426Y504585D01*
X137088Y503769D01*
X136973Y502894D01*
X137088Y502018D01*
X137426Y501203D01*
X137963Y500502D01*
X138663Y499965D01*
X139479Y499627D01*
X140354Y499512D01*
X141230Y499627D01*
X142045Y499965D01*
X142745Y500502D01*
X143283Y501203D01*
X143621Y502018D01*
X143736Y502894D01*
X143621Y503769D01*
X143283Y504585D01*
X142745Y505285D01*
X142045Y505822D01*
X141230Y506160D01*
X140354Y506275D01*
D02*
G37*
G36*
X124275Y502394D02*
X120854D01*
Y498973D01*
X121386Y499043D01*
X122348Y499441D01*
X123173Y500075D01*
X123807Y500900D01*
X124205Y501862D01*
X124275Y502394D01*
D02*
G37*
G36*
X119854D02*
X116433D01*
X116503Y501862D01*
X116902Y500900D01*
X117535Y500075D01*
X118361Y499441D01*
X119323Y499043D01*
X119854Y498973D01*
Y502394D01*
D02*
G37*
G36*
X82953Y505130D02*
X82077Y505015D01*
X81262Y504677D01*
X80562Y504139D01*
X80024Y503439D01*
X79686Y502623D01*
X79571Y501748D01*
X79686Y500873D01*
X80024Y500057D01*
X80562Y499357D01*
X81262Y498820D01*
X82077Y498482D01*
X82953Y498366D01*
X83828Y498482D01*
X84644Y498820D01*
X85344Y499357D01*
X85881Y500057D01*
X86219Y500873D01*
X86334Y501748D01*
X86219Y502623D01*
X85881Y503439D01*
X85344Y504139D01*
X84644Y504677D01*
X83828Y505015D01*
X82953Y505130D01*
D02*
G37*
G36*
X55709Y504464D02*
X54833Y504349D01*
X54018Y504011D01*
X53317Y503474D01*
X52780Y502774D01*
X52442Y501958D01*
X52327Y501083D01*
X52442Y500207D01*
X52780Y499392D01*
X53317Y498692D01*
X54018Y498154D01*
X54833Y497816D01*
X55709Y497701D01*
X56584Y497816D01*
X57399Y498154D01*
X58100Y498692D01*
X58637Y499392D01*
X58975Y500207D01*
X59090Y501083D01*
X58975Y501958D01*
X58637Y502774D01*
X58100Y503474D01*
X57399Y504011D01*
X56584Y504349D01*
X55709Y504464D01*
D02*
G37*
G36*
X45709D02*
X44833Y504349D01*
X44018Y504011D01*
X43317Y503474D01*
X42780Y502774D01*
X42442Y501958D01*
X42327Y501083D01*
X42442Y500207D01*
X42780Y499392D01*
X43317Y498692D01*
X44018Y498154D01*
X44833Y497816D01*
X45709Y497701D01*
X46584Y497816D01*
X47400Y498154D01*
X48100Y498692D01*
X48637Y499392D01*
X48975Y500207D01*
X49090Y501083D01*
X48975Y501958D01*
X48637Y502774D01*
X48100Y503474D01*
X47400Y504011D01*
X46584Y504349D01*
X45709Y504464D01*
D02*
G37*
G36*
X39630Y500583D02*
X36209D01*
Y497162D01*
X36740Y497232D01*
X37702Y497630D01*
X38528Y498264D01*
X39161Y499089D01*
X39560Y500051D01*
X39630Y500583D01*
D02*
G37*
G36*
X35209D02*
X31788D01*
X31858Y500051D01*
X32256Y499089D01*
X32890Y498264D01*
X33715Y497630D01*
X34677Y497232D01*
X35209Y497162D01*
Y500583D01*
D02*
G37*
G36*
X130354Y506275D02*
X129479Y506160D01*
X128664Y505822D01*
X127963Y505285D01*
X127426Y504585D01*
X127088Y503769D01*
X126973Y502894D01*
X127088Y502018D01*
X127426Y501203D01*
X127963Y500502D01*
X128664Y499965D01*
X129479Y499627D01*
X130354Y499512D01*
X131230Y499627D01*
X131493Y499736D01*
X141525Y489704D01*
Y480217D01*
X141525Y480217D01*
X141525Y480217D01*
Y467849D01*
X139076Y465400D01*
X138652Y465683D01*
X138691Y465778D01*
X138791Y466535D01*
X138691Y467292D01*
X138399Y467998D01*
X137934Y468604D01*
X137329Y469069D01*
X136623Y469361D01*
X135866Y469460D01*
X135109Y469361D01*
X134404Y469069D01*
X133798Y468604D01*
X133333Y467998D01*
X133041Y467292D01*
X132941Y466535D01*
X133041Y465778D01*
X133224Y465336D01*
X129440Y461551D01*
X125515D01*
X125363Y461880D01*
X125343Y462051D01*
X127186Y463894D01*
X127629Y463710D01*
X128386Y463610D01*
X129143Y463710D01*
X129848Y464002D01*
X130454Y464467D01*
X130919Y465073D01*
X131211Y465778D01*
X131311Y466535D01*
X131211Y467292D01*
X130919Y467998D01*
X130454Y468604D01*
X129848Y469069D01*
X129143Y469361D01*
X128386Y469460D01*
X127629Y469361D01*
X126923Y469069D01*
X126318Y468604D01*
X125853Y467998D01*
X125560Y467292D01*
X125461Y466535D01*
X125560Y465778D01*
X125744Y465336D01*
X124160Y463751D01*
X119251D01*
X119098Y464080D01*
X119079Y464251D01*
X120198Y465370D01*
X120641Y465187D01*
X121398Y465087D01*
X122155Y465187D01*
X122860Y465479D01*
X123466Y465943D01*
X123931Y466549D01*
X124223Y467255D01*
X124323Y468012D01*
X124223Y468769D01*
X123931Y469474D01*
X123466Y470080D01*
X122860Y470545D01*
X122155Y470837D01*
X121398Y470937D01*
X120641Y470837D01*
X119935Y470545D01*
X119329Y470080D01*
X118865Y469474D01*
X118572Y468769D01*
X118473Y468012D01*
X118572Y467255D01*
X118756Y466812D01*
X117895Y465951D01*
X104093D01*
X95941Y474103D01*
X96219Y474774D01*
X96334Y475650D01*
X96219Y476525D01*
X95881Y477340D01*
X95344Y478041D01*
X94644Y478578D01*
X93828Y478916D01*
X92953Y479031D01*
X92077Y478916D01*
X91262Y478578D01*
X90561Y478041D01*
X90024Y477340D01*
X89686Y476525D01*
X89571Y475650D01*
X89686Y474774D01*
X90024Y473959D01*
X90561Y473258D01*
X91262Y472721D01*
X92077Y472383D01*
X92953Y472268D01*
X93828Y472383D01*
X94499Y472661D01*
X95421Y471740D01*
X95102Y471351D01*
X94860Y471513D01*
X94470Y471591D01*
X88454D01*
X86305Y473739D01*
Y479002D01*
X79600D01*
Y472297D01*
X84864D01*
X87310Y469850D01*
X87641Y469629D01*
X88032Y469551D01*
X90755D01*
X90872Y469294D01*
X90893Y469051D01*
X90134Y468469D01*
X89500Y467643D01*
X89102Y466681D01*
X89032Y466150D01*
X92953D01*
Y465150D01*
X89032D01*
X89102Y464618D01*
X89500Y463656D01*
X90134Y462830D01*
X90959Y462197D01*
X91311Y462051D01*
X91212Y461551D01*
X88493D01*
X85941Y464103D01*
X86219Y464774D01*
X86334Y465650D01*
X86219Y466525D01*
X85881Y467340D01*
X85344Y468041D01*
X84644Y468578D01*
X83828Y468916D01*
X82953Y469031D01*
X82077Y468916D01*
X81262Y468578D01*
X80562Y468041D01*
X80024Y467340D01*
X79686Y466525D01*
X79571Y465650D01*
X79686Y464774D01*
X80024Y463959D01*
X80562Y463258D01*
X81262Y462721D01*
X82077Y462383D01*
X82953Y462268D01*
X83828Y462383D01*
X84499Y462661D01*
X87350Y459810D01*
X87681Y459589D01*
X88071Y459512D01*
X92773D01*
X92805Y459012D01*
X92620Y458988D01*
X92077Y458916D01*
X91262Y458578D01*
X90561Y458041D01*
X90024Y457340D01*
X89686Y456525D01*
X89571Y455650D01*
X89686Y454774D01*
X90024Y453959D01*
X90561Y453258D01*
X91262Y452721D01*
X92077Y452383D01*
X92953Y452268D01*
X93828Y452383D01*
X94234Y452551D01*
X98360D01*
X99575Y451336D01*
Y393692D01*
X98360Y392476D01*
X94806D01*
X94801Y392480D01*
X93985Y392817D01*
X93110Y392933D01*
X92235Y392817D01*
X91419Y392480D01*
X91415Y392476D01*
X84806D01*
X84801Y392480D01*
X83986Y392817D01*
X83110Y392933D01*
X82235Y392817D01*
X81419Y392480D01*
X80719Y391942D01*
X80182Y391242D01*
X79844Y390426D01*
X79729Y389551D01*
X79844Y388676D01*
X80182Y387860D01*
X80719Y387160D01*
X81419Y386622D01*
X82235Y386285D01*
X83110Y386169D01*
X83986Y386285D01*
X84801Y386622D01*
X84806Y386626D01*
X91415D01*
X91419Y386622D01*
X92235Y386285D01*
X93110Y386169D01*
X93985Y386285D01*
X94801Y386622D01*
X94806Y386626D01*
X99571D01*
X100328Y386726D01*
X101034Y387018D01*
X101639Y387483D01*
X104568Y390412D01*
X105033Y391018D01*
X105325Y391723D01*
X105425Y392480D01*
Y452547D01*
X105325Y453304D01*
X105033Y454010D01*
X104568Y454616D01*
X101639Y457545D01*
X101034Y458009D01*
X100328Y458302D01*
X99571Y458401D01*
X94874D01*
X94644Y458578D01*
X93828Y458916D01*
X93285Y458988D01*
X93100Y459012D01*
X93133Y459512D01*
X129862D01*
X130143Y459568D01*
X130420Y459199D01*
X130438Y459156D01*
X125368Y454085D01*
X124398D01*
X124383Y454120D01*
X123919Y454726D01*
X123313Y455191D01*
X122608Y455483D01*
X121850Y455583D01*
X121093Y455483D01*
X120388Y455191D01*
X119782Y454726D01*
X119317Y454120D01*
X119025Y453414D01*
X118925Y452658D01*
X119025Y451900D01*
X119317Y451195D01*
X119782Y450589D01*
X120388Y450124D01*
X121093Y449832D01*
X121850Y449732D01*
X122608Y449832D01*
X123313Y450124D01*
X123919Y450589D01*
X124383Y451195D01*
X124398Y451230D01*
X125959D01*
X125959Y451230D01*
X126505Y451339D01*
X126968Y451648D01*
X132459Y457139D01*
X132883Y456856D01*
X132844Y456761D01*
X132744Y456004D01*
X132844Y455247D01*
X133136Y454541D01*
X133601Y453936D01*
X133668Y453885D01*
X133700Y453386D01*
X121471Y441156D01*
X121161Y440693D01*
X121053Y440147D01*
X121053Y440147D01*
Y405909D01*
X120690Y405758D01*
X119948Y405189D01*
X119379Y404448D01*
X119022Y403584D01*
X118900Y402658D01*
X119022Y401731D01*
X119379Y400867D01*
X119948Y400126D01*
X120690Y399557D01*
X121554Y399199D01*
X122480Y399077D01*
X123407Y399199D01*
X124271Y399557D01*
X125012Y400126D01*
X125581Y400867D01*
X125939Y401731D01*
X126061Y402658D01*
X125939Y403584D01*
X125581Y404448D01*
X125012Y405189D01*
X124271Y405758D01*
X123908Y405909D01*
Y439556D01*
X136679Y452327D01*
X136679Y452327D01*
X136988Y452790D01*
X137097Y453336D01*
Y453456D01*
X137132Y453471D01*
X137738Y453936D01*
X138202Y454541D01*
X138495Y455247D01*
X138594Y456004D01*
X138495Y456761D01*
X138202Y457466D01*
X137738Y458072D01*
X137132Y458537D01*
X136781Y458682D01*
X136759Y458985D01*
X136794Y459218D01*
X137208Y459495D01*
X143962Y466249D01*
X143962Y466249D01*
X144272Y466712D01*
X144380Y467258D01*
Y479625D01*
X146511Y481756D01*
X146987Y481888D01*
X147593Y481424D01*
X148298Y481131D01*
X149055Y481032D01*
X149812Y481131D01*
X150518Y481424D01*
X151123Y481888D01*
X151588Y482494D01*
X151881Y483200D01*
X151980Y483957D01*
X151881Y484714D01*
X151588Y485419D01*
X151123Y486025D01*
X150518Y486490D01*
X149812Y486782D01*
X149055Y486882D01*
X148298Y486782D01*
X147593Y486490D01*
X146987Y486025D01*
X146522Y485419D01*
X146270Y484810D01*
X146119D01*
X146119Y484810D01*
X145573Y484701D01*
X145109Y484392D01*
X145109Y484392D01*
X144842Y484125D01*
X144380Y484316D01*
Y490295D01*
X144380Y490295D01*
X144272Y490841D01*
X143962Y491305D01*
X133512Y501755D01*
X133621Y502018D01*
X133736Y502894D01*
X133621Y503769D01*
X133283Y504585D01*
X132746Y505285D01*
X132045Y505822D01*
X131230Y506160D01*
X130354Y506275D01*
D02*
G37*
G36*
X73858Y476350D02*
X73101Y476251D01*
X72396Y475958D01*
X71790Y475493D01*
X71325Y474888D01*
X71033Y474182D01*
X70933Y473425D01*
X70997Y472943D01*
X66960Y468906D01*
X66595Y468360D01*
X66467Y467717D01*
Y443900D01*
X66081Y443604D01*
X65617Y442998D01*
X65324Y442292D01*
X65225Y441535D01*
X65324Y440778D01*
X65617Y440073D01*
X66081Y439467D01*
X66687Y439002D01*
X67393Y438710D01*
X68150Y438610D01*
X68907Y438710D01*
X69612Y439002D01*
X70218Y439467D01*
X70683Y440073D01*
X70975Y440778D01*
X71075Y441535D01*
X70975Y442292D01*
X70683Y442998D01*
X70218Y443604D01*
X69832Y443900D01*
Y467020D01*
X73376Y470564D01*
X73858Y470500D01*
X74615Y470600D01*
X75321Y470892D01*
X75927Y471357D01*
X76391Y471963D01*
X76684Y472668D01*
X76783Y473425D01*
X76684Y474182D01*
X76391Y474888D01*
X75927Y475493D01*
X75321Y475958D01*
X74615Y476251D01*
X73858Y476350D01*
D02*
G37*
G36*
X118445Y538063D02*
X117688Y537963D01*
X116982Y537671D01*
X116377Y537206D01*
X115912Y536600D01*
X115620Y535895D01*
X115520Y535138D01*
X115620Y534381D01*
X115912Y533675D01*
X116377Y533070D01*
X117429Y532017D01*
Y514589D01*
X117426Y514584D01*
X117088Y513769D01*
X116973Y512894D01*
X117088Y512018D01*
X117426Y511203D01*
X117963Y510502D01*
X118664Y509965D01*
X119479Y509627D01*
X120354Y509512D01*
X121230Y509627D01*
X122045Y509965D01*
X122746Y510502D01*
X123283Y511203D01*
X123621Y512018D01*
X123622Y512024D01*
X130523Y518925D01*
X141667D01*
X143943Y516649D01*
X143638Y516247D01*
X143236Y516247D01*
X137002D01*
Y509541D01*
X143707D01*
Y515752D01*
X143707Y516178D01*
X144109Y516483D01*
X153906Y506686D01*
Y467815D01*
X154005Y467058D01*
X154298Y466353D01*
X154762Y465747D01*
X154861Y465648D01*
X155467Y465183D01*
X156172Y464891D01*
X156929Y464791D01*
X157686Y464891D01*
X158392Y465183D01*
X158997Y465648D01*
X159462Y466254D01*
X159755Y466959D01*
X159854Y467717D01*
X159756Y468464D01*
Y507898D01*
X159656Y508655D01*
X159364Y509360D01*
X158899Y509966D01*
X144947Y523919D01*
X144341Y524383D01*
X143635Y524676D01*
X142878Y524775D01*
X129311D01*
X128554Y524676D01*
X127848Y524383D01*
X127243Y523919D01*
X123741Y520417D01*
X123279Y520609D01*
Y533228D01*
X123180Y533985D01*
X122888Y534691D01*
X122423Y535297D01*
X120513Y537206D01*
X119907Y537671D01*
X119202Y537963D01*
X118445Y538063D01*
D02*
G37*
G36*
X82953Y459031D02*
X82077Y458916D01*
X81262Y458578D01*
X80562Y458041D01*
X80024Y457340D01*
X79686Y456525D01*
X79571Y455650D01*
X79686Y454774D01*
X80024Y453959D01*
X80562Y453258D01*
X81262Y452721D01*
X82077Y452383D01*
X82953Y452268D01*
X83828Y452383D01*
X84644Y452721D01*
X85344Y453258D01*
X85881Y453959D01*
X86219Y454774D01*
X86334Y455650D01*
X86219Y456525D01*
X85881Y457340D01*
X85344Y458041D01*
X84644Y458578D01*
X83828Y458916D01*
X82953Y459031D01*
D02*
G37*
G36*
X83453Y449571D02*
Y446150D01*
X86874D01*
X86804Y446681D01*
X86405Y447643D01*
X85772Y448469D01*
X84946Y449102D01*
X83985Y449501D01*
X83453Y449571D01*
D02*
G37*
G36*
X82453D02*
X81921Y449501D01*
X80959Y449102D01*
X80134Y448469D01*
X79500Y447643D01*
X79102Y446681D01*
X79032Y446150D01*
X82453D01*
Y449571D01*
D02*
G37*
G36*
X92953Y449031D02*
X92077Y448916D01*
X91262Y448578D01*
X90561Y448041D01*
X90024Y447340D01*
X89686Y446525D01*
X89571Y445650D01*
X89686Y444774D01*
X90024Y443959D01*
X90561Y443258D01*
X91262Y442721D01*
X92077Y442383D01*
X92953Y442268D01*
X93828Y442383D01*
X94644Y442721D01*
X95344Y443258D01*
X95881Y443959D01*
X96219Y444774D01*
X96334Y445650D01*
X96219Y446525D01*
X95881Y447340D01*
X95344Y448041D01*
X94644Y448578D01*
X93828Y448916D01*
X92953Y449031D01*
D02*
G37*
G36*
X86874Y445150D02*
X83453D01*
Y441729D01*
X83985Y441799D01*
X84946Y442197D01*
X85772Y442831D01*
X86405Y443656D01*
X86804Y444618D01*
X86874Y445150D01*
D02*
G37*
G36*
X82453D02*
X79032D01*
X79102Y444618D01*
X79500Y443656D01*
X80134Y442831D01*
X80959Y442197D01*
X81921Y441799D01*
X82453Y441729D01*
Y445150D01*
D02*
G37*
G36*
X39370Y456272D02*
X38613Y456172D01*
X37908Y455880D01*
X37302Y455415D01*
X36837Y454809D01*
X36545Y454104D01*
X36445Y453346D01*
X36545Y452589D01*
X36837Y451884D01*
X37302Y451278D01*
X37908Y450813D01*
X38613Y450521D01*
X39370Y450421D01*
X40127Y450521D01*
X40833Y450813D01*
X41235Y451122D01*
X52648Y439710D01*
X52393Y439258D01*
X52145Y439307D01*
X29193D01*
X29010Y439750D01*
X28545Y440356D01*
X27939Y440821D01*
X27233Y441113D01*
X26476Y441212D01*
X25719Y441113D01*
X25014Y440821D01*
X24408Y440356D01*
X23943Y439750D01*
X23651Y439045D01*
X23551Y438287D01*
X23651Y437530D01*
X23943Y436825D01*
X24408Y436219D01*
X25014Y435754D01*
X25719Y435462D01*
X26476Y435362D01*
X27233Y435462D01*
X27939Y435754D01*
X28545Y436219D01*
X29010Y436825D01*
X29193Y437268D01*
X51722D01*
X52584Y436406D01*
X52459Y436065D01*
X52352Y435931D01*
X37372D01*
X36981Y435853D01*
X36651Y435632D01*
X35306Y434287D01*
X23976D01*
X23793Y434730D01*
X23328Y435336D01*
X22722Y435801D01*
X22017Y436093D01*
X21260Y436193D01*
X20503Y436093D01*
X19797Y435801D01*
X19192Y435336D01*
X18727Y434730D01*
X18435Y434025D01*
X18335Y433268D01*
X18435Y432511D01*
X18727Y431805D01*
X19192Y431199D01*
X19797Y430735D01*
X20503Y430442D01*
X21260Y430343D01*
X22017Y430442D01*
X22722Y430735D01*
X23328Y431199D01*
X23793Y431805D01*
X23976Y432248D01*
X35728D01*
X36119Y432326D01*
X36449Y432547D01*
X37794Y433891D01*
X51987D01*
X69580Y416299D01*
Y375956D01*
X69657Y375566D01*
X69878Y375235D01*
X76283Y368830D01*
X76614Y368609D01*
X77004Y368531D01*
X79904D01*
X80182Y367860D01*
X80719Y367160D01*
X81419Y366622D01*
X82235Y366285D01*
X83110Y366169D01*
X83986Y366285D01*
X84801Y366622D01*
X85501Y367160D01*
X86039Y367860D01*
X86377Y368676D01*
X86492Y369551D01*
X86377Y370426D01*
X86039Y371242D01*
X85501Y371942D01*
X84801Y372480D01*
X83986Y372817D01*
X83110Y372933D01*
X82235Y372817D01*
X81419Y372480D01*
X80719Y371942D01*
X80182Y371242D01*
X79904Y370571D01*
X77426D01*
X71619Y376378D01*
Y379703D01*
X72119Y379802D01*
X72271Y379575D01*
X78059Y373787D01*
X78389Y373566D01*
X78780Y373488D01*
X87731D01*
X90122Y371097D01*
X89844Y370426D01*
X89728Y369551D01*
X89844Y368676D01*
X90182Y367860D01*
X90719Y367160D01*
X91419Y366622D01*
X92235Y366285D01*
X93110Y366169D01*
X93985Y366285D01*
X94801Y366622D01*
X95501Y367160D01*
X96039Y367860D01*
X96377Y368676D01*
X96492Y369551D01*
X96377Y370426D01*
X96039Y371242D01*
X95501Y371942D01*
X94801Y372480D01*
X93985Y372817D01*
X93110Y372933D01*
X92235Y372817D01*
X91564Y372539D01*
X88874Y375229D01*
X88544Y375450D01*
X88153Y375528D01*
X85032D01*
X84933Y376027D01*
X85104Y376098D01*
X85929Y376732D01*
X86563Y377558D01*
X86961Y378519D01*
X87031Y379051D01*
X83110D01*
X79189D01*
X79259Y378519D01*
X79658Y377558D01*
X80291Y376732D01*
X81117Y376098D01*
X81288Y376027D01*
X81188Y375528D01*
X79202D01*
X74011Y380718D01*
Y387863D01*
X74511Y388015D01*
X74614Y387862D01*
X78748Y383728D01*
X79078Y383507D01*
X79469Y383429D01*
X80889D01*
X80938Y383337D01*
X81020Y382929D01*
X80291Y382370D01*
X79658Y381544D01*
X79259Y380583D01*
X79189Y380051D01*
X83110D01*
X87031D01*
X86961Y380583D01*
X86563Y381544D01*
X85929Y382370D01*
X85201Y382929D01*
X85282Y383337D01*
X85331Y383429D01*
X87790D01*
X90122Y381098D01*
X89844Y380426D01*
X89728Y379551D01*
X89844Y378676D01*
X90182Y377860D01*
X90719Y377160D01*
X91419Y376622D01*
X92235Y376285D01*
X93110Y376169D01*
X93985Y376285D01*
X94801Y376622D01*
X95501Y377160D01*
X96039Y377860D01*
X96377Y378676D01*
X96492Y379551D01*
X96377Y380426D01*
X96039Y381242D01*
X95501Y381942D01*
X94801Y382480D01*
X93985Y382818D01*
X93110Y382933D01*
X92235Y382818D01*
X91564Y382539D01*
X88933Y385170D01*
X88603Y385391D01*
X88213Y385468D01*
X79891D01*
X76354Y389005D01*
Y418465D01*
X76277Y418855D01*
X76056Y419185D01*
X42248Y452993D01*
X42295Y453346D01*
X42195Y454104D01*
X41903Y454809D01*
X41438Y455415D01*
X40833Y455880D01*
X40127Y456172D01*
X39370Y456272D01*
D02*
G37*
G36*
X92953Y439031D02*
X92077Y438916D01*
X91262Y438578D01*
X90561Y438041D01*
X90024Y437340D01*
X89686Y436525D01*
X89571Y435650D01*
X89686Y434774D01*
X90024Y433959D01*
X90561Y433258D01*
X91262Y432721D01*
X92077Y432383D01*
X92953Y432268D01*
X93828Y432383D01*
X94644Y432721D01*
X95344Y433258D01*
X95881Y433959D01*
X96219Y434774D01*
X96334Y435650D01*
X96219Y436525D01*
X95881Y437340D01*
X95344Y438041D01*
X94644Y438578D01*
X93828Y438916D01*
X92953Y439031D01*
D02*
G37*
G36*
X73858Y462768D02*
X73101Y462668D01*
X72396Y462376D01*
X71790Y461911D01*
X71325Y461305D01*
X71033Y460600D01*
X70933Y459842D01*
X71033Y459086D01*
X71325Y458380D01*
X71790Y457774D01*
X72396Y457309D01*
X72839Y457126D01*
Y444744D01*
X72916Y444354D01*
X73137Y444023D01*
X79964Y437196D01*
X79686Y436525D01*
X79571Y435650D01*
X79686Y434774D01*
X80024Y433959D01*
X80562Y433258D01*
X81262Y432721D01*
X82077Y432383D01*
X82953Y432268D01*
X83828Y432383D01*
X84644Y432721D01*
X85344Y433258D01*
X85881Y433959D01*
X86219Y434774D01*
X86334Y435650D01*
X86219Y436525D01*
X85881Y437340D01*
X85344Y438041D01*
X84644Y438578D01*
X83828Y438916D01*
X82953Y439031D01*
X82077Y438916D01*
X81406Y438638D01*
X74878Y445166D01*
Y457126D01*
X75321Y457309D01*
X75927Y457774D01*
X76391Y458380D01*
X76684Y459086D01*
X76783Y459842D01*
X76684Y460600D01*
X76391Y461305D01*
X75927Y461911D01*
X75321Y462376D01*
X74615Y462668D01*
X73858Y462768D01*
D02*
G37*
G36*
X26189Y431122D02*
Y428158D01*
X29153D01*
X29099Y428571D01*
X28746Y429423D01*
X28185Y430154D01*
X27454Y430715D01*
X26603Y431067D01*
X26189Y431122D01*
D02*
G37*
G36*
X25189D02*
X24775Y431067D01*
X23924Y430715D01*
X23193Y430154D01*
X22632Y429423D01*
X22279Y428571D01*
X22225Y428158D01*
X25189D01*
Y431122D01*
D02*
G37*
G36*
X29153Y427157D02*
X26189D01*
Y424193D01*
X26603Y424248D01*
X27454Y424600D01*
X28185Y425161D01*
X28746Y425892D01*
X29099Y426744D01*
X29153Y427157D01*
D02*
G37*
G36*
X25189D02*
X22225D01*
X22279Y426744D01*
X22632Y425892D01*
X23193Y425161D01*
X23924Y424600D01*
X24775Y424248D01*
X25189Y424193D01*
Y427157D01*
D02*
G37*
G36*
X46799Y413799D02*
Y410835D01*
X49764D01*
X49709Y411248D01*
X49356Y412100D01*
X48795Y412831D01*
X48064Y413392D01*
X47213Y413745D01*
X46799Y413799D01*
D02*
G37*
G36*
X45799D02*
X45386Y413745D01*
X44534Y413392D01*
X43803Y412831D01*
X43242Y412100D01*
X42889Y411248D01*
X42835Y410835D01*
X45799D01*
Y413799D01*
D02*
G37*
G36*
X49764Y409835D02*
X46799D01*
Y406870D01*
X47213Y406925D01*
X48064Y407277D01*
X48795Y407838D01*
X49356Y408569D01*
X49709Y409421D01*
X49764Y409835D01*
D02*
G37*
G36*
X45799D02*
X42835D01*
X42889Y409421D01*
X43242Y408569D01*
X43803Y407838D01*
X44534Y407277D01*
X45386Y406925D01*
X45799Y406870D01*
Y409835D01*
D02*
G37*
G36*
X86463Y412904D02*
X79757D01*
Y406198D01*
X86463D01*
Y412904D01*
D02*
G37*
G36*
X93110Y412933D02*
X92235Y412817D01*
X91419Y412480D01*
X90719Y411942D01*
X90182Y411242D01*
X89844Y410426D01*
X89728Y409551D01*
X89844Y408676D01*
X90182Y407860D01*
X90719Y407160D01*
X91419Y406622D01*
X92235Y406285D01*
X93110Y406169D01*
X93985Y406285D01*
X94801Y406622D01*
X95501Y407160D01*
X96039Y407860D01*
X96377Y408676D01*
X96492Y409551D01*
X96377Y410426D01*
X96039Y411242D01*
X95501Y411942D01*
X94801Y412480D01*
X93985Y412817D01*
X93110Y412933D01*
D02*
G37*
G36*
X148760Y479008D02*
X148003Y478908D01*
X147297Y478616D01*
X146692Y478151D01*
X146227Y477545D01*
X145934Y476840D01*
X145835Y476083D01*
X145934Y475326D01*
X146227Y474620D01*
X146692Y474014D01*
X147297Y473550D01*
X147332Y473535D01*
Y410528D01*
X142770Y405966D01*
X142407Y406116D01*
X141480Y406238D01*
X140554Y406116D01*
X139690Y405758D01*
X138948Y405189D01*
X138379Y404448D01*
X138022Y403584D01*
X137900Y402658D01*
X138022Y401731D01*
X138379Y400867D01*
X138948Y400126D01*
X139690Y399557D01*
X140554Y399199D01*
X141480Y399077D01*
X142407Y399199D01*
X143271Y399557D01*
X144012Y400126D01*
X144581Y400867D01*
X144939Y401731D01*
X145061Y402658D01*
X144939Y403584D01*
X144789Y403947D01*
X149769Y408928D01*
X150079Y409391D01*
X150187Y409937D01*
X150187Y409937D01*
Y473535D01*
X150222Y473550D01*
X150828Y474014D01*
X151293Y474620D01*
X151585Y475326D01*
X151685Y476083D01*
X151585Y476840D01*
X151293Y477545D01*
X150828Y478151D01*
X150222Y478616D01*
X149517Y478908D01*
X148760Y479008D01*
D02*
G37*
G36*
X93610Y403472D02*
Y400051D01*
X97031D01*
X96961Y400583D01*
X96563Y401545D01*
X95929Y402370D01*
X95104Y403004D01*
X94142Y403402D01*
X93610Y403472D01*
D02*
G37*
G36*
X92610D02*
X92078Y403402D01*
X91117Y403004D01*
X90291Y402370D01*
X89657Y401545D01*
X89259Y400583D01*
X89189Y400051D01*
X92610D01*
Y403472D01*
D02*
G37*
G36*
X56677Y406396D02*
X55750Y406274D01*
X54887Y405916D01*
X54145Y405347D01*
X53576Y404605D01*
X53219Y403742D01*
X53096Y402815D01*
X53219Y401888D01*
X53576Y401025D01*
X54145Y400283D01*
X54887Y399714D01*
X55750Y399356D01*
X56677Y399234D01*
X57604Y399356D01*
X58468Y399714D01*
X59209Y400283D01*
X59778Y401025D01*
X60136Y401888D01*
X60258Y402815D01*
X60136Y403742D01*
X59778Y404605D01*
X59209Y405347D01*
X58468Y405916D01*
X57604Y406274D01*
X56677Y406396D01*
D02*
G37*
G36*
X37677D02*
X36750Y406274D01*
X35887Y405916D01*
X35145Y405347D01*
X34576Y404605D01*
X34218Y403742D01*
X34097Y402815D01*
X34218Y401888D01*
X34576Y401025D01*
X35145Y400283D01*
X35887Y399714D01*
X36750Y399356D01*
X37677Y399234D01*
X38604Y399356D01*
X39467Y399714D01*
X40209Y400283D01*
X40778Y401025D01*
X41136Y401888D01*
X41258Y402815D01*
X41136Y403742D01*
X40778Y404605D01*
X40209Y405347D01*
X39467Y405916D01*
X38604Y406274D01*
X37677Y406396D01*
D02*
G37*
G36*
X83110Y402933D02*
X82235Y402817D01*
X81419Y402480D01*
X80719Y401942D01*
X80182Y401242D01*
X79844Y400426D01*
X79729Y399551D01*
X79844Y398676D01*
X80182Y397860D01*
X80719Y397160D01*
X81419Y396622D01*
X82235Y396285D01*
X83110Y396169D01*
X83986Y396285D01*
X84801Y396622D01*
X85501Y397160D01*
X86039Y397860D01*
X86377Y398676D01*
X86492Y399551D01*
X86377Y400426D01*
X86039Y401242D01*
X85501Y401942D01*
X84801Y402480D01*
X83986Y402817D01*
X83110Y402933D01*
D02*
G37*
G36*
X97031Y399051D02*
X93610D01*
Y395630D01*
X94142Y395700D01*
X95104Y396098D01*
X95929Y396732D01*
X96563Y397558D01*
X96961Y398519D01*
X97031Y399051D01*
D02*
G37*
G36*
X92610D02*
X89189D01*
X89259Y398519D01*
X89657Y397558D01*
X90291Y396732D01*
X91117Y396098D01*
X92078Y395700D01*
X92610Y395630D01*
Y399051D01*
D02*
G37*
G36*
X133571Y381112D02*
Y372744D01*
X141939D01*
X141816Y373984D01*
X141309Y375657D01*
X140485Y377198D01*
X139376Y378549D01*
X138025Y379658D01*
X136483Y380482D01*
X134810Y380990D01*
X133571Y381112D01*
D02*
G37*
G36*
X39083D02*
Y372744D01*
X47450D01*
X47328Y373984D01*
X46821Y375657D01*
X45997Y377198D01*
X44888Y378549D01*
X43537Y379658D01*
X41995Y380482D01*
X40322Y380990D01*
X39083Y381112D01*
D02*
G37*
G36*
X132571D02*
X131331Y380990D01*
X129658Y380482D01*
X128117Y379658D01*
X126766Y378549D01*
X125657Y377198D01*
X124833Y375657D01*
X124325Y373984D01*
X124203Y372744D01*
X132571D01*
Y381112D01*
D02*
G37*
G36*
X38083D02*
X36843Y380990D01*
X35170Y380482D01*
X33629Y379658D01*
X32277Y378549D01*
X31168Y377198D01*
X30345Y375657D01*
X29837Y373984D01*
X29715Y372744D01*
X38083D01*
Y381112D01*
D02*
G37*
G36*
X132571Y371744D02*
X124203D01*
X124325Y370504D01*
X124833Y368832D01*
X125657Y367290D01*
X126766Y365939D01*
X128117Y364830D01*
X129658Y364006D01*
X131331Y363498D01*
X132571Y363376D01*
Y371744D01*
D02*
G37*
G36*
X38083D02*
X29715D01*
X29837Y370504D01*
X30345Y368832D01*
X31168Y367290D01*
X32277Y365939D01*
X33629Y364830D01*
X35170Y364006D01*
X36843Y363498D01*
X38083Y363376D01*
Y371744D01*
D02*
G37*
G36*
X141939D02*
X133571D01*
Y363376D01*
X134810Y363498D01*
X136483Y364006D01*
X138025Y364830D01*
X139376Y365939D01*
X140485Y367290D01*
X141309Y368832D01*
X141816Y370504D01*
X141939Y371744D01*
D02*
G37*
G36*
X47450D02*
X39083D01*
Y363376D01*
X40322Y363498D01*
X41995Y364006D01*
X43537Y364830D01*
X44888Y365939D01*
X45997Y367290D01*
X46821Y368832D01*
X47328Y370504D01*
X47450Y371744D01*
D02*
G37*
%LPD*%
G36*
X37652Y464888D02*
X38357Y464596D01*
X38961Y464516D01*
X46392Y457085D01*
Y455392D01*
X46158Y455234D01*
X45907Y455169D01*
X41005Y460071D01*
X40674Y460292D01*
X40284Y460370D01*
X38780D01*
X38596Y460813D01*
X38131Y461419D01*
X37525Y461883D01*
X37083Y462067D01*
Y464674D01*
X37078Y464698D01*
X37532Y464980D01*
X37652Y464888D01*
D02*
G37*
D36*
X121850Y452658D02*
X125959D01*
X121850Y452658D02*
X121850Y452658D01*
X125959D02*
X133805Y460504D01*
X25689Y427658D02*
X30650D01*
X45725Y412582D01*
X148760Y409937D02*
Y476083D01*
X141480Y402658D02*
X148760Y409937D01*
X142953Y480217D02*
Y490295D01*
X130354Y502894D02*
X142953Y490295D01*
Y480217D02*
X146119Y483383D01*
X148481D01*
X149055Y483957D01*
X142953Y467258D02*
Y480217D01*
X122480Y440147D02*
X135669Y453336D01*
X133805Y460504D02*
X136199D01*
X142953Y467258D01*
X135669Y453336D02*
Y456004D01*
X122480Y402658D02*
Y440147D01*
X28780Y504153D02*
X35709Y511083D01*
X28780Y494587D02*
Y504153D01*
Y494587D02*
X30847Y492520D01*
X48563D01*
D37*
X143718Y564324D02*
X146814Y567421D01*
X103991Y564324D02*
X143718D01*
X98139Y570177D02*
X103991Y564324D01*
X97894Y570177D02*
X98139D01*
X150699Y535718D02*
X152756Y533661D01*
X150699Y535718D02*
Y563536D01*
X146814Y567421D02*
X150699Y563536D01*
X107087Y516161D02*
X120354Y502894D01*
X107087Y516161D02*
Y545882D01*
Y560984D01*
X92953Y531748D02*
X107087Y545882D01*
X97894Y570177D02*
X107087Y560984D01*
X156831Y467815D02*
X156929Y467717D01*
X156831Y467815D02*
Y507898D01*
X142878Y521850D02*
X156831Y507898D01*
X129311Y521850D02*
X142878D01*
X120354Y512894D02*
X129311Y521850D01*
X83110Y389551D02*
X93110D01*
X32471Y567028D02*
X35168Y569724D01*
X67441D01*
X67894Y570177D01*
X99571Y389551D02*
X102500Y392480D01*
X93110Y389551D02*
X99571D01*
X102500Y392480D02*
Y452547D01*
X99571Y455476D02*
X102500Y452547D01*
X93126Y455476D02*
X99571D01*
X92953Y455650D02*
X93126Y455476D01*
X120354Y512894D02*
Y533228D01*
X118445Y535138D02*
X120354Y533228D01*
D38*
X70599Y375956D02*
Y416721D01*
Y375956D02*
X77004Y369551D01*
X83110D01*
X39370Y453346D02*
X40453D01*
X75335Y418465D01*
Y388583D02*
Y418465D01*
X80245Y419390D02*
X81634D01*
X26476Y438287D02*
X52145D01*
X72992Y417440D01*
X21260Y433268D02*
X35728D01*
X37372Y434911D01*
X52410D01*
X70599Y416721D01*
X106516Y516732D02*
X107087Y516161D01*
X36063Y459350D02*
X40284D01*
X80245Y419390D01*
X87937Y516732D02*
X106516D01*
X82953Y511748D02*
X87937Y516732D01*
X88071Y460532D02*
X129862D01*
X135866Y466535D01*
X35014Y465723D02*
Y470506D01*
X65295Y500787D01*
X39114Y471495D02*
X67495Y499876D01*
X39114Y465805D02*
X47412Y457508D01*
X36063Y459350D02*
Y464674D01*
X35014Y465723D02*
X36063Y464674D01*
X39114Y465805D02*
Y467421D01*
Y471495D01*
X47412Y455294D02*
Y457508D01*
Y455294D02*
X75639Y427067D01*
X88425Y404236D02*
Y415059D01*
Y404236D02*
X93110Y399551D01*
X88425Y415059D02*
X91083Y417717D01*
Y428740D01*
X88130Y431693D02*
X91083Y428740D01*
X88130Y431693D02*
Y440472D01*
X82953Y445650D02*
X88130Y440472D01*
X75639Y427067D02*
X84390D01*
X72992Y380296D02*
Y417440D01*
X77500Y451102D02*
Y456988D01*
Y451102D02*
X82953Y445650D01*
X77500Y456988D02*
X79469Y458957D01*
Y461122D01*
X77402Y463189D02*
X79469Y461122D01*
X77402Y463189D02*
Y468799D01*
X79045Y470442D01*
X85049D01*
X87120Y468371D01*
X88958D01*
X91679Y465650D01*
X92953D01*
X82953Y475650D02*
X88032Y470571D01*
X94470D01*
X55714Y459227D02*
Y464510D01*
X92953Y501748D01*
X53878Y454626D02*
Y457391D01*
X55714Y459227D01*
X51614Y460925D02*
Y466339D01*
X76910Y491634D01*
X73858Y444744D02*
X82953Y435650D01*
X73858Y444744D02*
Y459842D01*
X67495Y499876D02*
Y547342D01*
X65295Y500787D02*
Y548524D01*
X77894Y561122D01*
X76910Y491634D02*
Y503740D01*
X67495Y547342D02*
X80094Y559941D01*
Y562377D01*
X87894Y570177D01*
X77894Y561122D02*
Y570177D01*
X72992Y380296D02*
X78780Y374508D01*
X88153D01*
X93110Y369551D01*
X75335Y388583D02*
X79469Y384449D01*
X88213D01*
X93110Y379551D01*
X118317Y464931D02*
X121398Y468012D01*
X103671Y464931D02*
X118317D01*
X92953Y475650D02*
X103671Y464931D01*
X124582Y462732D02*
X128386Y466535D01*
X101136Y462732D02*
X124582D01*
X100433Y463435D02*
X101136Y462732D01*
X100433Y463435D02*
Y464608D01*
X94470Y470571D02*
X100433Y464608D01*
X82953Y465650D02*
X88071Y460532D01*
X76910Y503740D02*
X79961Y506791D01*
X87996D01*
X92953Y511748D01*
D39*
X68150Y441535D02*
Y467717D01*
X73858Y473425D01*
D40*
X29134Y532087D02*
D03*
X152756Y533661D02*
D03*
X38583Y372244D02*
D03*
X133071D02*
D03*
D41*
X32471Y567028D02*
D03*
X146814Y567421D02*
D03*
D42*
X141480Y402658D02*
D03*
X122480D02*
D03*
X56677Y402815D02*
D03*
X37677D02*
D03*
D43*
X55709Y511083D02*
D03*
X140354Y512894D02*
D03*
X67894Y570177D02*
D03*
D44*
X55709Y501083D02*
D03*
X45709Y511083D02*
D03*
Y501083D02*
D03*
X35709Y511083D02*
D03*
Y501083D02*
D03*
X140354Y502894D02*
D03*
X130354Y512894D02*
D03*
Y502894D02*
D03*
X120354Y512894D02*
D03*
Y502894D02*
D03*
X93110Y369551D02*
D03*
X83110D02*
D03*
X93110Y379551D02*
D03*
X83110D02*
D03*
X93110Y389551D02*
D03*
X83110D02*
D03*
X93110Y399551D02*
D03*
X83110D02*
D03*
X93110Y409551D02*
D03*
X107894Y580177D02*
D03*
Y570177D02*
D03*
X97894Y580177D02*
D03*
Y570177D02*
D03*
X87894Y580177D02*
D03*
Y570177D02*
D03*
X77894Y580177D02*
D03*
Y570177D02*
D03*
X67894Y580177D02*
D03*
X92953Y435650D02*
D03*
X82953D02*
D03*
X92953Y445650D02*
D03*
X82953D02*
D03*
X92953Y455650D02*
D03*
X82953D02*
D03*
X92953Y465650D02*
D03*
X82953D02*
D03*
X92953Y475650D02*
D03*
Y501748D02*
D03*
X82953D02*
D03*
X92953Y511748D02*
D03*
X82953D02*
D03*
X92953Y521748D02*
D03*
X82953D02*
D03*
X92953Y531748D02*
D03*
X82953D02*
D03*
X92953Y541748D02*
D03*
D45*
X83110Y409551D02*
D03*
X82953Y475650D02*
D03*
Y541748D02*
D03*
D46*
X121850Y452658D02*
D03*
X26476Y438287D02*
D03*
X21260Y433268D02*
D03*
X25689Y427658D02*
D03*
X39370Y453346D02*
D03*
X148760Y476083D02*
D03*
X156929Y467717D02*
D03*
X149055Y483957D02*
D03*
X135669Y456004D02*
D03*
X39114Y467421D02*
D03*
X36063Y459350D02*
D03*
X84390Y427067D02*
D03*
X81634Y419390D02*
D03*
X73858Y473425D02*
D03*
X46299Y410335D02*
D03*
X53878Y454626D02*
D03*
X51614Y460925D02*
D03*
X48563Y492520D02*
D03*
X73858Y459842D02*
D03*
X118445Y535138D02*
D03*
X121398Y468012D02*
D03*
X128386Y466535D02*
D03*
X135866D02*
D03*
X68150Y441535D02*
D03*
M02*
