G04*
G04 #@! TF.GenerationSoftware,Altium Limited,Altium Designer,19.1.5 (86)*
G04*
G04 Layer_Color=16711935*
%FSLAX25Y25*%
%MOIN*%
G70*
G01*
G75*
%ADD22C,0.16548*%
%ADD23C,0.36233*%
%ADD24C,0.07100*%
%ADD25R,0.06706X0.06706*%
%ADD26C,0.06706*%
%ADD27R,0.06706X0.06706*%
%ADD28C,0.05800*%
D22*
X29134Y532087D02*
D03*
X152756Y533661D02*
D03*
X38583Y372244D02*
D03*
X133071D02*
D03*
D23*
X32471Y567028D02*
D03*
X146814Y567421D02*
D03*
D24*
X141480Y402658D02*
D03*
X122480D02*
D03*
X56677Y402815D02*
D03*
X37677D02*
D03*
D25*
X55709Y511083D02*
D03*
X140354Y512894D02*
D03*
X67894Y570177D02*
D03*
D26*
X55709Y501083D02*
D03*
X45709Y511083D02*
D03*
Y501083D02*
D03*
X35709Y511083D02*
D03*
Y501083D02*
D03*
X140354Y502894D02*
D03*
X130354Y512894D02*
D03*
Y502894D02*
D03*
X120354Y512894D02*
D03*
Y502894D02*
D03*
X93110Y369551D02*
D03*
X83110D02*
D03*
X93110Y379551D02*
D03*
X83110D02*
D03*
X93110Y389551D02*
D03*
X83110D02*
D03*
X93110Y399551D02*
D03*
X83110D02*
D03*
X93110Y409551D02*
D03*
X107894Y580177D02*
D03*
Y570177D02*
D03*
X97894Y580177D02*
D03*
Y570177D02*
D03*
X87894Y580177D02*
D03*
Y570177D02*
D03*
X77894Y580177D02*
D03*
Y570177D02*
D03*
X67894Y580177D02*
D03*
X92953Y435650D02*
D03*
X82953D02*
D03*
X92953Y445650D02*
D03*
X82953D02*
D03*
X92953Y455650D02*
D03*
X82953D02*
D03*
X92953Y465650D02*
D03*
X82953D02*
D03*
X92953Y475650D02*
D03*
Y501748D02*
D03*
X82953D02*
D03*
X92953Y511748D02*
D03*
X82953D02*
D03*
X92953Y521748D02*
D03*
X82953D02*
D03*
X92953Y531748D02*
D03*
X82953D02*
D03*
X92953Y541748D02*
D03*
D27*
X83110Y409551D02*
D03*
X82953Y475650D02*
D03*
Y541748D02*
D03*
D28*
X121850Y452658D02*
D03*
X26476Y438287D02*
D03*
X21260Y433268D02*
D03*
X25689Y427658D02*
D03*
X39370Y453346D02*
D03*
X148760Y476083D02*
D03*
X156929Y467717D02*
D03*
X149055Y483957D02*
D03*
X135669Y456004D02*
D03*
X39114Y467421D02*
D03*
X36063Y459350D02*
D03*
X84390Y427067D02*
D03*
X81634Y419390D02*
D03*
X73858Y473425D02*
D03*
X46299Y410335D02*
D03*
X53878Y454626D02*
D03*
X51614Y460925D02*
D03*
X48563Y492520D02*
D03*
X73858Y459842D02*
D03*
X118445Y535138D02*
D03*
X121398Y468012D02*
D03*
X128386Y466535D02*
D03*
X135866D02*
D03*
X68150Y441535D02*
D03*
M02*
