G04*
G04 #@! TF.GenerationSoftware,Altium Limited,Altium Designer,19.1.5 (86)*
G04*
G04 Layer_Color=65535*
%FSLAX25Y25*%
%MOIN*%
G70*
G01*
G75*
%ADD10C,0.00600*%
%ADD11C,0.00000*%
%ADD12C,0.01000*%
%ADD13C,0.00787*%
%ADD14C,0.00800*%
D10*
X37110Y447842D02*
G03*
X37110Y447842I-1414J0D01*
G01*
X142569Y448629D02*
G03*
X142569Y448629I-1414J0D01*
G01*
X33110Y472028D02*
X59882D01*
Y445256D02*
Y472028D01*
X33110Y445256D02*
X59882D01*
X33110D02*
Y472028D01*
X116969Y446043D02*
Y472815D01*
X143740D01*
Y446043D02*
Y472815D01*
X116969Y446043D02*
X143740D01*
X17144Y459744D02*
X23443D01*
X17144Y444783D02*
Y459744D01*
Y444783D02*
X23443D01*
Y459744D01*
X153779Y486285D02*
X160079D01*
X153779Y471324D02*
Y486285D01*
Y471324D02*
X160079D01*
Y486285D01*
D11*
X32732Y440925D02*
G03*
X32732Y440925I-1000J0D01*
G01*
X149071Y444665D02*
G03*
X149071Y444665I-1000J0D01*
G01*
D12*
X146930Y444095D02*
G03*
X146930Y444095I-769J0D01*
G01*
X31654Y443209D02*
G03*
X31654Y443209I-847J0D01*
G01*
X98654Y561038D02*
X99487Y561871D01*
Y563537D01*
X98654Y564370D01*
X95321D01*
X94488Y563537D01*
Y561871D01*
X95321Y561038D01*
X96987D01*
Y562704D01*
X94488Y559372D02*
X99487D01*
X94488Y556039D01*
X99487D01*
Y554373D02*
X94488D01*
Y551874D01*
X95321Y551041D01*
X98654D01*
X99487Y551874D01*
Y554373D01*
X88417Y561038D02*
X89250Y561871D01*
Y563537D01*
X88417Y564370D01*
X87584D01*
X86751Y563537D01*
Y561871D01*
X85918Y561038D01*
X85085D01*
X84252Y561871D01*
Y563537D01*
X85085Y564370D01*
X89250Y559372D02*
X84252D01*
Y556873D01*
X85085Y556039D01*
X88417D01*
X89250Y556873D01*
Y559372D01*
X84252Y554373D02*
X87584D01*
X89250Y552707D01*
X87584Y551041D01*
X84252D01*
X86751D01*
Y554373D01*
X78969Y561038D02*
X79801Y561871D01*
Y563537D01*
X78969Y564370D01*
X78135D01*
X77302Y563537D01*
Y561871D01*
X76469Y561038D01*
X75636D01*
X74803Y561871D01*
Y563537D01*
X75636Y564370D01*
X78969Y556039D02*
X79801Y556873D01*
Y558539D01*
X78969Y559372D01*
X75636D01*
X74803Y558539D01*
Y556873D01*
X75636Y556039D01*
X79801Y554373D02*
X74803D01*
Y551041D01*
X70746Y560644D02*
Y563976D01*
X68247D01*
X69080Y562310D01*
Y561477D01*
X68247Y560644D01*
X66581D01*
X65748Y561477D01*
Y563143D01*
X66581Y563976D01*
X69080Y558978D02*
X65748Y557312D01*
X69080Y555646D01*
X137734Y540868D02*
X138733Y539868D01*
X140733D01*
X141732Y540868D01*
Y544867D01*
X140733Y545866D01*
X138733D01*
X137734Y544867D01*
Y542867D01*
X139733D01*
X135734Y545866D02*
Y539868D01*
X131736Y545866D01*
Y539868D01*
X129736D02*
Y545866D01*
X126737D01*
X125737Y544867D01*
Y540868D01*
X126737Y539868D01*
X129736D01*
X46395Y538982D02*
X50394D01*
Y541981D01*
X48394Y540982D01*
X47395D01*
X46395Y541981D01*
Y543981D01*
X47395Y544980D01*
X49394D01*
X50394Y543981D01*
X44396Y540982D02*
X42396Y544980D01*
X40397Y540982D01*
X52740Y385006D02*
Y386006D01*
X50741Y388005D01*
X48741Y386006D01*
Y385006D01*
X50741Y388005D02*
Y391004D01*
X42743D02*
X46742D01*
X42743Y387005D01*
Y386006D01*
X43743Y385006D01*
X45742D01*
X46742Y386006D01*
X136260Y384848D02*
Y385848D01*
X134260Y387847D01*
X132261Y385848D01*
Y384848D01*
X134260Y387847D02*
Y390846D01*
X130262D02*
X128262D01*
X129262D01*
Y384848D01*
X130262Y385848D01*
X153750Y495809D02*
X159748D01*
Y492810D01*
X158749Y491810D01*
X156749D01*
X155750Y492810D01*
Y495809D01*
Y493810D02*
X153750Y491810D01*
Y489811D02*
Y487812D01*
Y488811D01*
X159748D01*
X158749Y489811D01*
X18150Y473524D02*
X24148D01*
Y470525D01*
X23148Y469525D01*
X21149D01*
X20149Y470525D01*
Y473524D01*
Y471524D02*
X18150Y469525D01*
Y463527D02*
Y467526D01*
X22148Y463527D01*
X23148D01*
X24148Y464527D01*
Y466526D01*
X23148Y467526D01*
X67300Y417502D02*
X68300Y416502D01*
X70300D01*
X71299Y417502D01*
Y421500D01*
X70300Y422500D01*
X68300D01*
X67300Y421500D01*
X65301Y417502D02*
X64302Y416502D01*
X62302D01*
X61302Y417502D01*
Y418501D01*
X62302Y419501D01*
X61302Y420501D01*
Y421500D01*
X62302Y422500D01*
X64302D01*
X65301Y421500D01*
Y420501D01*
X64302Y419501D01*
X65301Y418501D01*
Y417502D01*
X64302Y419501D02*
X62302D01*
X25962Y417462D02*
X26962Y416463D01*
X28961D01*
X29961Y417462D01*
Y421461D01*
X28961Y422461D01*
X26962D01*
X25962Y421461D01*
X23963Y416463D02*
X19964D01*
Y417462D01*
X23963Y421461D01*
Y422461D01*
X153757Y417502D02*
X154757Y416502D01*
X156756D01*
X157756Y417502D01*
Y421500D01*
X156756Y422500D01*
X154757D01*
X153757Y421500D01*
X147759Y416502D02*
X149759Y417502D01*
X151758Y419501D01*
Y421500D01*
X150758Y422500D01*
X148759D01*
X147759Y421500D01*
Y420501D01*
X148759Y419501D01*
X151758D01*
X111277Y417541D02*
X112276Y416541D01*
X114276D01*
X115276Y417541D01*
Y421540D01*
X114276Y422539D01*
X112276D01*
X111277Y421540D01*
X105279Y416541D02*
X109277D01*
Y419540D01*
X107278Y418541D01*
X106279D01*
X105279Y419540D01*
Y421540D01*
X106279Y422539D01*
X108278D01*
X109277Y421540D01*
X105825Y472281D02*
X106825Y473280D01*
Y475280D01*
X105825Y476279D01*
X101826D01*
X100827Y475280D01*
Y473280D01*
X101826Y472281D01*
X100827Y467282D02*
X106825D01*
X103826Y470282D01*
Y466283D01*
X55056Y429844D02*
X56056Y428844D01*
X58055D01*
X59055Y429844D01*
Y433843D01*
X58055Y434842D01*
X56056D01*
X55056Y433843D01*
X53057Y429844D02*
X52057Y428844D01*
X50058D01*
X49058Y429844D01*
Y430844D01*
X50058Y431844D01*
X51058D01*
X50058D01*
X49058Y432843D01*
Y433843D01*
X50058Y434842D01*
X52057D01*
X53057Y433843D01*
X34505Y482502D02*
X35505Y481502D01*
X37504D01*
X38504Y482502D01*
Y486500D01*
X37504Y487500D01*
X35505D01*
X34505Y486500D01*
X28507Y487500D02*
X32506D01*
X28507Y483501D01*
Y482502D01*
X29507Y481502D01*
X31506D01*
X32506Y482502D01*
X158817Y444092D02*
X159817Y445091D01*
Y447091D01*
X158817Y448091D01*
X154819D01*
X153819Y447091D01*
Y445091D01*
X154819Y444092D01*
X153819Y442093D02*
Y440093D01*
Y441093D01*
X159817D01*
X158817Y442093D01*
D13*
X51730Y567028D02*
G03*
X51730Y567028I-19259J0D01*
G01*
X166074Y567421D02*
G03*
X166074Y567421I-19259J0D01*
G01*
X154480Y402658D02*
G03*
X144980Y412157I-9500J0D01*
G01*
X118980D02*
G03*
X109480Y402658I0J-9500D01*
G01*
D02*
G03*
X118980Y393158I9500J0D01*
G01*
X144980D02*
G03*
X154480Y402658I0J9500D01*
G01*
X69677Y402815D02*
G03*
X60177Y412315I-9500J0D01*
G01*
X34177D02*
G03*
X24677Y402815I0J-9500D01*
G01*
D02*
G03*
X34177Y393315I9500J0D01*
G01*
X60177D02*
G03*
X69677Y402815I0J9500D01*
G01*
X118980Y412157D02*
X144980D01*
X118980Y393158D02*
X144980D01*
X34177Y412315D02*
X60177D01*
X34177Y393315D02*
X60177D01*
X59347Y415059D02*
Y422106D01*
X46473D02*
X59347D01*
X46473Y415059D02*
Y422106D01*
Y415059D02*
X59347D01*
X31811Y415020D02*
Y422067D01*
Y415020D02*
X44685D01*
Y422067D01*
X31811D02*
X44685D01*
X145804Y415059D02*
Y422106D01*
X132930D02*
X145804D01*
X132930Y415059D02*
Y422106D01*
Y415059D02*
X145804D01*
X118268D02*
Y422106D01*
Y415059D02*
X131142D01*
Y422106D01*
X118268D02*
X131142D01*
X100160Y463445D02*
X107208D01*
X100160Y450571D02*
Y463445D01*
Y450571D02*
X107208D01*
Y463445D01*
X153501Y463957D02*
X160548D01*
X153501Y451083D02*
Y463957D01*
Y451083D02*
X160548D01*
Y463957D01*
X54370Y481988D02*
Y489035D01*
X41496D02*
X54370D01*
X41496Y481988D02*
Y489035D01*
Y481988D02*
X54370D01*
X47638Y428448D02*
Y435495D01*
X34764D02*
X47638D01*
X34764Y428448D02*
Y435495D01*
Y428448D02*
X47638D01*
X30709Y496083D02*
Y516083D01*
X60709Y496083D02*
Y516083D01*
X30709Y496083D02*
X60709D01*
X30709Y516083D02*
X60709D01*
X30709D02*
X49875D01*
X115354Y497894D02*
Y517894D01*
X145354Y497894D02*
Y517894D01*
X115354Y497894D02*
X145354D01*
X115354Y517894D02*
X145354D01*
X115354D02*
X134521D01*
X78110Y364551D02*
Y414551D01*
X98110Y364551D02*
Y414551D01*
X78110D02*
X98110D01*
X78110Y364551D02*
X98110D01*
X62894Y565177D02*
X112894D01*
X62894Y585177D02*
X112894D01*
X62894Y565177D02*
Y585177D01*
X112894Y565177D02*
Y585177D01*
X77953Y430650D02*
Y480650D01*
X97953Y430650D02*
Y480650D01*
X77953D02*
X97953D01*
X77953Y430650D02*
X97953D01*
X77953Y496748D02*
Y546748D01*
X97953Y496748D02*
Y546748D01*
X77953D02*
X97953D01*
X77953Y496748D02*
X97953D01*
D14*
X26376Y498084D02*
X28043Y498917D01*
X29709Y500584D01*
Y502250D01*
X28876Y503083D01*
X27209D01*
X26376Y502250D01*
Y501417D01*
X27209Y500584D01*
X29709D01*
X26376Y508084D02*
X29709D01*
Y510583D01*
X28043Y509750D01*
X27209D01*
X26376Y510583D01*
Y512250D01*
X27209Y513083D01*
X28876D01*
X29709Y512250D01*
X62376Y503083D02*
X65709D01*
X62376Y499750D01*
Y498917D01*
X63209Y498084D01*
X64876D01*
X65709Y498917D01*
X63709Y513083D02*
X62042D01*
X62876D01*
Y508084D01*
X63709Y508917D01*
X111022Y499895D02*
X112688Y500728D01*
X114354Y502394D01*
Y504061D01*
X113521Y504894D01*
X111855D01*
X111022Y504061D01*
Y503228D01*
X111855Y502394D01*
X114354D01*
X111022Y509895D02*
X114354D01*
Y512395D01*
X112688Y511561D01*
X111855D01*
X111022Y512395D01*
Y514061D01*
X111855Y514894D01*
X113521D01*
X114354Y514061D01*
X147022Y504894D02*
X150354D01*
X147022Y501561D01*
Y500728D01*
X147855Y499895D01*
X149521D01*
X150354Y500728D01*
X148354Y514894D02*
X146688D01*
X147521D01*
Y509895D01*
X148354Y510728D01*
X113894Y578177D02*
X115560D01*
X114727D01*
Y583176D01*
X113894Y582342D01*
X118059D02*
X118892Y583176D01*
X120558D01*
X121391Y582342D01*
Y579010D01*
X120558Y578177D01*
X118892D01*
X118059Y579010D01*
Y582342D01*
X113894Y569010D02*
X114727Y568177D01*
X116393D01*
X117226Y569010D01*
Y572342D01*
X116393Y573176D01*
X114727D01*
X113894Y572342D01*
Y571509D01*
X114727Y570676D01*
X117226D01*
X59894Y568177D02*
X61560D01*
X60727D01*
Y573176D01*
X59894Y572342D01*
X61226Y578177D02*
X57894D01*
X61226Y581509D01*
Y582342D01*
X60393Y583176D01*
X58727D01*
X57894Y582342D01*
M02*
