M48
;Layer_Color=9474304
;FILE_FORMAT=2:5
INCH,LZ
;TYPE=PLATED
T1F00S00C0.02500
T2F00S00C0.03200
T3F00S00C0.03543
T4F00S00C0.11811
T5F00S00C0.23622
%
T01
X0025689Y0427658
X002126Y0433268
X0026476Y0438287
X003937Y0453346
X0036063Y045935
X0039114Y0467421
X0051614Y0460925
X0053878Y0454626
X0073858Y0459842
X006815Y0441535
X008439Y0427067
X0081634Y041939
X0046299Y0410335
X012185Y0452658
X0121398Y0468012
X0128386Y0466535
X0135866
X0135669Y0456004
X0156929Y0467717
X014876Y0476083
X0149055Y0483957
X0118445Y0535138
X0073858Y0473425
X0048563Y049252
T02
X0037677Y0402815
X0056677
X012248Y0402658
X014148
T03
X008311Y0369551
X009311
Y0379551
X008311
Y0389551
X009311
Y0399551
X008311
Y0409551
X009311
X0092953Y043565
X0082953
Y044565
X0092953
Y045565
X0082953
Y046565
X0092953
Y047565
X0082953
Y0501748
X0092953
Y0511748
X0082953
Y0521748
X0092953
Y0531748
X0082953
Y0541748
X0092953
X0097894Y0570177
X0107894
Y0580177
X0097894
X0087894
Y0570177
X0077894
Y0580177
X0067894
Y0570177
X0055709Y0511083
Y0501083
X0045709
Y0511083
X0035709
Y0501083
X0120354Y0502894
X0130354
X0140354
Y0512894
X0130354
X0120354
T04
X0038583Y0372244
X0133071
X0152756Y0533661
X0029134Y0532087
T05
X0032471Y0567028
X0146814Y0567421
M30
