G04*
G04 #@! TF.GenerationSoftware,Altium Limited,Altium Designer,19.1.5 (86)*
G04*
G04 Layer_Color=8388736*
%FSLAX25Y25*%
%MOIN*%
G70*
G01*
G75*
%ADD15R,0.02965X0.06706*%
%ADD16R,0.06706X0.02965*%
%ADD17R,0.06706X0.02965*%
%ADD18R,0.02965X0.06706*%
%ADD19R,0.04737X0.05918*%
%ADD20R,0.05800X0.05800*%
%ADD21R,0.05918X0.04737*%
%ADD22C,0.16548*%
%ADD23C,0.36233*%
%ADD24C,0.07100*%
%ADD25R,0.06706X0.06706*%
%ADD26C,0.06706*%
%ADD27R,0.06706X0.06706*%
%ADD28C,0.05800*%
D15*
X35472Y441713D02*
D03*
X38622D02*
D03*
X41772D02*
D03*
X44921D02*
D03*
X48071D02*
D03*
X51221D02*
D03*
X54370D02*
D03*
X57520D02*
D03*
Y475571D02*
D03*
X54370D02*
D03*
X51221D02*
D03*
X48071D02*
D03*
X44921D02*
D03*
X41772D02*
D03*
X38622D02*
D03*
X35472D02*
D03*
D16*
X63425Y447618D02*
D03*
Y450768D02*
D03*
Y453917D02*
D03*
Y457067D02*
D03*
Y460217D02*
D03*
Y463366D02*
D03*
Y466516D02*
D03*
Y469665D02*
D03*
X29567D02*
D03*
Y466516D02*
D03*
Y463366D02*
D03*
Y460217D02*
D03*
Y457067D02*
D03*
Y453917D02*
D03*
Y450768D02*
D03*
Y447618D02*
D03*
D17*
X147283Y448406D02*
D03*
Y451555D02*
D03*
Y454705D02*
D03*
Y457854D02*
D03*
Y461004D02*
D03*
Y464153D02*
D03*
Y467303D02*
D03*
Y470453D02*
D03*
X113425D02*
D03*
Y467303D02*
D03*
Y464153D02*
D03*
Y461004D02*
D03*
Y457854D02*
D03*
Y454705D02*
D03*
Y451555D02*
D03*
Y448406D02*
D03*
D18*
X141378Y476358D02*
D03*
X138228D02*
D03*
X135079D02*
D03*
X131929D02*
D03*
X128779D02*
D03*
X125630D02*
D03*
X122480D02*
D03*
X119331D02*
D03*
Y442500D02*
D03*
X122480D02*
D03*
X125630D02*
D03*
X128779D02*
D03*
X131929D02*
D03*
X135079D02*
D03*
X138228D02*
D03*
X141378D02*
D03*
D19*
X56434Y418563D02*
D03*
X49387Y418602D02*
D03*
X34724Y418563D02*
D03*
X41772Y418524D02*
D03*
X142891Y418563D02*
D03*
X135844Y418602D02*
D03*
X121181D02*
D03*
X128228Y418563D02*
D03*
X51457Y485492D02*
D03*
X44409Y485532D02*
D03*
X44724Y431952D02*
D03*
X37677Y431991D02*
D03*
D20*
X20293Y456333D02*
D03*
Y447933D02*
D03*
X156929Y482874D02*
D03*
Y474474D02*
D03*
D21*
X103704Y460532D02*
D03*
X103664Y453484D02*
D03*
X157044Y461043D02*
D03*
X157005Y453996D02*
D03*
D22*
X29134Y532087D02*
D03*
X152756Y533661D02*
D03*
X38583Y372244D02*
D03*
X133071D02*
D03*
D23*
X32471Y567028D02*
D03*
X146814Y567421D02*
D03*
D24*
X141480Y402658D02*
D03*
X122480D02*
D03*
X56677Y402815D02*
D03*
X37677D02*
D03*
D25*
X55709Y511083D02*
D03*
X140354Y512894D02*
D03*
X67894Y570177D02*
D03*
D26*
X55709Y501083D02*
D03*
X45709Y511083D02*
D03*
Y501083D02*
D03*
X35709Y511083D02*
D03*
Y501083D02*
D03*
X140354Y502894D02*
D03*
X130354Y512894D02*
D03*
Y502894D02*
D03*
X120354Y512894D02*
D03*
Y502894D02*
D03*
X93110Y369551D02*
D03*
X83110D02*
D03*
X93110Y379551D02*
D03*
X83110D02*
D03*
X93110Y389551D02*
D03*
X83110D02*
D03*
X93110Y399551D02*
D03*
X83110D02*
D03*
X93110Y409551D02*
D03*
X107894Y580177D02*
D03*
Y570177D02*
D03*
X97894Y580177D02*
D03*
Y570177D02*
D03*
X87894Y580177D02*
D03*
Y570177D02*
D03*
X77894Y580177D02*
D03*
Y570177D02*
D03*
X67894Y580177D02*
D03*
X92953Y435650D02*
D03*
X82953D02*
D03*
X92953Y445650D02*
D03*
X82953D02*
D03*
X92953Y455650D02*
D03*
X82953D02*
D03*
X92953Y465650D02*
D03*
X82953D02*
D03*
X92953Y475650D02*
D03*
Y501748D02*
D03*
X82953D02*
D03*
X92953Y511748D02*
D03*
X82953D02*
D03*
X92953Y521748D02*
D03*
X82953D02*
D03*
X92953Y531748D02*
D03*
X82953D02*
D03*
X92953Y541748D02*
D03*
D27*
X83110Y409551D02*
D03*
X82953Y475650D02*
D03*
Y541748D02*
D03*
D28*
X121850Y452658D02*
D03*
X26476Y438287D02*
D03*
X21260Y433268D02*
D03*
X25689Y427658D02*
D03*
X39370Y453346D02*
D03*
X148760Y476083D02*
D03*
X156929Y467717D02*
D03*
X149055Y483957D02*
D03*
X135669Y456004D02*
D03*
X39114Y467421D02*
D03*
X36063Y459350D02*
D03*
X84390Y427067D02*
D03*
X81634Y419390D02*
D03*
X73858Y473425D02*
D03*
X46299Y410335D02*
D03*
X53878Y454626D02*
D03*
X51614Y460925D02*
D03*
X48563Y492520D02*
D03*
X73858Y459842D02*
D03*
X118445Y535138D02*
D03*
X121398Y468012D02*
D03*
X128386Y466535D02*
D03*
X135866D02*
D03*
X68150Y441535D02*
D03*
M02*
