M48
;Layer_Color=9474304
;FILE_FORMAT=2:5
INCH,LZ
;TYPE=PLATED
T1F00S00C0.03000
T2F00S00C0.03543
T3F00S00C0.11811
%
T01
X00605Y0014232
X00705
X00805
X00905
X01005
X01105
X01205
X01305
Y0104232
X01205
X01105
X01005
X00905
X00805
X00705
X00605
T02
X0024673Y0044469
Y0054469
Y0064468
Y0074468
X0101051Y0029035
X0111051
T03
X0043307Y0019685
Y0098425
X0130185Y0057382
M30
