G04*
G04 #@! TF.GenerationSoftware,Altium Limited,Altium Designer,19.1.5 (86)*
G04*
G04 Layer_Physical_Order=2*
G04 Layer_Color=16711680*
%FSLAX25Y25*%
%MOIN*%
G70*
G01*
G75*
%ADD10C,0.01000*%
%ADD18C,0.05906*%
%ADD19R,0.05906X0.05906*%
%ADD20C,0.06000*%
%ADD21C,0.04528*%
%ADD22R,0.04528X0.04528*%
%ADD23C,0.02000*%
G36*
X99410Y7874D02*
X4292D01*
X3941Y8229D01*
X4610Y75196D01*
X5110Y75194D01*
Y72238D01*
X7874D01*
Y75502D01*
Y78765D01*
X5146D01*
X4647Y78853D01*
X4921Y106299D01*
X4921Y106299D01*
X25567D01*
Y44189D01*
X22364Y40986D01*
X17226D01*
X17127Y41486D01*
X17591Y41679D01*
X18148Y42105D01*
X18575Y42662D01*
X18843Y43310D01*
X18935Y44005D01*
X18843Y44701D01*
X18575Y45349D01*
X18148Y45905D01*
X17591Y46332D01*
X16943Y46601D01*
X16248Y46692D01*
X15553Y46601D01*
X14905Y46332D01*
X14348Y45905D01*
X13921Y45349D01*
X13653Y44701D01*
X13561Y44005D01*
X13653Y43310D01*
X13921Y42662D01*
X14348Y42105D01*
X14905Y41679D01*
X15370Y41486D01*
X15270Y40986D01*
X12311D01*
X11960Y40916D01*
X11662Y40717D01*
X9495Y38550D01*
X9069Y38727D01*
X8374Y38818D01*
X7679Y38727D01*
X7031Y38458D01*
X6474Y38031D01*
X6047Y37475D01*
X5779Y36827D01*
X5687Y36131D01*
X5779Y35436D01*
X6047Y34788D01*
X6474Y34231D01*
X7031Y33805D01*
X7679Y33536D01*
X8374Y33445D01*
X9069Y33536D01*
X9717Y33805D01*
X10274Y34231D01*
X10701Y34788D01*
X10969Y35436D01*
X11061Y36131D01*
X10969Y36827D01*
X10793Y37253D01*
X12691Y39151D01*
X14000D01*
X14170Y38651D01*
X13920Y38459D01*
X13397Y37777D01*
X13068Y36983D01*
X13022Y36631D01*
X19474D01*
X19428Y36983D01*
X19099Y37777D01*
X18576Y38459D01*
X18326Y38651D01*
X18496Y39151D01*
X22744D01*
X23095Y39221D01*
X23393Y39419D01*
X27133Y43160D01*
X27332Y43457D01*
X27402Y43808D01*
Y106299D01*
X47530D01*
X50254Y103575D01*
Y98077D01*
X49966Y97958D01*
X49256Y97413D01*
X48711Y96703D01*
X48369Y95876D01*
X48252Y94988D01*
X48369Y94101D01*
X48711Y93274D01*
X49256Y92563D01*
X49966Y92018D01*
X50793Y91676D01*
X51681Y91559D01*
X52569Y91676D01*
X53396Y92018D01*
X54106Y92563D01*
X54651Y93274D01*
X54993Y94101D01*
X55110Y94988D01*
X54993Y95876D01*
X54651Y96703D01*
X54106Y97413D01*
X53396Y97958D01*
X53109Y98077D01*
Y104166D01*
X53000Y104713D01*
X52690Y105176D01*
X52690Y105176D01*
X52029Y105837D01*
X52220Y106299D01*
X99410D01*
Y7874D01*
D02*
G37*
%LPC*%
G36*
X11638Y78765D02*
X8874D01*
Y76002D01*
X11638D01*
Y78765D01*
D02*
G37*
G36*
X94988Y78188D02*
X94293Y78097D01*
X93645Y77828D01*
X93088Y77401D01*
X92661Y76845D01*
X92393Y76197D01*
X92301Y75502D01*
X92393Y74806D01*
X92661Y74158D01*
X93088Y73602D01*
X93645Y73175D01*
X94293Y72906D01*
X94988Y72815D01*
X95684Y72906D01*
X96332Y73175D01*
X96888Y73602D01*
X97315Y74158D01*
X97583Y74806D01*
X97675Y75502D01*
X97583Y76197D01*
X97315Y76845D01*
X96888Y77401D01*
X96332Y77828D01*
X95684Y78097D01*
X94988Y78188D01*
D02*
G37*
G36*
X87114Y78188D02*
X86419Y78097D01*
X85771Y77828D01*
X85214Y77401D01*
X84787Y76845D01*
X84519Y76197D01*
X84427Y75501D01*
X84519Y74806D01*
X84787Y74158D01*
X85214Y73602D01*
X85771Y73175D01*
X86419Y72906D01*
X87114Y72815D01*
X87810Y72906D01*
X88458Y73175D01*
X89014Y73602D01*
X89441Y74158D01*
X89709Y74806D01*
X89801Y75501D01*
X89709Y76197D01*
X89441Y76845D01*
X89014Y77401D01*
X88458Y77828D01*
X87810Y78097D01*
X87114Y78188D01*
D02*
G37*
G36*
X16248D02*
X15553Y78097D01*
X14905Y77828D01*
X14348Y77401D01*
X13921Y76845D01*
X13653Y76197D01*
X13561Y75501D01*
X13653Y74806D01*
X13921Y74158D01*
X14348Y73602D01*
X14905Y73175D01*
X15553Y72906D01*
X16248Y72815D01*
X16943Y72906D01*
X17591Y73175D01*
X18148Y73602D01*
X18575Y74158D01*
X18843Y74806D01*
X18935Y75501D01*
X18843Y76197D01*
X18575Y76845D01*
X18148Y77401D01*
X17591Y77828D01*
X16943Y78097D01*
X16248Y78188D01*
D02*
G37*
G36*
X11638Y75002D02*
X8874D01*
Y72238D01*
X11638D01*
Y75002D01*
D02*
G37*
G36*
X94988Y70314D02*
X94293Y70223D01*
X93645Y69954D01*
X93088Y69527D01*
X92661Y68971D01*
X92393Y68323D01*
X92301Y67627D01*
X92393Y66932D01*
X92661Y66284D01*
X93088Y65728D01*
X93645Y65301D01*
X94293Y65032D01*
X94988Y64941D01*
X95684Y65032D01*
X96332Y65301D01*
X96888Y65728D01*
X97315Y66284D01*
X97583Y66932D01*
X97675Y67627D01*
X97583Y68323D01*
X97315Y68971D01*
X96888Y69527D01*
X96332Y69954D01*
X95684Y70223D01*
X94988Y70314D01*
D02*
G37*
G36*
X8374D02*
X7679Y70223D01*
X7031Y69954D01*
X6474Y69527D01*
X6047Y68971D01*
X5779Y68323D01*
X5687Y67627D01*
X5779Y66932D01*
X6047Y66284D01*
X6474Y65728D01*
X7031Y65301D01*
X7679Y65032D01*
X8374Y64941D01*
X9069Y65032D01*
X9717Y65301D01*
X10274Y65728D01*
X10701Y66284D01*
X10969Y66932D01*
X11061Y67627D01*
X10969Y68323D01*
X10701Y68971D01*
X10274Y69527D01*
X9717Y69954D01*
X9069Y70223D01*
X8374Y70314D01*
D02*
G37*
G36*
X87114Y70314D02*
X86419Y70223D01*
X85771Y69954D01*
X85214Y69527D01*
X84787Y68971D01*
X84519Y68323D01*
X84427Y67627D01*
X84519Y66932D01*
X84787Y66284D01*
X85214Y65728D01*
X85771Y65301D01*
X86419Y65032D01*
X87114Y64941D01*
X87810Y65032D01*
X88458Y65301D01*
X89014Y65728D01*
X89441Y66284D01*
X89709Y66932D01*
X89801Y67627D01*
X89709Y68323D01*
X89441Y68971D01*
X89014Y69527D01*
X88458Y69954D01*
X87810Y70223D01*
X87114Y70314D01*
D02*
G37*
G36*
X16248D02*
X15553Y70223D01*
X14905Y69954D01*
X14348Y69527D01*
X13921Y68971D01*
X13653Y68323D01*
X13561Y67627D01*
X13653Y66932D01*
X13921Y66284D01*
X14348Y65728D01*
X14905Y65301D01*
X15553Y65032D01*
X16248Y64941D01*
X16943Y65032D01*
X17591Y65301D01*
X18148Y65728D01*
X18575Y66284D01*
X18843Y66932D01*
X18935Y67627D01*
X18843Y68323D01*
X18575Y68971D01*
X18148Y69527D01*
X17591Y69954D01*
X16943Y70223D01*
X16248Y70314D01*
D02*
G37*
G36*
X94988Y62440D02*
X94293Y62349D01*
X93645Y62080D01*
X93088Y61653D01*
X92661Y61097D01*
X92393Y60449D01*
X92301Y59753D01*
X92393Y59058D01*
X92661Y58410D01*
X93088Y57854D01*
X93645Y57427D01*
X94293Y57158D01*
X94988Y57067D01*
X95684Y57158D01*
X96332Y57427D01*
X96888Y57854D01*
X97315Y58410D01*
X97583Y59058D01*
X97675Y59753D01*
X97583Y60449D01*
X97315Y61097D01*
X96888Y61653D01*
X96332Y62080D01*
X95684Y62349D01*
X94988Y62440D01*
D02*
G37*
G36*
X8374D02*
X7679Y62349D01*
X7031Y62080D01*
X6474Y61653D01*
X6047Y61097D01*
X5779Y60449D01*
X5687Y59753D01*
X5779Y59058D01*
X6047Y58410D01*
X6474Y57854D01*
X7031Y57427D01*
X7679Y57158D01*
X8374Y57067D01*
X9069Y57158D01*
X9717Y57427D01*
X10274Y57854D01*
X10701Y58410D01*
X10969Y59058D01*
X11061Y59753D01*
X10969Y60449D01*
X10701Y61097D01*
X10274Y61653D01*
X9717Y62080D01*
X9069Y62349D01*
X8374Y62440D01*
D02*
G37*
G36*
X87114Y62440D02*
X86419Y62349D01*
X85771Y62080D01*
X85214Y61653D01*
X84787Y61097D01*
X84519Y60449D01*
X84427Y59753D01*
X84519Y59058D01*
X84787Y58410D01*
X85214Y57854D01*
X85771Y57427D01*
X86419Y57158D01*
X87114Y57067D01*
X87810Y57158D01*
X88458Y57427D01*
X89014Y57854D01*
X89441Y58410D01*
X89709Y59058D01*
X89801Y59753D01*
X89709Y60449D01*
X89441Y61097D01*
X89014Y61653D01*
X88458Y62080D01*
X87810Y62349D01*
X87114Y62440D01*
D02*
G37*
G36*
X16248D02*
X15553Y62349D01*
X14905Y62080D01*
X14348Y61653D01*
X13921Y61097D01*
X13653Y60449D01*
X13561Y59753D01*
X13653Y59058D01*
X13921Y58410D01*
X14348Y57854D01*
X14905Y57427D01*
X15553Y57158D01*
X16248Y57067D01*
X16943Y57158D01*
X17591Y57427D01*
X18148Y57854D01*
X18575Y58410D01*
X18843Y59058D01*
X18935Y59753D01*
X18843Y60449D01*
X18575Y61097D01*
X18148Y61653D01*
X17591Y62080D01*
X16943Y62349D01*
X16248Y62440D01*
D02*
G37*
G36*
X94988Y54566D02*
X94293Y54475D01*
X93645Y54206D01*
X93088Y53779D01*
X92661Y53223D01*
X92393Y52575D01*
X92301Y51879D01*
X92393Y51184D01*
X92661Y50536D01*
X93088Y49980D01*
X93645Y49553D01*
X94293Y49284D01*
X94988Y49193D01*
X95684Y49284D01*
X96332Y49553D01*
X96888Y49980D01*
X97315Y50536D01*
X97583Y51184D01*
X97675Y51879D01*
X97583Y52575D01*
X97315Y53223D01*
X96888Y53779D01*
X96332Y54206D01*
X95684Y54475D01*
X94988Y54566D01*
D02*
G37*
G36*
X8374D02*
X7679Y54475D01*
X7031Y54206D01*
X6474Y53779D01*
X6047Y53223D01*
X5779Y52575D01*
X5687Y51879D01*
X5779Y51184D01*
X6047Y50536D01*
X6474Y49980D01*
X7031Y49553D01*
X7679Y49284D01*
X8374Y49193D01*
X9069Y49284D01*
X9717Y49553D01*
X10274Y49980D01*
X10701Y50536D01*
X10969Y51184D01*
X11061Y51879D01*
X10969Y52575D01*
X10701Y53223D01*
X10274Y53779D01*
X9717Y54206D01*
X9069Y54475D01*
X8374Y54566D01*
D02*
G37*
G36*
X87114Y54566D02*
X86419Y54475D01*
X85771Y54206D01*
X85214Y53779D01*
X84787Y53223D01*
X84519Y52575D01*
X84427Y51879D01*
X84519Y51184D01*
X84787Y50536D01*
X85214Y49979D01*
X85771Y49553D01*
X86419Y49284D01*
X87114Y49193D01*
X87810Y49284D01*
X88458Y49553D01*
X89014Y49979D01*
X89441Y50536D01*
X89709Y51184D01*
X89801Y51879D01*
X89709Y52575D01*
X89441Y53223D01*
X89014Y53779D01*
X88458Y54206D01*
X87810Y54475D01*
X87114Y54566D01*
D02*
G37*
G36*
X16248D02*
X15553Y54475D01*
X14905Y54206D01*
X14348Y53779D01*
X13921Y53223D01*
X13653Y52575D01*
X13561Y51879D01*
X13653Y51184D01*
X13921Y50536D01*
X14348Y49979D01*
X14905Y49553D01*
X15553Y49284D01*
X16248Y49193D01*
X16943Y49284D01*
X17591Y49553D01*
X18148Y49979D01*
X18575Y50536D01*
X18843Y51184D01*
X18935Y51879D01*
X18843Y52575D01*
X18575Y53223D01*
X18148Y53779D01*
X17591Y54206D01*
X16943Y54475D01*
X16248Y54566D01*
D02*
G37*
G36*
X94988Y46692D02*
X94293Y46601D01*
X93645Y46332D01*
X93088Y45905D01*
X92661Y45349D01*
X92393Y44701D01*
X92301Y44005D01*
X92393Y43310D01*
X92661Y42662D01*
X93088Y42105D01*
X93645Y41679D01*
X94293Y41410D01*
X94988Y41319D01*
X95684Y41410D01*
X96332Y41679D01*
X96888Y42105D01*
X97315Y42662D01*
X97583Y43310D01*
X97675Y44005D01*
X97583Y44701D01*
X97315Y45349D01*
X96888Y45905D01*
X96332Y46332D01*
X95684Y46601D01*
X94988Y46692D01*
D02*
G37*
G36*
X8374D02*
X7679Y46601D01*
X7031Y46332D01*
X6474Y45905D01*
X6047Y45349D01*
X5779Y44701D01*
X5687Y44005D01*
X5779Y43310D01*
X6047Y42662D01*
X6474Y42105D01*
X7031Y41679D01*
X7679Y41410D01*
X8374Y41319D01*
X9069Y41410D01*
X9717Y41679D01*
X10274Y42105D01*
X10701Y42662D01*
X10969Y43310D01*
X11061Y44005D01*
X10969Y44701D01*
X10701Y45349D01*
X10274Y45905D01*
X9717Y46332D01*
X9069Y46601D01*
X8374Y46692D01*
D02*
G37*
G36*
X87114Y46692D02*
X86419Y46601D01*
X85771Y46332D01*
X85214Y45905D01*
X84787Y45349D01*
X84519Y44701D01*
X84427Y44005D01*
X84519Y43310D01*
X84787Y42662D01*
X85214Y42105D01*
X85771Y41679D01*
X86419Y41410D01*
X87114Y41319D01*
X87810Y41410D01*
X88458Y41679D01*
X89014Y42105D01*
X89441Y42662D01*
X89709Y43310D01*
X89801Y44005D01*
X89709Y44701D01*
X89441Y45349D01*
X89014Y45905D01*
X88458Y46332D01*
X87810Y46601D01*
X87114Y46692D01*
D02*
G37*
G36*
X94988Y38818D02*
X94293Y38727D01*
X93645Y38458D01*
X93088Y38031D01*
X92661Y37475D01*
X92393Y36827D01*
X92301Y36131D01*
X92393Y35436D01*
X92661Y34788D01*
X93088Y34231D01*
X93645Y33805D01*
X94293Y33536D01*
X94988Y33445D01*
X95684Y33536D01*
X96332Y33805D01*
X96888Y34231D01*
X97315Y34788D01*
X97583Y35436D01*
X97675Y36131D01*
X97583Y36827D01*
X97315Y37475D01*
X96888Y38031D01*
X96332Y38458D01*
X95684Y38727D01*
X94988Y38818D01*
D02*
G37*
G36*
X87114Y38818D02*
X86419Y38726D01*
X85771Y38458D01*
X85214Y38031D01*
X84787Y37475D01*
X84519Y36827D01*
X84427Y36131D01*
X84519Y35436D01*
X84787Y34788D01*
X85214Y34231D01*
X85771Y33805D01*
X86419Y33536D01*
X87114Y33444D01*
X87810Y33536D01*
X88458Y33805D01*
X89014Y34231D01*
X89441Y34788D01*
X89709Y35436D01*
X89801Y36131D01*
X89709Y36827D01*
X89441Y37475D01*
X89014Y38031D01*
X88458Y38458D01*
X87810Y38726D01*
X87114Y38818D01*
D02*
G37*
G36*
X19474Y35631D02*
X16748D01*
Y32905D01*
X17100Y32952D01*
X17894Y33280D01*
X18576Y33804D01*
X19099Y34485D01*
X19428Y35279D01*
X19474Y35631D01*
D02*
G37*
G36*
X15748D02*
X13022D01*
X13068Y35279D01*
X13397Y34485D01*
X13920Y33804D01*
X14602Y33280D01*
X15396Y32952D01*
X15748Y32905D01*
Y35631D01*
D02*
G37*
G36*
X94988Y30944D02*
X94293Y30853D01*
X93645Y30584D01*
X93088Y30157D01*
X92661Y29601D01*
X92393Y28953D01*
X92301Y28257D01*
X92393Y27562D01*
X92661Y26914D01*
X93088Y26357D01*
X93645Y25931D01*
X94293Y25662D01*
X94988Y25571D01*
X95684Y25662D01*
X96332Y25931D01*
X96888Y26357D01*
X97315Y26914D01*
X97583Y27562D01*
X97675Y28257D01*
X97583Y28953D01*
X97315Y29601D01*
X96888Y30157D01*
X96332Y30584D01*
X95684Y30853D01*
X94988Y30944D01*
D02*
G37*
G36*
X8374D02*
X7679Y30853D01*
X7031Y30584D01*
X6474Y30157D01*
X6047Y29601D01*
X5779Y28953D01*
X5687Y28257D01*
X5779Y27562D01*
X6047Y26914D01*
X6474Y26357D01*
X7031Y25931D01*
X7679Y25662D01*
X8374Y25571D01*
X9069Y25662D01*
X9717Y25931D01*
X10274Y26357D01*
X10701Y26914D01*
X10969Y27562D01*
X11061Y28257D01*
X10969Y28953D01*
X10701Y29601D01*
X10274Y30157D01*
X9717Y30584D01*
X9069Y30853D01*
X8374Y30944D01*
D02*
G37*
G36*
X87114Y30944D02*
X86419Y30852D01*
X85771Y30584D01*
X85214Y30157D01*
X84787Y29601D01*
X84519Y28953D01*
X84427Y28257D01*
X84519Y27562D01*
X84787Y26914D01*
X85214Y26357D01*
X85771Y25931D01*
X86419Y25662D01*
X87114Y25570D01*
X87810Y25662D01*
X88458Y25931D01*
X89014Y26357D01*
X89441Y26914D01*
X89709Y27562D01*
X89801Y28257D01*
X89709Y28953D01*
X89441Y29601D01*
X89014Y30157D01*
X88458Y30584D01*
X87810Y30852D01*
X87114Y30944D01*
D02*
G37*
G36*
X16248D02*
X15553Y30852D01*
X14905Y30584D01*
X14348Y30157D01*
X13921Y29601D01*
X13653Y28953D01*
X13561Y28257D01*
X13653Y27562D01*
X13921Y26914D01*
X14348Y26357D01*
X14905Y25931D01*
X15553Y25662D01*
X16248Y25570D01*
X16943Y25662D01*
X17591Y25931D01*
X18148Y26357D01*
X18575Y26914D01*
X18843Y27562D01*
X18935Y28257D01*
X18843Y28953D01*
X18575Y29601D01*
X18148Y30157D01*
X17591Y30584D01*
X16943Y30852D01*
X16248Y30944D01*
D02*
G37*
G36*
X94988Y23070D02*
X94293Y22978D01*
X93645Y22710D01*
X93088Y22283D01*
X92661Y21727D01*
X92393Y21079D01*
X92301Y20383D01*
X92393Y19688D01*
X92661Y19040D01*
X93088Y18484D01*
X93645Y18056D01*
X94293Y17788D01*
X94988Y17696D01*
X95684Y17788D01*
X96332Y18056D01*
X96888Y18484D01*
X97315Y19040D01*
X97583Y19688D01*
X97675Y20383D01*
X97583Y21079D01*
X97315Y21727D01*
X96888Y22283D01*
X96332Y22710D01*
X95684Y22978D01*
X94988Y23070D01*
D02*
G37*
G36*
X8374D02*
X7679Y22978D01*
X7031Y22710D01*
X6474Y22283D01*
X6047Y21727D01*
X5779Y21079D01*
X5687Y20383D01*
X5779Y19688D01*
X6047Y19040D01*
X6474Y18484D01*
X7031Y18056D01*
X7679Y17788D01*
X8374Y17696D01*
X9069Y17788D01*
X9717Y18056D01*
X10274Y18484D01*
X10701Y19040D01*
X10969Y19688D01*
X11061Y20383D01*
X10969Y21079D01*
X10701Y21727D01*
X10274Y22283D01*
X9717Y22710D01*
X9069Y22978D01*
X8374Y23070D01*
D02*
G37*
G36*
X87114Y23070D02*
X86419Y22978D01*
X85771Y22710D01*
X85214Y22283D01*
X84787Y21727D01*
X84519Y21079D01*
X84427Y20383D01*
X84519Y19688D01*
X84787Y19040D01*
X85214Y18483D01*
X85771Y18056D01*
X86419Y17788D01*
X87114Y17696D01*
X87810Y17788D01*
X88458Y18056D01*
X89014Y18483D01*
X89441Y19040D01*
X89709Y19688D01*
X89801Y20383D01*
X89709Y21079D01*
X89441Y21727D01*
X89014Y22283D01*
X88458Y22710D01*
X87810Y22978D01*
X87114Y23070D01*
D02*
G37*
G36*
X16248D02*
X15553Y22978D01*
X14905Y22710D01*
X14348Y22283D01*
X13921Y21727D01*
X13653Y21079D01*
X13561Y20383D01*
X13653Y19688D01*
X13921Y19040D01*
X14348Y18483D01*
X14905Y18056D01*
X15553Y17788D01*
X16248Y17696D01*
X16943Y17788D01*
X17591Y18056D01*
X18148Y18483D01*
X18575Y19040D01*
X18843Y19688D01*
X18935Y20383D01*
X18843Y21079D01*
X18575Y21727D01*
X18148Y22283D01*
X17591Y22710D01*
X16943Y22978D01*
X16248Y23070D01*
D02*
G37*
G36*
X52181Y20217D02*
Y16748D01*
X55650D01*
X55578Y17292D01*
X55175Y18265D01*
X54534Y19101D01*
X53698Y19742D01*
X52725Y20145D01*
X52181Y20217D01*
D02*
G37*
G36*
X51181D02*
X50637Y20145D01*
X49664Y19742D01*
X48828Y19101D01*
X48187Y18265D01*
X47784Y17292D01*
X47712Y16748D01*
X51181D01*
Y20217D01*
D02*
G37*
G36*
X55650Y15748D02*
X52181D01*
Y12279D01*
X52725Y12351D01*
X53698Y12754D01*
X54534Y13395D01*
X55175Y14231D01*
X55578Y15204D01*
X55650Y15748D01*
D02*
G37*
G36*
X51181D02*
X47712D01*
X47784Y15204D01*
X48187Y14231D01*
X48828Y13395D01*
X49664Y12754D01*
X50637Y12351D01*
X51181Y12279D01*
Y15748D01*
D02*
G37*
G36*
X94988Y15196D02*
X94293Y15104D01*
X93645Y14836D01*
X93088Y14409D01*
X92661Y13853D01*
X92393Y13205D01*
X92301Y12509D01*
X92393Y11814D01*
X92661Y11166D01*
X93088Y10610D01*
X93645Y10182D01*
X94293Y9914D01*
X94988Y9822D01*
X95684Y9914D01*
X96332Y10182D01*
X96888Y10610D01*
X97315Y11166D01*
X97583Y11814D01*
X97675Y12509D01*
X97583Y13205D01*
X97315Y13853D01*
X96888Y14409D01*
X96332Y14836D01*
X95684Y15104D01*
X94988Y15196D01*
D02*
G37*
G36*
X8374D02*
X7679Y15104D01*
X7031Y14836D01*
X6474Y14409D01*
X6047Y13853D01*
X5779Y13205D01*
X5687Y12509D01*
X5779Y11814D01*
X6047Y11166D01*
X6474Y10610D01*
X7031Y10182D01*
X7679Y9914D01*
X8374Y9822D01*
X9069Y9914D01*
X9717Y10182D01*
X10274Y10610D01*
X10701Y11166D01*
X10969Y11814D01*
X11061Y12509D01*
X10969Y13205D01*
X10701Y13853D01*
X10274Y14409D01*
X9717Y14836D01*
X9069Y15104D01*
X8374Y15196D01*
D02*
G37*
G36*
X87114Y15196D02*
X86419Y15104D01*
X85771Y14836D01*
X85214Y14409D01*
X84787Y13853D01*
X84519Y13205D01*
X84427Y12509D01*
X84519Y11814D01*
X84787Y11166D01*
X85214Y10609D01*
X85771Y10182D01*
X86419Y9914D01*
X87114Y9822D01*
X87810Y9914D01*
X88458Y10182D01*
X89014Y10609D01*
X89441Y11166D01*
X89709Y11814D01*
X89801Y12509D01*
X89709Y13205D01*
X89441Y13853D01*
X89014Y14409D01*
X88458Y14836D01*
X87810Y15104D01*
X87114Y15196D01*
D02*
G37*
G36*
X16248D02*
X15553Y15104D01*
X14905Y14836D01*
X14348Y14409D01*
X13921Y13853D01*
X13653Y13205D01*
X13561Y12509D01*
X13653Y11814D01*
X13921Y11166D01*
X14348Y10609D01*
X14905Y10182D01*
X15553Y9914D01*
X16248Y9822D01*
X16943Y9914D01*
X17591Y10182D01*
X18148Y10609D01*
X18575Y11166D01*
X18843Y11814D01*
X18935Y12509D01*
X18843Y13205D01*
X18575Y13853D01*
X18148Y14409D01*
X17591Y14836D01*
X16943Y15104D01*
X16248Y15196D01*
D02*
G37*
%LPD*%
D10*
X26484Y43808D02*
Y109048D01*
X31642Y114206D01*
X22744Y40068D02*
X26484Y43808D01*
X12311Y40068D02*
X22744D01*
X8374Y36131D02*
X12311Y40068D01*
D18*
X31642Y114206D02*
D03*
D19*
X41642D02*
D03*
D20*
X51681Y94988D02*
D03*
Y16248D02*
D03*
D21*
X87114Y12509D02*
D03*
Y20383D02*
D03*
Y28257D02*
D03*
Y36131D02*
D03*
Y44005D02*
D03*
Y51879D02*
D03*
Y59753D02*
D03*
Y67627D02*
D03*
Y75501D02*
D03*
X94988Y12509D02*
D03*
Y20383D02*
D03*
Y28257D02*
D03*
Y36131D02*
D03*
Y44005D02*
D03*
Y51879D02*
D03*
Y59753D02*
D03*
Y67627D02*
D03*
Y75502D02*
D03*
X16248Y12509D02*
D03*
Y20383D02*
D03*
Y28257D02*
D03*
Y36131D02*
D03*
Y44005D02*
D03*
Y51879D02*
D03*
Y59753D02*
D03*
Y67627D02*
D03*
Y75501D02*
D03*
X8374Y12509D02*
D03*
Y20383D02*
D03*
Y28257D02*
D03*
Y36131D02*
D03*
Y44005D02*
D03*
Y51879D02*
D03*
Y59753D02*
D03*
Y67627D02*
D03*
D22*
Y75502D02*
D03*
D23*
X51681Y94988D02*
Y104166D01*
X41642Y114206D02*
X51681Y104166D01*
M02*
