M48
;Layer_Color=9474304
;FILE_FORMAT=2:5
INCH,LZ
;TYPE=PLATED
T1F00S00C0.02559
T2F00S00C0.03000
T3F00S00C0.03543
%
T01
X0008374Y0012509
Y0020383
Y0028257
Y0036131
Y0044005
Y0051879
Y0059753
Y0067627
Y0075502
X0016248Y0075501
Y0067627
Y0059753
Y0051879
Y0044005
Y0036131
Y0028257
Y0020383
Y0012509
X0087114
Y0020383
Y0028257
Y0036131
Y0044005
Y0051879
Y0059753
Y0067627
Y0075501
X0094988Y0075502
Y0067627
Y0059753
Y0051879
Y0044005
Y0036131
Y0028257
Y0020383
Y0012509
T02
X0051681Y0016248
Y0094988
T03
X0031642Y0114206
X0041642
M30
