G04*
G04 #@! TF.GenerationSoftware,Altium Limited,Altium Designer,19.1.5 (86)*
G04*
G04 Layer_Color=65535*
%FSLAX25Y25*%
%MOIN*%
G70*
G01*
G75*
%ADD10C,0.01000*%
%ADD11C,0.00787*%
D10*
X4437Y106572D02*
X98925D01*
X35244Y58270D02*
Y52272D01*
X38243D01*
X39243Y53271D01*
Y54271D01*
X38243Y55271D01*
X35244D01*
X38243D01*
X39243Y56270D01*
Y57270D01*
X38243Y58270D01*
X35244D01*
X42242Y52272D02*
X44241D01*
X45241Y53271D01*
Y55271D01*
X44241Y56270D01*
X42242D01*
X41242Y55271D01*
Y53271D01*
X42242Y52272D01*
X47240Y56270D02*
Y52272D01*
Y54271D01*
X48240Y55271D01*
X49240Y56270D01*
X50239D01*
X53238Y52272D02*
Y56270D01*
X56237D01*
X57237Y55271D01*
Y52272D01*
X65234Y57270D02*
X66234Y58270D01*
X68233D01*
X69233Y57270D01*
Y56270D01*
X68233Y55271D01*
X67234D01*
X68233D01*
X69233Y54271D01*
Y53271D01*
X68233Y52272D01*
X66234D01*
X65234Y53271D01*
X43437Y117572D02*
Y121571D01*
X45436Y123570D01*
X47436Y121571D01*
Y117572D01*
Y120571D01*
X43437D01*
X49435Y117572D02*
Y123570D01*
X53434Y117572D01*
Y123570D01*
X55433D02*
X59432D01*
X57433D01*
Y117572D01*
D11*
X4437Y8572D02*
Y134556D01*
Y8572D02*
X98925D01*
Y134556D01*
X53650D02*
X98925D01*
X4437D02*
X33964D01*
X53650D01*
M02*
