G04*
G04 #@! TF.GenerationSoftware,Altium Limited,Altium Designer,19.1.5 (86)*
G04*
G04 Layer_Physical_Order=1*
G04 Layer_Color=255*
%FSLAX25Y25*%
%MOIN*%
G70*
G01*
G75*
%ADD15C,0.02000*%
%ADD16C,0.05000*%
%ADD17C,0.05906*%
%ADD18R,0.05906X0.05906*%
%ADD19C,0.06000*%
G36*
X353937Y8661D02*
X191895D01*
X191732Y9055D01*
Y211417D01*
X353937D01*
Y8661D01*
D02*
G37*
%LPC*%
G36*
X225177Y209236D02*
X224290Y209120D01*
X223463Y208777D01*
X223404Y208732D01*
X198448D01*
X198443Y208736D01*
X197627Y209073D01*
X196752Y209189D01*
X195877Y209073D01*
X195061Y208736D01*
X194361Y208198D01*
X193823Y207498D01*
X193485Y206682D01*
X193370Y205807D01*
X193485Y204932D01*
X193823Y204116D01*
X194361Y203416D01*
X195061Y202878D01*
X195877Y202541D01*
X196752Y202425D01*
X197627Y202541D01*
X198443Y202878D01*
X198448Y202882D01*
X223404D01*
X223463Y202837D01*
X224290Y202495D01*
X225177Y202378D01*
X226065Y202495D01*
X226892Y202837D01*
X227602Y203382D01*
X228147Y204092D01*
X228490Y204920D01*
X228607Y205807D01*
X228490Y206695D01*
X228147Y207522D01*
X227602Y208232D01*
X226892Y208777D01*
X226065Y209120D01*
X225177Y209236D01*
D02*
G37*
G36*
X295177D02*
X294290Y209120D01*
X293462Y208777D01*
X292752Y208232D01*
X292207Y207522D01*
X291865Y206695D01*
X291748Y205807D01*
X291865Y204920D01*
X292207Y204092D01*
X292752Y203382D01*
X293462Y202837D01*
X294290Y202495D01*
X295177Y202378D01*
X296065Y202495D01*
X296892Y202837D01*
X296950Y202882D01*
X321352D01*
Y202454D01*
X328058D01*
Y209160D01*
X321352D01*
Y208732D01*
X296950D01*
X296892Y208777D01*
X296065Y209120D01*
X295177Y209236D01*
D02*
G37*
G36*
X225177Y199236D02*
X224290Y199120D01*
X223463Y198777D01*
X223404Y198732D01*
X198448D01*
X198443Y198736D01*
X197627Y199074D01*
X196752Y199189D01*
X195877Y199074D01*
X195061Y198736D01*
X194361Y198198D01*
X193823Y197498D01*
X193485Y196682D01*
X193370Y195807D01*
X193485Y194932D01*
X193823Y194116D01*
X194361Y193416D01*
X195061Y192878D01*
X195877Y192541D01*
X196752Y192425D01*
X197627Y192541D01*
X198443Y192878D01*
X198448Y192882D01*
X223404D01*
X223463Y192837D01*
X224290Y192495D01*
X225177Y192378D01*
X226065Y192495D01*
X226892Y192837D01*
X227602Y193382D01*
X228147Y194092D01*
X228490Y194920D01*
X228607Y195807D01*
X228490Y196695D01*
X228147Y197522D01*
X227602Y198232D01*
X226892Y198777D01*
X226065Y199120D01*
X225177Y199236D01*
D02*
G37*
G36*
X295177D02*
X294290Y199120D01*
X293462Y198777D01*
X292752Y198232D01*
X292207Y197522D01*
X291865Y196695D01*
X291748Y195807D01*
X291865Y194920D01*
X292207Y194092D01*
X292752Y193382D01*
X293462Y192837D01*
X294290Y192495D01*
X295177Y192378D01*
X296065Y192495D01*
X296892Y192837D01*
X296950Y192882D01*
X323009D01*
X323014Y192878D01*
X323830Y192541D01*
X324705Y192425D01*
X325580Y192541D01*
X326396Y192878D01*
X327096Y193416D01*
X327633Y194116D01*
X327971Y194932D01*
X328086Y195807D01*
X327971Y196682D01*
X327633Y197498D01*
X327096Y198198D01*
X326396Y198736D01*
X325580Y199074D01*
X324705Y199189D01*
X323830Y199074D01*
X323014Y198736D01*
X323009Y198732D01*
X296950D01*
X296892Y198777D01*
X296065Y199120D01*
X295177Y199236D01*
D02*
G37*
G36*
X225177Y189236D02*
X224290Y189120D01*
X223463Y188777D01*
X223404Y188732D01*
X198448D01*
X198443Y188736D01*
X197627Y189074D01*
X196752Y189189D01*
X195877Y189074D01*
X195061Y188736D01*
X194361Y188198D01*
X193823Y187498D01*
X193485Y186682D01*
X193370Y185807D01*
X193485Y184932D01*
X193823Y184116D01*
X194361Y183416D01*
X195061Y182878D01*
X195877Y182541D01*
X195939Y182532D01*
X195995Y182509D01*
X196752Y182410D01*
X197509Y182509D01*
X197565Y182532D01*
X197627Y182541D01*
X198443Y182878D01*
X198448Y182882D01*
X223404D01*
X223463Y182837D01*
X224290Y182495D01*
X225177Y182378D01*
X226065Y182495D01*
X226892Y182837D01*
X227602Y183382D01*
X228147Y184092D01*
X228490Y184920D01*
X228607Y185807D01*
X228490Y186695D01*
X228147Y187522D01*
X227602Y188232D01*
X226892Y188777D01*
X226065Y189120D01*
X225177Y189236D01*
D02*
G37*
G36*
X295177D02*
X294290Y189120D01*
X293462Y188777D01*
X292752Y188232D01*
X292207Y187522D01*
X291865Y186695D01*
X291748Y185807D01*
X291865Y184920D01*
X292207Y184092D01*
X292752Y183382D01*
X293462Y182837D01*
X294290Y182495D01*
X295177Y182378D01*
X296065Y182495D01*
X296892Y182837D01*
X296950Y182882D01*
X323009D01*
X323014Y182878D01*
X323830Y182541D01*
X324705Y182425D01*
X325580Y182541D01*
X326396Y182878D01*
X327096Y183416D01*
X327633Y184116D01*
X327971Y184932D01*
X328086Y185807D01*
X327971Y186682D01*
X327633Y187498D01*
X327096Y188198D01*
X326396Y188736D01*
X325580Y189074D01*
X324705Y189189D01*
X323830Y189074D01*
X323014Y188736D01*
X323009Y188732D01*
X296950D01*
X296892Y188777D01*
X296065Y189120D01*
X295177Y189236D01*
D02*
G37*
G36*
X225177Y179236D02*
X224290Y179120D01*
X223463Y178777D01*
X223404Y178732D01*
X198448D01*
X198443Y178736D01*
X197627Y179074D01*
X196752Y179189D01*
X195877Y179074D01*
X195061Y178736D01*
X194361Y178198D01*
X193823Y177498D01*
X193485Y176682D01*
X193370Y175807D01*
X193485Y174932D01*
X193823Y174116D01*
X194361Y173416D01*
X195061Y172879D01*
X195877Y172541D01*
X196752Y172425D01*
X197627Y172541D01*
X198443Y172879D01*
X198448Y172882D01*
X223404D01*
X223463Y172837D01*
X224290Y172495D01*
X225177Y172378D01*
X226065Y172495D01*
X226892Y172837D01*
X227602Y173382D01*
X228147Y174092D01*
X228490Y174919D01*
X228607Y175807D01*
X228490Y176695D01*
X228147Y177522D01*
X227602Y178232D01*
X226892Y178777D01*
X226065Y179120D01*
X225177Y179236D01*
D02*
G37*
G36*
X295177D02*
X294290Y179120D01*
X293462Y178777D01*
X292752Y178232D01*
X292207Y177522D01*
X291865Y176695D01*
X291748Y175807D01*
X291865Y174919D01*
X292207Y174092D01*
X292752Y173382D01*
X293462Y172837D01*
X294290Y172495D01*
X295177Y172378D01*
X296065Y172495D01*
X296892Y172837D01*
X296950Y172882D01*
X323009D01*
X323014Y172879D01*
X323830Y172541D01*
X324705Y172425D01*
X325580Y172541D01*
X326396Y172879D01*
X327096Y173416D01*
X327633Y174116D01*
X327971Y174932D01*
X328086Y175807D01*
X327971Y176682D01*
X327633Y177498D01*
X327096Y178198D01*
X326396Y178736D01*
X325580Y179074D01*
X324705Y179189D01*
X323830Y179074D01*
X323014Y178736D01*
X323009Y178732D01*
X296950D01*
X296892Y178777D01*
X296065Y179120D01*
X295177Y179236D01*
D02*
G37*
G36*
X225177Y169236D02*
X224290Y169120D01*
X223463Y168777D01*
X223404Y168732D01*
X198448D01*
X198443Y168736D01*
X197627Y169073D01*
X196752Y169189D01*
X195877Y169073D01*
X195061Y168736D01*
X194361Y168198D01*
X193823Y167498D01*
X193485Y166682D01*
X193370Y165807D01*
X193485Y164932D01*
X193823Y164116D01*
X194361Y163416D01*
X195061Y162879D01*
X195877Y162541D01*
X196752Y162425D01*
X197627Y162541D01*
X198443Y162879D01*
X198448Y162882D01*
X223404D01*
X223463Y162837D01*
X224290Y162495D01*
X225177Y162378D01*
X226065Y162495D01*
X226892Y162837D01*
X227602Y163382D01*
X228147Y164092D01*
X228490Y164919D01*
X228607Y165807D01*
X228490Y166695D01*
X228147Y167522D01*
X227602Y168232D01*
X226892Y168777D01*
X226065Y169120D01*
X225177Y169236D01*
D02*
G37*
G36*
X295177D02*
X294290Y169120D01*
X293462Y168777D01*
X292752Y168232D01*
X292207Y167522D01*
X291865Y166695D01*
X291748Y165807D01*
X291865Y164919D01*
X292207Y164092D01*
X292752Y163382D01*
X293462Y162837D01*
X294290Y162495D01*
X295177Y162378D01*
X296065Y162495D01*
X296892Y162837D01*
X296950Y162882D01*
X323009D01*
X323014Y162879D01*
X323830Y162541D01*
X324705Y162425D01*
X325580Y162541D01*
X326396Y162879D01*
X327096Y163416D01*
X327633Y164116D01*
X327971Y164932D01*
X328086Y165807D01*
X327971Y166682D01*
X327633Y167498D01*
X327096Y168198D01*
X326396Y168736D01*
X325580Y169073D01*
X324705Y169189D01*
X323830Y169073D01*
X323014Y168736D01*
X323009Y168732D01*
X296950D01*
X296892Y168777D01*
X296065Y169120D01*
X295177Y169236D01*
D02*
G37*
G36*
X225177Y159236D02*
X224290Y159120D01*
X223463Y158777D01*
X223404Y158732D01*
X198448D01*
X198443Y158736D01*
X197627Y159073D01*
X196752Y159189D01*
X195877Y159073D01*
X195061Y158736D01*
X194361Y158198D01*
X193823Y157498D01*
X193485Y156682D01*
X193370Y155807D01*
X193485Y154932D01*
X193823Y154116D01*
X194361Y153416D01*
X195061Y152878D01*
X195877Y152541D01*
X196752Y152425D01*
X197627Y152541D01*
X198443Y152878D01*
X198448Y152882D01*
X223404D01*
X223463Y152837D01*
X224290Y152495D01*
X225177Y152378D01*
X226065Y152495D01*
X226892Y152837D01*
X227602Y153382D01*
X228147Y154092D01*
X228490Y154920D01*
X228607Y155807D01*
X228490Y156695D01*
X228147Y157522D01*
X227602Y158232D01*
X226892Y158777D01*
X226065Y159120D01*
X225177Y159236D01*
D02*
G37*
G36*
X295177D02*
X294290Y159120D01*
X293462Y158777D01*
X292752Y158232D01*
X292207Y157522D01*
X291865Y156695D01*
X291748Y155807D01*
X291865Y154920D01*
X292207Y154092D01*
X292752Y153382D01*
X293462Y152837D01*
X294290Y152495D01*
X295177Y152378D01*
X296065Y152495D01*
X296892Y152837D01*
X296950Y152882D01*
X323009D01*
X323014Y152878D01*
X323830Y152541D01*
X324705Y152425D01*
X325580Y152541D01*
X326396Y152878D01*
X327096Y153416D01*
X327633Y154116D01*
X327971Y154932D01*
X328086Y155807D01*
X327971Y156682D01*
X327633Y157498D01*
X327096Y158198D01*
X326396Y158736D01*
X325580Y159073D01*
X324705Y159189D01*
X323830Y159073D01*
X323014Y158736D01*
X323009Y158732D01*
X296950D01*
X296892Y158777D01*
X296065Y159120D01*
X295177Y159236D01*
D02*
G37*
G36*
X225177Y149236D02*
X224290Y149120D01*
X223463Y148777D01*
X223404Y148732D01*
X198448D01*
X198443Y148736D01*
X197627Y149074D01*
X196752Y149189D01*
X195877Y149074D01*
X195061Y148736D01*
X194361Y148198D01*
X193823Y147498D01*
X193485Y146682D01*
X193370Y145807D01*
X193485Y144932D01*
X193823Y144116D01*
X194361Y143416D01*
X195061Y142878D01*
X195877Y142541D01*
X196752Y142425D01*
X197627Y142541D01*
X198443Y142878D01*
X198448Y142882D01*
X223404D01*
X223463Y142837D01*
X224290Y142495D01*
X225177Y142378D01*
X226065Y142495D01*
X226892Y142837D01*
X227602Y143382D01*
X228147Y144092D01*
X228490Y144920D01*
X228607Y145807D01*
X228490Y146695D01*
X228147Y147522D01*
X227602Y148232D01*
X226892Y148777D01*
X226065Y149120D01*
X225177Y149236D01*
D02*
G37*
G36*
X295177D02*
X294290Y149120D01*
X293462Y148777D01*
X292752Y148232D01*
X292207Y147522D01*
X291865Y146695D01*
X291748Y145807D01*
X291865Y144920D01*
X292207Y144092D01*
X292752Y143382D01*
X293462Y142837D01*
X294290Y142495D01*
X295177Y142378D01*
X296065Y142495D01*
X296892Y142837D01*
X296950Y142882D01*
X323009D01*
X323014Y142878D01*
X323830Y142541D01*
X324705Y142425D01*
X325580Y142541D01*
X326396Y142878D01*
X327096Y143416D01*
X327633Y144116D01*
X327971Y144932D01*
X328086Y145807D01*
X327971Y146682D01*
X327633Y147498D01*
X327096Y148198D01*
X326396Y148736D01*
X325580Y149074D01*
X324705Y149189D01*
X323830Y149074D01*
X323014Y148736D01*
X323009Y148732D01*
X296950D01*
X296892Y148777D01*
X296065Y149120D01*
X295177Y149236D01*
D02*
G37*
G36*
X225177Y139236D02*
X224290Y139120D01*
X223463Y138777D01*
X223404Y138732D01*
X198448D01*
X198443Y138736D01*
X197627Y139074D01*
X196752Y139189D01*
X195877Y139074D01*
X195061Y138736D01*
X194361Y138198D01*
X193823Y137498D01*
X193485Y136682D01*
X193370Y135807D01*
X193485Y134932D01*
X193823Y134116D01*
X194361Y133416D01*
X195061Y132878D01*
X195877Y132541D01*
X196752Y132425D01*
X197627Y132541D01*
X198443Y132878D01*
X198448Y132882D01*
X223404D01*
X223463Y132837D01*
X224290Y132495D01*
X225177Y132378D01*
X226065Y132495D01*
X226892Y132837D01*
X227602Y133382D01*
X228147Y134092D01*
X228490Y134920D01*
X228607Y135807D01*
X228490Y136695D01*
X228147Y137522D01*
X227602Y138232D01*
X226892Y138777D01*
X226065Y139120D01*
X225177Y139236D01*
D02*
G37*
G36*
X295177D02*
X294290Y139120D01*
X293462Y138777D01*
X292752Y138232D01*
X292207Y137522D01*
X291865Y136695D01*
X291748Y135807D01*
X291865Y134920D01*
X292207Y134092D01*
X292752Y133382D01*
X293462Y132837D01*
X294290Y132495D01*
X295177Y132378D01*
X296065Y132495D01*
X296892Y132837D01*
X296950Y132882D01*
X323009D01*
X323014Y132878D01*
X323830Y132541D01*
X324705Y132425D01*
X325580Y132541D01*
X326396Y132878D01*
X327096Y133416D01*
X327633Y134116D01*
X327971Y134932D01*
X328086Y135807D01*
X327971Y136682D01*
X327633Y137498D01*
X327096Y138198D01*
X326396Y138736D01*
X325580Y139074D01*
X324705Y139189D01*
X323830Y139074D01*
X323014Y138736D01*
X323009Y138732D01*
X296950D01*
X296892Y138777D01*
X296065Y139120D01*
X295177Y139236D01*
D02*
G37*
G36*
X225177Y129236D02*
X224290Y129120D01*
X223463Y128777D01*
X223404Y128732D01*
X198448D01*
X198443Y128736D01*
X197627Y129074D01*
X196752Y129189D01*
X195877Y129074D01*
X195061Y128736D01*
X194361Y128198D01*
X193823Y127498D01*
X193485Y126682D01*
X193370Y125807D01*
X193485Y124932D01*
X193823Y124116D01*
X194361Y123416D01*
X195061Y122879D01*
X195877Y122541D01*
X196752Y122425D01*
X197627Y122541D01*
X198443Y122879D01*
X198448Y122882D01*
X223404D01*
X223463Y122837D01*
X224290Y122495D01*
X225177Y122378D01*
X226065Y122495D01*
X226892Y122837D01*
X227602Y123382D01*
X228147Y124092D01*
X228490Y124919D01*
X228607Y125807D01*
X228490Y126695D01*
X228147Y127522D01*
X227602Y128232D01*
X226892Y128777D01*
X226065Y129120D01*
X225177Y129236D01*
D02*
G37*
G36*
Y119236D02*
X224290Y119120D01*
X223463Y118777D01*
X223404Y118732D01*
X198448D01*
X198443Y118736D01*
X197627Y119073D01*
X196752Y119189D01*
X195877Y119073D01*
X195061Y118736D01*
X194361Y118198D01*
X193823Y117498D01*
X193485Y116682D01*
X193370Y115807D01*
X193485Y114932D01*
X193823Y114116D01*
X194361Y113416D01*
X195061Y112879D01*
X195877Y112541D01*
X196752Y112425D01*
X197627Y112541D01*
X198443Y112879D01*
X198448Y112882D01*
X223404D01*
X223463Y112837D01*
X224290Y112495D01*
X225177Y112378D01*
X226065Y112495D01*
X226892Y112837D01*
X227602Y113382D01*
X228147Y114092D01*
X228490Y114919D01*
X228607Y115807D01*
X228490Y116695D01*
X228147Y117522D01*
X227602Y118232D01*
X226892Y118777D01*
X226065Y119120D01*
X225177Y119236D01*
D02*
G37*
G36*
Y109236D02*
X224290Y109120D01*
X223463Y108777D01*
X223404Y108732D01*
X198448D01*
X198443Y108736D01*
X197627Y109073D01*
X196752Y109189D01*
X195877Y109073D01*
X195061Y108736D01*
X194361Y108198D01*
X193823Y107498D01*
X193485Y106682D01*
X193370Y105807D01*
X193485Y104932D01*
X193823Y104116D01*
X194361Y103416D01*
X195061Y102878D01*
X195877Y102541D01*
X196752Y102425D01*
X197627Y102541D01*
X198443Y102878D01*
X198448Y102882D01*
X223404D01*
X223463Y102837D01*
X224290Y102495D01*
X225177Y102378D01*
X226065Y102495D01*
X226892Y102837D01*
X227602Y103382D01*
X228147Y104092D01*
X228490Y104920D01*
X228607Y105807D01*
X228490Y106695D01*
X228147Y107522D01*
X227602Y108232D01*
X226892Y108777D01*
X226065Y109120D01*
X225177Y109236D01*
D02*
G37*
G36*
X295177D02*
X294290Y109120D01*
X293462Y108777D01*
X292752Y108232D01*
X292207Y107522D01*
X291865Y106695D01*
X291748Y105807D01*
X291865Y104920D01*
X292207Y104092D01*
X292752Y103382D01*
X293462Y102837D01*
X294290Y102495D01*
X295177Y102378D01*
X296065Y102495D01*
X296892Y102837D01*
X296950Y102882D01*
X323009D01*
X323014Y102878D01*
X323830Y102541D01*
X324705Y102425D01*
X325580Y102541D01*
X326396Y102878D01*
X327096Y103416D01*
X327633Y104116D01*
X327971Y104932D01*
X328086Y105807D01*
X327971Y106682D01*
X327633Y107498D01*
X327096Y108198D01*
X326396Y108736D01*
X325580Y109073D01*
X324705Y109189D01*
X323830Y109073D01*
X323014Y108736D01*
X323009Y108732D01*
X296950D01*
X296892Y108777D01*
X296065Y109120D01*
X295177Y109236D01*
D02*
G37*
G36*
X225177Y99236D02*
X224290Y99120D01*
X223463Y98777D01*
X223404Y98732D01*
X198448D01*
X198443Y98736D01*
X197627Y99073D01*
X196752Y99189D01*
X195877Y99073D01*
X195061Y98736D01*
X194361Y98198D01*
X193823Y97498D01*
X193485Y96682D01*
X193370Y95807D01*
X193485Y94932D01*
X193823Y94116D01*
X194361Y93416D01*
X195061Y92879D01*
X195877Y92541D01*
X196752Y92425D01*
X197627Y92541D01*
X198443Y92879D01*
X198448Y92882D01*
X223404D01*
X223463Y92837D01*
X224290Y92495D01*
X225177Y92378D01*
X226065Y92495D01*
X226892Y92837D01*
X227602Y93382D01*
X228147Y94092D01*
X228490Y94920D01*
X228607Y95807D01*
X228490Y96695D01*
X228147Y97522D01*
X227602Y98232D01*
X226892Y98777D01*
X226065Y99120D01*
X225177Y99236D01*
D02*
G37*
G36*
X295177D02*
X294290Y99120D01*
X293462Y98777D01*
X292752Y98232D01*
X292207Y97522D01*
X291865Y96695D01*
X291748Y95807D01*
X291865Y94920D01*
X292207Y94092D01*
X292752Y93382D01*
X293462Y92837D01*
X294290Y92495D01*
X295177Y92378D01*
X296065Y92495D01*
X296892Y92837D01*
X296950Y92882D01*
X323009D01*
X323014Y92879D01*
X323830Y92541D01*
X324705Y92425D01*
X325580Y92541D01*
X326396Y92879D01*
X327096Y93416D01*
X327633Y94116D01*
X327971Y94932D01*
X328086Y95807D01*
X327971Y96682D01*
X327633Y97498D01*
X327096Y98198D01*
X326396Y98736D01*
X325580Y99073D01*
X324705Y99189D01*
X323830Y99073D01*
X323014Y98736D01*
X323009Y98732D01*
X296950D01*
X296892Y98777D01*
X296065Y99120D01*
X295177Y99236D01*
D02*
G37*
G36*
X225177Y89236D02*
X224290Y89120D01*
X223463Y88777D01*
X223404Y88732D01*
X198448D01*
X198443Y88736D01*
X197627Y89073D01*
X196752Y89189D01*
X195877Y89073D01*
X195061Y88736D01*
X194361Y88198D01*
X193823Y87498D01*
X193485Y86682D01*
X193370Y85807D01*
X193485Y84932D01*
X193823Y84116D01*
X194361Y83416D01*
X195061Y82879D01*
X195877Y82541D01*
X196752Y82425D01*
X197627Y82541D01*
X198443Y82879D01*
X198448Y82882D01*
X223404D01*
X223463Y82837D01*
X224290Y82495D01*
X225177Y82378D01*
X226065Y82495D01*
X226892Y82837D01*
X227602Y83382D01*
X228147Y84092D01*
X228490Y84920D01*
X228607Y85807D01*
X228490Y86695D01*
X228147Y87522D01*
X227602Y88232D01*
X226892Y88777D01*
X226065Y89120D01*
X225177Y89236D01*
D02*
G37*
G36*
X295177D02*
X294290Y89120D01*
X293462Y88777D01*
X292752Y88232D01*
X292207Y87522D01*
X291865Y86695D01*
X291748Y85807D01*
X291865Y84920D01*
X292207Y84092D01*
X292752Y83382D01*
X293462Y82837D01*
X294290Y82495D01*
X295177Y82378D01*
X296065Y82495D01*
X296892Y82837D01*
X296950Y82882D01*
X323009D01*
X323014Y82879D01*
X323830Y82541D01*
X324705Y82425D01*
X325580Y82541D01*
X326396Y82879D01*
X327096Y83416D01*
X327633Y84116D01*
X327971Y84932D01*
X328086Y85807D01*
X327971Y86682D01*
X327633Y87498D01*
X327096Y88198D01*
X326396Y88736D01*
X325580Y89073D01*
X324705Y89189D01*
X323830Y89073D01*
X323014Y88736D01*
X323009Y88732D01*
X296950D01*
X296892Y88777D01*
X296065Y89120D01*
X295177Y89236D01*
D02*
G37*
G36*
X225177Y79236D02*
X224290Y79120D01*
X223463Y78777D01*
X223404Y78732D01*
X198448D01*
X198443Y78736D01*
X197627Y79074D01*
X196752Y79189D01*
X195877Y79074D01*
X195061Y78736D01*
X194361Y78198D01*
X193823Y77498D01*
X193485Y76682D01*
X193370Y75807D01*
X193485Y74932D01*
X193823Y74116D01*
X194361Y73416D01*
X195061Y72878D01*
X195877Y72541D01*
X196752Y72425D01*
X197627Y72541D01*
X198443Y72878D01*
X198448Y72882D01*
X223404D01*
X223463Y72837D01*
X224290Y72495D01*
X225177Y72378D01*
X226065Y72495D01*
X226892Y72837D01*
X227602Y73382D01*
X228147Y74092D01*
X228490Y74919D01*
X228607Y75807D01*
X228490Y76695D01*
X228147Y77522D01*
X227602Y78232D01*
X226892Y78777D01*
X226065Y79120D01*
X225177Y79236D01*
D02*
G37*
G36*
X295177D02*
X294290Y79120D01*
X293462Y78777D01*
X292752Y78232D01*
X292207Y77522D01*
X291865Y76695D01*
X291748Y75807D01*
X291865Y74919D01*
X292207Y74092D01*
X292752Y73382D01*
X293462Y72837D01*
X294290Y72495D01*
X295177Y72378D01*
X296065Y72495D01*
X296892Y72837D01*
X296950Y72882D01*
X323009D01*
X323014Y72878D01*
X323830Y72541D01*
X324705Y72425D01*
X325580Y72541D01*
X326396Y72878D01*
X327096Y73416D01*
X327633Y74116D01*
X327971Y74932D01*
X328086Y75807D01*
X327971Y76682D01*
X327633Y77498D01*
X327096Y78198D01*
X326396Y78736D01*
X325580Y79074D01*
X324705Y79189D01*
X323830Y79074D01*
X323014Y78736D01*
X323009Y78732D01*
X296950D01*
X296892Y78777D01*
X296065Y79120D01*
X295177Y79236D01*
D02*
G37*
G36*
X225177Y69236D02*
X224290Y69120D01*
X223463Y68777D01*
X223404Y68732D01*
X198448D01*
X198443Y68736D01*
X197627Y69073D01*
X196752Y69189D01*
X195877Y69073D01*
X195061Y68736D01*
X194361Y68198D01*
X193823Y67498D01*
X193485Y66682D01*
X193370Y65807D01*
X193485Y64932D01*
X193823Y64116D01*
X194361Y63416D01*
X195061Y62879D01*
X195877Y62541D01*
X196752Y62425D01*
X197627Y62541D01*
X198443Y62879D01*
X198448Y62882D01*
X223404D01*
X223463Y62837D01*
X224290Y62495D01*
X225177Y62378D01*
X226065Y62495D01*
X226892Y62837D01*
X227602Y63382D01*
X228147Y64092D01*
X228490Y64920D01*
X228607Y65807D01*
X228490Y66695D01*
X228147Y67522D01*
X227602Y68232D01*
X226892Y68777D01*
X226065Y69120D01*
X225177Y69236D01*
D02*
G37*
G36*
X295177D02*
X294290Y69120D01*
X293462Y68777D01*
X292752Y68232D01*
X292207Y67522D01*
X291865Y66695D01*
X291748Y65807D01*
X291865Y64920D01*
X292207Y64092D01*
X292752Y63382D01*
X293462Y62837D01*
X294290Y62495D01*
X295177Y62378D01*
X296065Y62495D01*
X296892Y62837D01*
X296950Y62882D01*
X323009D01*
X323014Y62879D01*
X323830Y62541D01*
X324705Y62425D01*
X325580Y62541D01*
X326396Y62879D01*
X327096Y63416D01*
X327633Y64116D01*
X327971Y64932D01*
X328086Y65807D01*
X327971Y66682D01*
X327633Y67498D01*
X327096Y68198D01*
X326396Y68736D01*
X325580Y69073D01*
X324705Y69189D01*
X323830Y69073D01*
X323014Y68736D01*
X323009Y68732D01*
X296950D01*
X296892Y68777D01*
X296065Y69120D01*
X295177Y69236D01*
D02*
G37*
G36*
X225177Y59236D02*
X224290Y59120D01*
X223463Y58777D01*
X223404Y58732D01*
X198448D01*
X198443Y58736D01*
X197627Y59074D01*
X196752Y59189D01*
X195877Y59074D01*
X195061Y58736D01*
X194361Y58198D01*
X193823Y57498D01*
X193485Y56682D01*
X193370Y55807D01*
X193485Y54932D01*
X193823Y54116D01*
X194361Y53416D01*
X195061Y52878D01*
X195877Y52541D01*
X196752Y52425D01*
X197627Y52541D01*
X198443Y52878D01*
X198448Y52882D01*
X223404D01*
X223463Y52837D01*
X224290Y52495D01*
X225177Y52378D01*
X226065Y52495D01*
X226892Y52837D01*
X227602Y53382D01*
X228147Y54092D01*
X228490Y54919D01*
X228607Y55807D01*
X228490Y56695D01*
X228147Y57522D01*
X227602Y58232D01*
X226892Y58777D01*
X226065Y59120D01*
X225177Y59236D01*
D02*
G37*
G36*
X295177D02*
X294290Y59120D01*
X293462Y58777D01*
X292752Y58232D01*
X292207Y57522D01*
X291865Y56695D01*
X291748Y55807D01*
X291865Y54919D01*
X292207Y54092D01*
X292752Y53382D01*
X293462Y52837D01*
X294290Y52495D01*
X295177Y52378D01*
X296065Y52495D01*
X296892Y52837D01*
X296950Y52882D01*
X323009D01*
X323014Y52878D01*
X323830Y52541D01*
X324705Y52425D01*
X325580Y52541D01*
X326396Y52878D01*
X327096Y53416D01*
X327633Y54116D01*
X327971Y54932D01*
X328086Y55807D01*
X327971Y56682D01*
X327633Y57498D01*
X327096Y58198D01*
X326396Y58736D01*
X325580Y59074D01*
X324705Y59189D01*
X323830Y59074D01*
X323014Y58736D01*
X323009Y58732D01*
X296950D01*
X296892Y58777D01*
X296065Y59120D01*
X295177Y59236D01*
D02*
G37*
G36*
X225177Y49236D02*
X224290Y49120D01*
X223463Y48777D01*
X223404Y48732D01*
X198448D01*
X198443Y48736D01*
X197627Y49073D01*
X196752Y49189D01*
X195877Y49073D01*
X195061Y48736D01*
X194361Y48198D01*
X193823Y47498D01*
X193485Y46682D01*
X193370Y45807D01*
X193485Y44932D01*
X193823Y44116D01*
X194361Y43416D01*
X195061Y42878D01*
X195877Y42541D01*
X196752Y42425D01*
X197627Y42541D01*
X198443Y42878D01*
X198448Y42882D01*
X223404D01*
X223463Y42837D01*
X224290Y42495D01*
X225177Y42378D01*
X226065Y42495D01*
X226892Y42837D01*
X227602Y43382D01*
X228147Y44092D01*
X228490Y44919D01*
X228607Y45807D01*
X228490Y46695D01*
X228147Y47522D01*
X227602Y48232D01*
X226892Y48777D01*
X226065Y49120D01*
X225177Y49236D01*
D02*
G37*
G36*
X295177D02*
X294290Y49120D01*
X293462Y48777D01*
X292752Y48232D01*
X292207Y47522D01*
X291865Y46695D01*
X291748Y45807D01*
X291865Y44919D01*
X292207Y44092D01*
X292752Y43382D01*
X293462Y42837D01*
X294290Y42495D01*
X295177Y42378D01*
X296065Y42495D01*
X296892Y42837D01*
X296950Y42882D01*
X323009D01*
X323014Y42878D01*
X323830Y42541D01*
X324705Y42425D01*
X325580Y42541D01*
X326396Y42878D01*
X327096Y43416D01*
X327633Y44116D01*
X327971Y44932D01*
X328086Y45807D01*
X327971Y46682D01*
X327633Y47498D01*
X327096Y48198D01*
X326396Y48736D01*
X325580Y49073D01*
X324705Y49189D01*
X323830Y49073D01*
X323014Y48736D01*
X323009Y48732D01*
X296950D01*
X296892Y48777D01*
X296065Y49120D01*
X295177Y49236D01*
D02*
G37*
G36*
X351679Y49081D02*
X344974D01*
Y42376D01*
X351679D01*
Y49081D01*
D02*
G37*
G36*
X225177Y39236D02*
X224290Y39120D01*
X223463Y38777D01*
X223404Y38732D01*
X198448D01*
X198443Y38736D01*
X197627Y39074D01*
X196752Y39189D01*
X195877Y39074D01*
X195061Y38736D01*
X194361Y38198D01*
X193823Y37498D01*
X193485Y36682D01*
X193370Y35807D01*
X193485Y34932D01*
X193823Y34116D01*
X194361Y33416D01*
X195061Y32879D01*
X195877Y32541D01*
X196752Y32425D01*
X197627Y32541D01*
X198443Y32879D01*
X198448Y32882D01*
X223404D01*
X223463Y32837D01*
X224290Y32495D01*
X225177Y32378D01*
X226065Y32495D01*
X226892Y32837D01*
X227602Y33382D01*
X228147Y34092D01*
X228490Y34920D01*
X228607Y35807D01*
X228490Y36695D01*
X228147Y37522D01*
X227602Y38232D01*
X226892Y38777D01*
X226065Y39120D01*
X225177Y39236D01*
D02*
G37*
G36*
X295677Y39776D02*
Y36307D01*
X299146D01*
X299074Y36851D01*
X298671Y37824D01*
X298030Y38660D01*
X297194Y39301D01*
X296221Y39704D01*
X295677Y39776D01*
D02*
G37*
G36*
X294677D02*
X294133Y39704D01*
X293160Y39301D01*
X292324Y38660D01*
X291683Y37824D01*
X291280Y36851D01*
X291209Y36307D01*
X294677D01*
Y39776D01*
D02*
G37*
G36*
X325205Y39728D02*
Y36307D01*
X328626D01*
X328556Y36839D01*
X328157Y37800D01*
X327524Y38626D01*
X326698Y39260D01*
X325737Y39658D01*
X325205Y39728D01*
D02*
G37*
G36*
X324205D02*
X323673Y39658D01*
X322711Y39260D01*
X321886Y38626D01*
X321252Y37800D01*
X320854Y36839D01*
X320784Y36307D01*
X324205D01*
Y39728D01*
D02*
G37*
G36*
X295177Y129236D02*
X294290Y129120D01*
X293462Y128777D01*
X292752Y128232D01*
X292207Y127522D01*
X291865Y126695D01*
X291748Y125807D01*
X291865Y124919D01*
X292207Y124092D01*
X292752Y123382D01*
X293462Y122837D01*
X294290Y122495D01*
X295177Y122378D01*
X296065Y122495D01*
X296892Y122837D01*
X296950Y122882D01*
X323009D01*
X323014Y122879D01*
X323830Y122541D01*
X324705Y122425D01*
X325580Y122541D01*
X325843Y122650D01*
X339025Y109468D01*
Y43602D01*
X339025Y43602D01*
X339134Y43056D01*
X339443Y42593D01*
X345169Y36867D01*
X345060Y36604D01*
X344945Y35728D01*
X345060Y34853D01*
X345398Y34038D01*
X345936Y33337D01*
X346636Y32800D01*
X347451Y32462D01*
X348327Y32347D01*
X349202Y32462D01*
X350018Y32800D01*
X350718Y33337D01*
X351255Y34038D01*
X351593Y34853D01*
X351708Y35728D01*
X351593Y36604D01*
X351255Y37419D01*
X350718Y38120D01*
X350018Y38657D01*
X349202Y38995D01*
X348327Y39110D01*
X347451Y38995D01*
X347188Y38886D01*
X341880Y44194D01*
Y110059D01*
X341880Y110059D01*
X341772Y110605D01*
X341462Y111068D01*
X341462Y111068D01*
X327862Y124668D01*
X327971Y124932D01*
X328086Y125807D01*
X327971Y126682D01*
X327633Y127498D01*
X327096Y128198D01*
X326396Y128736D01*
X325580Y129074D01*
X324705Y129189D01*
X323830Y129074D01*
X323014Y128736D01*
X323009Y128732D01*
X296950D01*
X296892Y128777D01*
X296065Y129120D01*
X295177Y129236D01*
D02*
G37*
G36*
X324205Y35307D02*
X320784D01*
X320854Y34775D01*
X321252Y33814D01*
X321886Y32988D01*
X322711Y32354D01*
X323673Y31956D01*
X324205Y31886D01*
Y35307D01*
D02*
G37*
G36*
X328626D02*
X325205D01*
Y31886D01*
X325737Y31956D01*
X326698Y32354D01*
X327524Y32988D01*
X328157Y33814D01*
X328556Y34775D01*
X328626Y35307D01*
D02*
G37*
G36*
X299146Y35307D02*
X295677D01*
Y31838D01*
X296221Y31910D01*
X297194Y32313D01*
X298030Y32954D01*
X298671Y33790D01*
X299074Y34763D01*
X299146Y35307D01*
D02*
G37*
G36*
X294677D02*
X291209D01*
X291280Y34763D01*
X291683Y33790D01*
X292324Y32954D01*
X293160Y32313D01*
X294133Y31910D01*
X294677Y31838D01*
Y35307D01*
D02*
G37*
G36*
X225177Y29236D02*
X224290Y29120D01*
X223463Y28777D01*
X223404Y28732D01*
X198448D01*
X198443Y28736D01*
X197627Y29074D01*
X196752Y29189D01*
X195877Y29074D01*
X195061Y28736D01*
X194361Y28198D01*
X193823Y27498D01*
X193485Y26682D01*
X193370Y25807D01*
X193485Y24932D01*
X193823Y24116D01*
X194361Y23416D01*
X195061Y22878D01*
X195877Y22541D01*
X196752Y22425D01*
X197627Y22541D01*
X198443Y22878D01*
X198448Y22882D01*
X223404D01*
X223463Y22837D01*
X224290Y22495D01*
X225177Y22378D01*
X226065Y22495D01*
X226892Y22837D01*
X227602Y23382D01*
X228147Y24092D01*
X228490Y24919D01*
X228607Y25807D01*
X228490Y26695D01*
X228147Y27522D01*
X227602Y28232D01*
X226892Y28777D01*
X226065Y29120D01*
X225177Y29236D01*
D02*
G37*
G36*
X295177D02*
X294290Y29120D01*
X293462Y28777D01*
X292752Y28232D01*
X292207Y27522D01*
X291865Y26695D01*
X291748Y25807D01*
X291865Y24919D01*
X292207Y24092D01*
X292752Y23382D01*
X293462Y22837D01*
X294290Y22495D01*
X295177Y22378D01*
X296065Y22495D01*
X296892Y22837D01*
X296950Y22882D01*
X323009D01*
X323014Y22878D01*
X323830Y22541D01*
X324705Y22425D01*
X325580Y22541D01*
X326396Y22878D01*
X327096Y23416D01*
X327633Y24116D01*
X327971Y24932D01*
X328086Y25807D01*
X327971Y26682D01*
X327633Y27498D01*
X327096Y28198D01*
X326396Y28736D01*
X325580Y29074D01*
X324705Y29189D01*
X323830Y29074D01*
X323014Y28736D01*
X323009Y28732D01*
X296950D01*
X296892Y28777D01*
X296065Y29120D01*
X295177Y29236D01*
D02*
G37*
G36*
Y119236D02*
X294290Y119120D01*
X293462Y118777D01*
X292752Y118232D01*
X292207Y117522D01*
X291865Y116695D01*
X291748Y115807D01*
X291865Y114919D01*
X292207Y114092D01*
X292752Y113382D01*
X293462Y112837D01*
X294290Y112495D01*
X295177Y112378D01*
X296065Y112495D01*
X296892Y112837D01*
X296950Y112882D01*
X323009D01*
X323014Y112879D01*
X323830Y112541D01*
X324705Y112425D01*
X325580Y112541D01*
X325843Y112650D01*
X332726Y105767D01*
Y39902D01*
X332726Y39902D01*
X332835Y39355D01*
X333144Y38892D01*
X345169Y26867D01*
X345060Y26604D01*
X344945Y25728D01*
X345060Y24853D01*
X345398Y24037D01*
X345936Y23337D01*
X346636Y22800D01*
X347451Y22462D01*
X348327Y22347D01*
X349202Y22462D01*
X350018Y22800D01*
X350718Y23337D01*
X351255Y24037D01*
X351593Y24853D01*
X351708Y25728D01*
X351593Y26604D01*
X351255Y27419D01*
X350718Y28120D01*
X350018Y28657D01*
X349202Y28995D01*
X348327Y29110D01*
X347451Y28995D01*
X347188Y28886D01*
X335581Y40493D01*
Y106358D01*
X335581Y106358D01*
X335472Y106904D01*
X335163Y107368D01*
X335163Y107368D01*
X327862Y114668D01*
X327971Y114932D01*
X328086Y115807D01*
X327971Y116682D01*
X327633Y117498D01*
X327096Y118198D01*
X326396Y118736D01*
X325580Y119073D01*
X324705Y119189D01*
X323830Y119073D01*
X323014Y118736D01*
X323009Y118732D01*
X296950D01*
X296892Y118777D01*
X296065Y119120D01*
X295177Y119236D01*
D02*
G37*
G36*
X225177Y19236D02*
X224290Y19120D01*
X223463Y18777D01*
X223404Y18732D01*
X200105D01*
Y19160D01*
X193399D01*
Y12454D01*
X200105D01*
Y12882D01*
X223404D01*
X223463Y12837D01*
X224290Y12495D01*
X225177Y12378D01*
X226065Y12495D01*
X226892Y12837D01*
X227602Y13382D01*
X228147Y14092D01*
X228490Y14920D01*
X228607Y15807D01*
X228490Y16695D01*
X228147Y17522D01*
X227602Y18232D01*
X226892Y18777D01*
X226065Y19120D01*
X225177Y19236D01*
D02*
G37*
G36*
X348827Y19649D02*
Y16228D01*
X352248D01*
X352178Y16760D01*
X351780Y17722D01*
X351146Y18548D01*
X350320Y19181D01*
X349359Y19579D01*
X348827Y19649D01*
D02*
G37*
G36*
X347827D02*
X347295Y19579D01*
X346333Y19181D01*
X345508Y18548D01*
X344874Y17722D01*
X344476Y16760D01*
X344406Y16228D01*
X347827D01*
Y19649D01*
D02*
G37*
G36*
X295177Y19236D02*
X294290Y19120D01*
X293462Y18777D01*
X292752Y18232D01*
X292207Y17522D01*
X291865Y16695D01*
X291748Y15807D01*
X291865Y14920D01*
X292207Y14092D01*
X292752Y13382D01*
X293462Y12837D01*
X294290Y12495D01*
X295177Y12378D01*
X296065Y12495D01*
X296892Y12837D01*
X296950Y12882D01*
X323009D01*
X323014Y12878D01*
X323830Y12541D01*
X324705Y12425D01*
X325580Y12541D01*
X326396Y12878D01*
X327096Y13416D01*
X327633Y14116D01*
X327971Y14932D01*
X328086Y15807D01*
X327971Y16682D01*
X327633Y17498D01*
X327096Y18198D01*
X326396Y18736D01*
X325580Y19073D01*
X324705Y19189D01*
X323830Y19073D01*
X323014Y18736D01*
X323009Y18732D01*
X296950D01*
X296892Y18777D01*
X296065Y19120D01*
X295177Y19236D01*
D02*
G37*
G36*
X347827Y15228D02*
X344406D01*
X344476Y14696D01*
X344874Y13735D01*
X345508Y12909D01*
X346333Y12276D01*
X347295Y11877D01*
X347827Y11807D01*
Y15228D01*
D02*
G37*
G36*
X352248D02*
X348827D01*
Y11807D01*
X349359Y11877D01*
X350320Y12276D01*
X351146Y12909D01*
X351780Y13735D01*
X352178Y14696D01*
X352248Y15228D01*
D02*
G37*
%LPD*%
D15*
X324705Y125807D02*
X340453Y110059D01*
Y43602D02*
Y110059D01*
Y43602D02*
X348327Y35728D01*
X324705Y115807D02*
X334154Y106358D01*
Y39902D02*
Y106358D01*
Y39902D02*
X348327Y25728D01*
X324705Y35807D02*
X331398Y29114D01*
Y23130D02*
Y29114D01*
Y23130D02*
X338799Y15728D01*
X348327D01*
D16*
X295177Y15807D02*
X324705D01*
X295177Y25807D02*
X324705D01*
X295177Y35807D02*
X324705D01*
X295177Y45807D02*
X324705D01*
X295177Y55807D02*
X324705D01*
X295177Y65807D02*
X324705D01*
X295177Y75807D02*
X324705D01*
X295177Y85807D02*
X324705D01*
X295177Y95807D02*
X324705D01*
X295177Y105807D02*
X324705D01*
X295177Y115807D02*
X324705D01*
X295177Y125807D02*
X324705D01*
X295177Y135807D02*
X324705D01*
X295177Y145807D02*
X324705D01*
X295177Y155807D02*
X324705D01*
X295177Y165807D02*
X324705D01*
X295177Y175807D02*
X324705D01*
X295177Y185807D02*
X324705D01*
X295177Y195807D02*
X324705D01*
X295177Y205807D02*
X324705D01*
X196752D02*
X225177D01*
X196752Y195807D02*
X225177D01*
X196752Y185335D02*
X197224Y185807D01*
X196752Y185335D02*
Y185807D01*
X197224D02*
X225177D01*
X196752Y175807D02*
X225177D01*
X196752Y165807D02*
X225177D01*
X196752Y155807D02*
X225177D01*
X196752Y145807D02*
X225177D01*
X196752Y135807D02*
X225177D01*
X196752Y125807D02*
X225177D01*
X196752Y115807D02*
X225177D01*
X196752Y105807D02*
X225177D01*
X196752Y95807D02*
X225177D01*
X196752Y85807D02*
X225177D01*
X196752Y75807D02*
X225177D01*
X196752Y65807D02*
X225177D01*
X196752Y55807D02*
X225177D01*
X196752Y45807D02*
X225177D01*
X196752Y35807D02*
X225177D01*
X196752Y25807D02*
X225177D01*
X196752Y15807D02*
X225177D01*
D17*
X324705D02*
D03*
Y25807D02*
D03*
Y35807D02*
D03*
Y45807D02*
D03*
Y55807D02*
D03*
Y65807D02*
D03*
Y75807D02*
D03*
Y85807D02*
D03*
Y95807D02*
D03*
Y105807D02*
D03*
Y115807D02*
D03*
Y125807D02*
D03*
Y135807D02*
D03*
Y145807D02*
D03*
Y155807D02*
D03*
Y165807D02*
D03*
Y175807D02*
D03*
Y185807D02*
D03*
Y195807D02*
D03*
X196752Y205807D02*
D03*
Y195807D02*
D03*
Y185807D02*
D03*
Y175807D02*
D03*
Y165807D02*
D03*
Y155807D02*
D03*
Y145807D02*
D03*
Y135807D02*
D03*
Y125807D02*
D03*
Y115807D02*
D03*
Y105807D02*
D03*
Y95807D02*
D03*
Y85807D02*
D03*
Y75807D02*
D03*
Y65807D02*
D03*
Y55807D02*
D03*
Y45807D02*
D03*
Y35807D02*
D03*
Y25807D02*
D03*
X348327Y35728D02*
D03*
Y25728D02*
D03*
Y15728D02*
D03*
D18*
X324705Y205807D02*
D03*
X196752Y15807D02*
D03*
X348327Y45728D02*
D03*
D19*
X225177Y15807D02*
D03*
Y25807D02*
D03*
Y35807D02*
D03*
Y45807D02*
D03*
Y55807D02*
D03*
Y105807D02*
D03*
Y95807D02*
D03*
Y85807D02*
D03*
Y75807D02*
D03*
Y65807D02*
D03*
Y165807D02*
D03*
Y175807D02*
D03*
Y185807D02*
D03*
Y195807D02*
D03*
Y205807D02*
D03*
Y155807D02*
D03*
Y145807D02*
D03*
Y135807D02*
D03*
Y125807D02*
D03*
Y115807D02*
D03*
X295177D02*
D03*
Y125807D02*
D03*
Y135807D02*
D03*
Y145807D02*
D03*
Y155807D02*
D03*
Y205807D02*
D03*
Y195807D02*
D03*
Y185807D02*
D03*
Y175807D02*
D03*
Y165807D02*
D03*
Y65807D02*
D03*
Y75807D02*
D03*
Y85807D02*
D03*
Y95807D02*
D03*
Y105807D02*
D03*
Y55807D02*
D03*
Y45807D02*
D03*
Y35807D02*
D03*
Y25807D02*
D03*
Y15807D02*
D03*
M02*
