G04*
G04 #@! TF.GenerationSoftware,Altium Limited,Altium Designer,19.1.5 (86)*
G04*
G04 Layer_Color=65535*
%FSLAX25Y25*%
%MOIN*%
G70*
G01*
G75*
%ADD10C,0.00787*%
D10*
X409449Y451535D02*
Y461535D01*
X439449D01*
Y451535D02*
Y461535D01*
X409449Y451535D02*
X439449D01*
X378740Y461578D02*
X381634Y458684D01*
X350532Y425049D02*
X372802D01*
X381634Y411716D02*
Y461716D01*
X350532Y415049D02*
X372972D01*
X350427Y418382D02*
X372972D01*
X350532Y428382D02*
X372972D01*
X350532Y435049D02*
X372972D01*
X350505Y438382D02*
X372972D01*
X350532Y445049D02*
X372972D01*
X350532Y448382D02*
X372972D01*
X350532Y455049D02*
X372972D01*
X350532Y458382D02*
X372972D01*
Y411716D02*
X381634D01*
X372972D02*
Y461716D01*
X381634D01*
X348878Y456715D02*
X350545Y455049D01*
X348865Y456703D02*
X350532Y458369D01*
X348865Y446702D02*
X350532Y448369D01*
X348865Y446689D02*
X350532Y445023D01*
X348858Y436735D02*
X350532Y435062D01*
X348865Y426729D02*
X350532Y425062D01*
X348819Y416775D02*
X350532Y415062D01*
X348858Y436735D02*
X350505Y438382D01*
X348865Y426702D02*
X350532Y428369D01*
X348819Y416775D02*
X350427Y418382D01*
X409291Y439038D02*
Y449038D01*
X439291D01*
Y439038D02*
Y449038D01*
X409291Y439038D02*
X439291D01*
X409291Y426541D02*
Y436541D01*
X439291D01*
Y426541D02*
Y436541D01*
X409291Y426541D02*
X439291D01*
M02*
