G04*
G04 #@! TF.GenerationSoftware,Altium Limited,Altium Designer,19.1.5 (86)*
G04*
G04 Layer_Physical_Order=1*
G04 Layer_Color=255*
%FSLAX25Y25*%
%MOIN*%
G70*
G01*
G75*
%ADD15C,0.15748*%
%ADD16C,0.05906*%
%ADD17R,0.05906X0.05906*%
%ADD18R,0.05906X0.05906*%
G36*
X461614Y409449D02*
X381890D01*
Y466535D01*
X461614D01*
Y409449D01*
D02*
G37*
%LPC*%
G36*
X434949Y460456D02*
Y457035D01*
X438370D01*
X438300Y457567D01*
X437901Y458529D01*
X437268Y459354D01*
X436442Y459988D01*
X435481Y460386D01*
X434949Y460456D01*
D02*
G37*
G36*
X433949D02*
X433417Y460386D01*
X432455Y459988D01*
X431630Y459354D01*
X430996Y458529D01*
X430598Y457567D01*
X430528Y457035D01*
X433949D01*
Y460456D01*
D02*
G37*
G36*
X451957Y465212D02*
Y456844D01*
X460324D01*
X460202Y458084D01*
X459695Y459757D01*
X458871Y461298D01*
X457762Y462650D01*
X456411Y463759D01*
X454869Y464583D01*
X453196Y465090D01*
X451957Y465212D01*
D02*
G37*
G36*
X450957D02*
X449717Y465090D01*
X448044Y464583D01*
X446503Y463759D01*
X445151Y462650D01*
X444042Y461298D01*
X443219Y459757D01*
X442711Y458084D01*
X442589Y456844D01*
X450957D01*
Y465212D01*
D02*
G37*
G36*
X392861Y460068D02*
X386155D01*
Y453363D01*
X392861D01*
Y460068D01*
D02*
G37*
G36*
X399508Y460097D02*
X398633Y459982D01*
X397817Y459644D01*
X397117Y459107D01*
X396579Y458406D01*
X396241Y457591D01*
X396126Y456715D01*
X396241Y455840D01*
X396579Y455025D01*
X397117Y454324D01*
X397817Y453787D01*
X398633Y453449D01*
X399508Y453334D01*
X400383Y453449D01*
X401199Y453787D01*
X401899Y454324D01*
X402436Y455025D01*
X402774Y455840D01*
X402889Y456715D01*
X402774Y457591D01*
X402436Y458406D01*
X401899Y459107D01*
X401199Y459644D01*
X400383Y459982D01*
X399508Y460097D01*
D02*
G37*
G36*
X417802Y459888D02*
X411096D01*
Y453183D01*
X417802D01*
Y459888D01*
D02*
G37*
G36*
X424449Y459917D02*
X423574Y459802D01*
X422758Y459464D01*
X422058Y458927D01*
X421520Y458226D01*
X421182Y457411D01*
X421067Y456535D01*
X421182Y455660D01*
X421520Y454845D01*
X422058Y454144D01*
X422758Y453607D01*
X423574Y453269D01*
X424449Y453154D01*
X425324Y453269D01*
X426140Y453607D01*
X426840Y454144D01*
X427377Y454845D01*
X427715Y455660D01*
X427831Y456535D01*
X427715Y457411D01*
X427377Y458226D01*
X426840Y458927D01*
X426140Y459464D01*
X425324Y459802D01*
X424449Y459917D01*
D02*
G37*
G36*
X438370Y456035D02*
X434949D01*
Y452614D01*
X435481Y452684D01*
X436442Y453083D01*
X437268Y453716D01*
X437901Y454542D01*
X438300Y455504D01*
X438370Y456035D01*
D02*
G37*
G36*
X433949D02*
X430528D01*
X430598Y455504D01*
X430996Y454542D01*
X431630Y453716D01*
X432455Y453083D01*
X433417Y452684D01*
X433949Y452614D01*
Y456035D01*
D02*
G37*
G36*
X460324Y455844D02*
X451957D01*
Y447477D01*
X453196Y447599D01*
X454869Y448106D01*
X456411Y448930D01*
X457762Y450039D01*
X458871Y451390D01*
X459695Y452932D01*
X460202Y454605D01*
X460324Y455844D01*
D02*
G37*
G36*
X450957D02*
X442589D01*
X442711Y454605D01*
X443219Y452932D01*
X444042Y451390D01*
X445151Y450039D01*
X446503Y448930D01*
X448044Y448106D01*
X449717Y447599D01*
X450957Y447477D01*
Y455844D01*
D02*
G37*
G36*
X434791Y447959D02*
Y444538D01*
X438212D01*
X438142Y445070D01*
X437744Y446032D01*
X437111Y446858D01*
X436285Y447491D01*
X435323Y447889D01*
X434791Y447959D01*
D02*
G37*
G36*
X433791D02*
X433259Y447889D01*
X432298Y447491D01*
X431472Y446858D01*
X430839Y446032D01*
X430440Y445070D01*
X430370Y444538D01*
X433791D01*
Y447959D01*
D02*
G37*
G36*
X399508Y450097D02*
X398633Y449982D01*
X397817Y449644D01*
X397117Y449107D01*
X396579Y448406D01*
X396241Y447591D01*
X396126Y446715D01*
X396241Y445840D01*
X396579Y445025D01*
X397117Y444324D01*
X397817Y443787D01*
X398633Y443449D01*
X399508Y443334D01*
X400383Y443449D01*
X401199Y443787D01*
X401899Y444324D01*
X402436Y445025D01*
X402774Y445840D01*
X402889Y446715D01*
X402774Y447591D01*
X402436Y448406D01*
X401899Y449107D01*
X401199Y449644D01*
X400383Y449982D01*
X399508Y450097D01*
D02*
G37*
G36*
X389508D02*
X388633Y449982D01*
X387817Y449644D01*
X387117Y449107D01*
X386579Y448406D01*
X386241Y447591D01*
X386126Y446715D01*
X386241Y445840D01*
X386579Y445025D01*
X387117Y444324D01*
X387817Y443787D01*
X388633Y443449D01*
X389508Y443334D01*
X390383Y443449D01*
X391199Y443787D01*
X391899Y444324D01*
X392437Y445025D01*
X392774Y445840D01*
X392889Y446715D01*
X392774Y447591D01*
X392437Y448406D01*
X391899Y449107D01*
X391199Y449644D01*
X390383Y449982D01*
X389508Y450097D01*
D02*
G37*
G36*
X417644Y447391D02*
X410939D01*
Y440686D01*
X417644D01*
Y447391D01*
D02*
G37*
G36*
X424291Y447420D02*
X423416Y447305D01*
X422601Y446967D01*
X421900Y446430D01*
X421363Y445729D01*
X421025Y444914D01*
X420910Y444038D01*
X421025Y443163D01*
X421363Y442347D01*
X421900Y441647D01*
X422601Y441110D01*
X423416Y440772D01*
X424291Y440657D01*
X425167Y440772D01*
X425982Y441110D01*
X426683Y441647D01*
X427220Y442347D01*
X427558Y443163D01*
X427673Y444038D01*
X427558Y444914D01*
X427220Y445729D01*
X426683Y446430D01*
X425982Y446967D01*
X425167Y447305D01*
X424291Y447420D01*
D02*
G37*
G36*
X438212Y443538D02*
X434791D01*
Y440117D01*
X435323Y440187D01*
X436285Y440586D01*
X437111Y441219D01*
X437744Y442045D01*
X438142Y443007D01*
X438212Y443538D01*
D02*
G37*
G36*
X433791D02*
X430370D01*
X430440Y443007D01*
X430839Y442045D01*
X431472Y441219D01*
X432298Y440586D01*
X433259Y440187D01*
X433791Y440117D01*
Y443538D01*
D02*
G37*
G36*
X399508Y440097D02*
X398633Y439982D01*
X397817Y439644D01*
X397117Y439107D01*
X396579Y438406D01*
X396241Y437591D01*
X396126Y436716D01*
X396241Y435840D01*
X396579Y435025D01*
X397117Y434324D01*
X397817Y433787D01*
X398633Y433449D01*
X399508Y433334D01*
X400383Y433449D01*
X401199Y433787D01*
X401899Y434324D01*
X402436Y435025D01*
X402774Y435840D01*
X402889Y436716D01*
X402774Y437591D01*
X402436Y438406D01*
X401899Y439107D01*
X401199Y439644D01*
X400383Y439982D01*
X399508Y440097D01*
D02*
G37*
G36*
X389508D02*
X388633Y439982D01*
X387817Y439644D01*
X387117Y439107D01*
X386579Y438406D01*
X386241Y437591D01*
X386126Y436716D01*
X386241Y435840D01*
X386579Y435025D01*
X387117Y434324D01*
X387817Y433787D01*
X388633Y433449D01*
X389508Y433334D01*
X390383Y433449D01*
X391199Y433787D01*
X391899Y434324D01*
X392437Y435025D01*
X392774Y435840D01*
X392889Y436716D01*
X392774Y437591D01*
X392437Y438406D01*
X391899Y439107D01*
X391199Y439644D01*
X390383Y439982D01*
X389508Y440097D01*
D02*
G37*
G36*
X434791Y435462D02*
Y432041D01*
X438212D01*
X438142Y432573D01*
X437744Y433535D01*
X437111Y434360D01*
X436285Y434994D01*
X435323Y435392D01*
X434791Y435462D01*
D02*
G37*
G36*
X433791D02*
X433259Y435392D01*
X432298Y434994D01*
X431472Y434360D01*
X430839Y433535D01*
X430440Y432573D01*
X430370Y432041D01*
X433791D01*
Y435462D01*
D02*
G37*
G36*
X417644Y434894D02*
X410939D01*
Y428189D01*
X417644D01*
Y434894D01*
D02*
G37*
G36*
X424291Y434923D02*
X423416Y434808D01*
X422601Y434470D01*
X421900Y433932D01*
X421363Y433232D01*
X421025Y432416D01*
X420910Y431541D01*
X421025Y430666D01*
X421363Y429850D01*
X421900Y429150D01*
X422601Y428613D01*
X423416Y428275D01*
X424291Y428160D01*
X425167Y428275D01*
X425982Y428613D01*
X426683Y429150D01*
X427220Y429850D01*
X427558Y430666D01*
X427673Y431541D01*
X427558Y432416D01*
X427220Y433232D01*
X426683Y433932D01*
X425982Y434470D01*
X425167Y434808D01*
X424291Y434923D01*
D02*
G37*
G36*
X438212Y431041D02*
X434791D01*
Y427620D01*
X435323Y427690D01*
X436285Y428089D01*
X437111Y428722D01*
X437744Y429548D01*
X438142Y430509D01*
X438212Y431041D01*
D02*
G37*
G36*
X433791D02*
X430370D01*
X430440Y430509D01*
X430839Y429548D01*
X431472Y428722D01*
X432298Y428089D01*
X433259Y427690D01*
X433791Y427620D01*
Y431041D01*
D02*
G37*
G36*
X399508Y430097D02*
X398633Y429982D01*
X397817Y429644D01*
X397117Y429107D01*
X396579Y428406D01*
X396241Y427591D01*
X396126Y426716D01*
X396241Y425840D01*
X396579Y425025D01*
X397117Y424324D01*
X397817Y423787D01*
X398633Y423449D01*
X399508Y423334D01*
X400383Y423449D01*
X401199Y423787D01*
X401899Y424324D01*
X402436Y425025D01*
X402774Y425840D01*
X402889Y426716D01*
X402774Y427591D01*
X402436Y428406D01*
X401899Y429107D01*
X401199Y429644D01*
X400383Y429982D01*
X399508Y430097D01*
D02*
G37*
G36*
X389508D02*
X388633Y429982D01*
X387817Y429644D01*
X387117Y429107D01*
X386579Y428406D01*
X386241Y427591D01*
X386126Y426716D01*
X386241Y425840D01*
X386579Y425025D01*
X387117Y424324D01*
X387817Y423787D01*
X388633Y423449D01*
X389508Y423334D01*
X390383Y423449D01*
X391199Y423787D01*
X391899Y424324D01*
X392437Y425025D01*
X392774Y425840D01*
X392889Y426716D01*
X392774Y427591D01*
X392437Y428406D01*
X391899Y429107D01*
X391199Y429644D01*
X390383Y429982D01*
X389508Y430097D01*
D02*
G37*
G36*
X451957Y429779D02*
Y421411D01*
X460324D01*
X460202Y422651D01*
X459695Y424324D01*
X458871Y425865D01*
X457762Y427217D01*
X456411Y428326D01*
X454869Y429149D01*
X453196Y429657D01*
X451957Y429779D01*
D02*
G37*
G36*
X450957D02*
X449717Y429657D01*
X448044Y429149D01*
X446503Y428326D01*
X445151Y427217D01*
X444042Y425865D01*
X443219Y424324D01*
X442711Y422651D01*
X442589Y421411D01*
X450957D01*
Y429779D01*
D02*
G37*
G36*
X400008Y420637D02*
Y417215D01*
X403429D01*
X403359Y417747D01*
X402961Y418709D01*
X402327Y419535D01*
X401501Y420168D01*
X400540Y420567D01*
X400008Y420637D01*
D02*
G37*
G36*
X399008Y420637D02*
X398476Y420567D01*
X397514Y420168D01*
X396689Y419535D01*
X396055Y418709D01*
X395657Y417747D01*
X395587Y417215D01*
X399008D01*
Y420637D01*
D02*
G37*
G36*
X389508Y420097D02*
X388633Y419982D01*
X387817Y419644D01*
X387117Y419107D01*
X386579Y418406D01*
X386241Y417591D01*
X386126Y416715D01*
X386241Y415840D01*
X386579Y415025D01*
X387117Y414324D01*
X387817Y413787D01*
X388633Y413449D01*
X389508Y413334D01*
X390383Y413449D01*
X391199Y413787D01*
X391899Y414324D01*
X392437Y415025D01*
X392774Y415840D01*
X392889Y416715D01*
X392774Y417591D01*
X392437Y418406D01*
X391899Y419107D01*
X391199Y419644D01*
X390383Y419982D01*
X389508Y420097D01*
D02*
G37*
G36*
X399008Y416216D02*
X395587D01*
X395657Y415684D01*
X396055Y414722D01*
X396689Y413896D01*
X397514Y413263D01*
X398476Y412864D01*
X399008Y412794D01*
Y416216D01*
D02*
G37*
G36*
X403429D02*
X400008D01*
Y412794D01*
X400540Y412864D01*
X401501Y413263D01*
X402327Y413896D01*
X402961Y414722D01*
X403359Y415684D01*
X403429Y416216D01*
D02*
G37*
G36*
X460324Y420411D02*
X451957D01*
Y412044D01*
X453196Y412166D01*
X454869Y412673D01*
X456411Y413497D01*
X457762Y414606D01*
X458871Y415957D01*
X459695Y417499D01*
X460202Y419172D01*
X460324Y420411D01*
D02*
G37*
G36*
X450957D02*
X442589D01*
X442711Y419172D01*
X443219Y417499D01*
X444042Y415957D01*
X445151Y414606D01*
X446503Y413497D01*
X448044Y412673D01*
X449717Y412166D01*
X450957Y412044D01*
Y420411D01*
D02*
G37*
%LPD*%
D15*
X451457Y420911D02*
D03*
Y456344D02*
D03*
D16*
X424449Y456535D02*
D03*
X434449D02*
D03*
X399508Y416715D02*
D03*
X389508D02*
D03*
X399508Y426716D02*
D03*
X389508D02*
D03*
X399508Y436716D02*
D03*
X389508D02*
D03*
X399508Y446715D02*
D03*
X389508D02*
D03*
X399508Y456715D02*
D03*
X424291Y444038D02*
D03*
X434291D02*
D03*
X424291Y431541D02*
D03*
X434291D02*
D03*
D17*
X414449Y456535D02*
D03*
X414291Y444038D02*
D03*
Y431541D02*
D03*
D18*
X389508Y456715D02*
D03*
M02*
