G04*
G04 #@! TF.GenerationSoftware,Altium Limited,Altium Designer,19.1.5 (86)*
G04*
G04 Layer_Physical_Order=1*
G04 Layer_Color=255*
%FSLAX25Y25*%
%MOIN*%
G70*
G01*
G75*
%ADD12C,0.01000*%
%ADD29R,0.02165X0.05906*%
%ADD30R,0.05906X0.02165*%
%ADD31R,0.05906X0.02165*%
%ADD32R,0.02165X0.05906*%
%ADD33R,0.03937X0.05118*%
%ADD34R,0.05000X0.05000*%
%ADD35R,0.05118X0.03937*%
%ADD36C,0.02000*%
%ADD37C,0.05000*%
%ADD38C,0.01200*%
%ADD39C,0.02500*%
%ADD40C,0.15748*%
%ADD41C,0.35433*%
%ADD42C,0.06300*%
%ADD43R,0.05906X0.05906*%
%ADD44C,0.05906*%
%ADD45R,0.05906X0.05906*%
%ADD46C,0.05000*%
G36*
X168110Y578313D02*
X167633Y578163D01*
X163350Y584350D01*
X157211Y588498D01*
X157357Y588976D01*
X168110D01*
Y578313D01*
D02*
G37*
G36*
X22616Y588476D02*
X15541Y583760D01*
X10736Y576456D01*
X10236Y576606D01*
Y588976D01*
X22465D01*
X22616Y588476D01*
D02*
G37*
G36*
X136402Y588498D02*
X129885Y584154D01*
X124964Y576673D01*
X123192Y567421D01*
X124964Y558169D01*
X130279Y550492D01*
X137759Y545374D01*
X146814Y543799D01*
X155869Y545374D01*
X163350Y550492D01*
X167633Y556679D01*
X168110Y556530D01*
Y361024D01*
X10236D01*
Y557452D01*
X10736Y557608D01*
X15935Y550098D01*
X23415Y544980D01*
X32471Y543405D01*
X41526Y544980D01*
X44130Y546763D01*
X53332Y537561D01*
X33640Y517870D01*
X33176Y517264D01*
X32883Y516559D01*
X32784Y515802D01*
Y512778D01*
X32780Y512774D01*
X32442Y511958D01*
X32327Y511083D01*
X32442Y510207D01*
X32780Y509392D01*
X33318Y508692D01*
X34018Y508154D01*
X34833Y507816D01*
X35709Y507701D01*
X36584Y507816D01*
X37400Y508154D01*
X38100Y508692D01*
X38637Y509392D01*
X38975Y510207D01*
X39090Y511083D01*
X38975Y511958D01*
X38637Y512774D01*
X38634Y512778D01*
Y514590D01*
X57960Y533917D01*
X58222Y533882D01*
X66682D01*
X79685Y520879D01*
X79686Y520873D01*
X80024Y520057D01*
X80562Y519357D01*
X81262Y518820D01*
X82077Y518482D01*
X82953Y518366D01*
X83828Y518482D01*
X84644Y518820D01*
X84648Y518823D01*
X91257D01*
X91262Y518820D01*
X92077Y518482D01*
X92953Y518366D01*
X93828Y518482D01*
X94644Y518820D01*
X95344Y519357D01*
X95881Y520057D01*
X96219Y520873D01*
X96334Y521748D01*
X96219Y522623D01*
X95881Y523439D01*
X95344Y524139D01*
X94644Y524677D01*
X93828Y525015D01*
X92953Y525130D01*
X92077Y525015D01*
X91262Y524677D01*
X91257Y524673D01*
X84648D01*
X84644Y524677D01*
X83828Y525015D01*
X83822Y525015D01*
X69962Y538875D01*
X69356Y539340D01*
X68651Y539633D01*
X67894Y539732D01*
X59434D01*
X49031Y550135D01*
X54321Y557776D01*
X56049Y566799D01*
X67135D01*
X79900Y554034D01*
X80506Y553569D01*
X81212Y553277D01*
X81968Y553177D01*
X96269D01*
X116377Y533070D01*
X116982Y532605D01*
X117688Y532312D01*
X118445Y532213D01*
X119202Y532312D01*
X119907Y532605D01*
X120513Y533070D01*
X120978Y533675D01*
X121270Y534381D01*
X121370Y535138D01*
X121270Y535895D01*
X120978Y536600D01*
X120513Y537206D01*
X99549Y558171D01*
X98943Y558636D01*
X98237Y558928D01*
X97480Y559027D01*
X83180D01*
X71246Y570961D01*
Y573530D01*
X64541D01*
Y572649D01*
X55016D01*
X54321Y576279D01*
X49006Y583957D01*
X42317Y588476D01*
X42470Y588976D01*
X136257D01*
X136402Y588498D01*
D02*
G37*
%LPC*%
G36*
X107894Y583559D02*
X107018Y583444D01*
X106203Y583106D01*
X105502Y582568D01*
X104965Y581868D01*
X104627Y581052D01*
X104512Y580177D01*
X104627Y579302D01*
X104965Y578486D01*
X105502Y577786D01*
X106203Y577248D01*
X107018Y576911D01*
X107894Y576795D01*
X108769Y576911D01*
X109584Y577248D01*
X110285Y577786D01*
X110822Y578486D01*
X111160Y579302D01*
X111275Y580177D01*
X111160Y581052D01*
X110822Y581868D01*
X110285Y582568D01*
X109584Y583106D01*
X108769Y583444D01*
X107894Y583559D01*
D02*
G37*
G36*
X97894D02*
X97018Y583444D01*
X96203Y583106D01*
X95503Y582568D01*
X94965Y581868D01*
X94627Y581052D01*
X94512Y580177D01*
X94627Y579302D01*
X94965Y578486D01*
X95503Y577786D01*
X96203Y577248D01*
X97018Y576911D01*
X97894Y576795D01*
X98769Y576911D01*
X99585Y577248D01*
X100285Y577786D01*
X100822Y578486D01*
X101160Y579302D01*
X101275Y580177D01*
X101160Y581052D01*
X100822Y581868D01*
X100285Y582568D01*
X99585Y583106D01*
X98769Y583444D01*
X97894Y583559D01*
D02*
G37*
G36*
X87894D02*
X87019Y583444D01*
X86203Y583106D01*
X85502Y582568D01*
X84965Y581868D01*
X84627Y581052D01*
X84512Y580177D01*
X84627Y579302D01*
X84965Y578486D01*
X85502Y577786D01*
X86203Y577248D01*
X87019Y576911D01*
X87894Y576795D01*
X88769Y576911D01*
X89584Y577248D01*
X90285Y577786D01*
X90822Y578486D01*
X91160Y579302D01*
X91275Y580177D01*
X91160Y581052D01*
X90822Y581868D01*
X90285Y582568D01*
X89584Y583106D01*
X88769Y583444D01*
X87894Y583559D01*
D02*
G37*
G36*
X77894D02*
X77018Y583444D01*
X76203Y583106D01*
X75503Y582568D01*
X74965Y581868D01*
X74627Y581052D01*
X74512Y580177D01*
X74627Y579302D01*
X74965Y578486D01*
X75503Y577786D01*
X76203Y577248D01*
X77018Y576911D01*
X77894Y576795D01*
X78769Y576911D01*
X79584Y577248D01*
X80285Y577786D01*
X80822Y578486D01*
X81160Y579302D01*
X81275Y580177D01*
X81160Y581052D01*
X80822Y581868D01*
X80285Y582568D01*
X79584Y583106D01*
X78769Y583444D01*
X77894Y583559D01*
D02*
G37*
G36*
X67894D02*
X67019Y583444D01*
X66203Y583106D01*
X65503Y582568D01*
X64965Y581868D01*
X64627Y581052D01*
X64512Y580177D01*
X64627Y579302D01*
X64965Y578486D01*
X65503Y577786D01*
X66203Y577248D01*
X67019Y576911D01*
X67894Y576795D01*
X68769Y576911D01*
X69585Y577248D01*
X70285Y577786D01*
X70822Y578486D01*
X71160Y579302D01*
X71275Y580177D01*
X71160Y581052D01*
X70822Y581868D01*
X70285Y582568D01*
X69585Y583106D01*
X68769Y583444D01*
X67894Y583559D01*
D02*
G37*
G36*
X98394Y574098D02*
Y570677D01*
X101815D01*
X101745Y571209D01*
X101346Y572171D01*
X100713Y572996D01*
X99887Y573630D01*
X98926Y574028D01*
X98394Y574098D01*
D02*
G37*
G36*
X97394D02*
X96862Y574028D01*
X95900Y573630D01*
X95075Y572996D01*
X94441Y572171D01*
X94043Y571209D01*
X93973Y570677D01*
X97394D01*
Y574098D01*
D02*
G37*
G36*
X107894Y573559D02*
X107018Y573444D01*
X106203Y573106D01*
X105502Y572568D01*
X104965Y571868D01*
X104627Y571052D01*
X104512Y570177D01*
X104627Y569302D01*
X104965Y568486D01*
X105502Y567786D01*
X106203Y567248D01*
X107018Y566911D01*
X107894Y566795D01*
X108769Y566911D01*
X109584Y567248D01*
X110285Y567786D01*
X110822Y568486D01*
X111160Y569302D01*
X111275Y570177D01*
X111160Y571052D01*
X110822Y571868D01*
X110285Y572568D01*
X109584Y573106D01*
X108769Y573444D01*
X107894Y573559D01*
D02*
G37*
G36*
X87894D02*
X87019Y573444D01*
X86203Y573106D01*
X85502Y572568D01*
X84965Y571868D01*
X84627Y571052D01*
X84512Y570177D01*
X84627Y569302D01*
X84965Y568486D01*
X85502Y567786D01*
X86203Y567248D01*
X87019Y566911D01*
X87894Y566795D01*
X88769Y566911D01*
X89584Y567248D01*
X90285Y567786D01*
X90822Y568486D01*
X91160Y569302D01*
X91275Y570177D01*
X91160Y571052D01*
X90822Y571868D01*
X90285Y572568D01*
X89584Y573106D01*
X88769Y573444D01*
X87894Y573559D01*
D02*
G37*
G36*
X77894D02*
X77018Y573444D01*
X76203Y573106D01*
X75503Y572568D01*
X74965Y571868D01*
X74627Y571052D01*
X74512Y570177D01*
X74627Y569302D01*
X74965Y568486D01*
X75503Y567786D01*
X76203Y567248D01*
X77018Y566911D01*
X77894Y566795D01*
X78769Y566911D01*
X79584Y567248D01*
X80285Y567786D01*
X80822Y568486D01*
X81160Y569302D01*
X81275Y570177D01*
X81160Y571052D01*
X80822Y571868D01*
X80285Y572568D01*
X79584Y573106D01*
X78769Y573444D01*
X77894Y573559D01*
D02*
G37*
G36*
X101815Y569677D02*
X98394D01*
Y566256D01*
X98926Y566326D01*
X99887Y566724D01*
X100713Y567358D01*
X101346Y568184D01*
X101745Y569145D01*
X101815Y569677D01*
D02*
G37*
G36*
X97394D02*
X93973D01*
X94043Y569145D01*
X94441Y568184D01*
X95075Y567358D01*
X95900Y566724D01*
X96862Y566326D01*
X97394Y566256D01*
Y569677D01*
D02*
G37*
G36*
X92953Y545130D02*
X92077Y545015D01*
X91262Y544677D01*
X90561Y544139D01*
X90024Y543439D01*
X89686Y542623D01*
X89571Y541748D01*
X89686Y540873D01*
X90024Y540057D01*
X90561Y539357D01*
X91262Y538820D01*
X92077Y538482D01*
X92953Y538367D01*
X93828Y538482D01*
X94644Y538820D01*
X95344Y539357D01*
X95881Y540057D01*
X96159Y540729D01*
X100385D01*
X102909Y538205D01*
X102629Y537778D01*
X102363Y537831D01*
X88312D01*
X86305Y539837D01*
Y545101D01*
X79600D01*
Y538395D01*
X84864D01*
X87169Y536090D01*
X87500Y535869D01*
X87890Y535791D01*
X91078D01*
X91178Y535291D01*
X90959Y535201D01*
X90134Y534567D01*
X89500Y533742D01*
X89102Y532780D01*
X89032Y532248D01*
X92953D01*
X96874D01*
X96804Y532780D01*
X96406Y533742D01*
X95772Y534567D01*
X94946Y535201D01*
X94728Y535291D01*
X94827Y535791D01*
X101941D01*
X109564Y528168D01*
X109439Y527827D01*
X109332Y527693D01*
X94798D01*
X94698Y528193D01*
X94946Y528296D01*
X95772Y528929D01*
X96406Y529755D01*
X96804Y530716D01*
X96874Y531248D01*
X92953D01*
X89032D01*
X89102Y530716D01*
X89500Y529755D01*
X90134Y528929D01*
X90959Y528296D01*
X91207Y528193D01*
X91108Y527693D01*
X88450D01*
X85941Y530202D01*
X86219Y530873D01*
X86334Y531748D01*
X86219Y532623D01*
X85881Y533439D01*
X85344Y534139D01*
X84644Y534677D01*
X83828Y535015D01*
X82953Y535130D01*
X82077Y535015D01*
X81262Y534677D01*
X80562Y534139D01*
X80024Y533439D01*
X79686Y532623D01*
X79571Y531748D01*
X79686Y530873D01*
X80024Y530057D01*
X80562Y529357D01*
X81262Y528820D01*
X82077Y528482D01*
X82953Y528367D01*
X83828Y528482D01*
X84499Y528760D01*
X87307Y525952D01*
X87638Y525731D01*
X88028Y525654D01*
X108967D01*
X115559Y519063D01*
X115889Y518842D01*
X116279Y518764D01*
X145188D01*
X148331Y515621D01*
Y501631D01*
X147808Y501108D01*
X147347Y501355D01*
X147372Y501480D01*
Y507303D01*
X147372Y507303D01*
X147264Y507849D01*
X146954Y508313D01*
X146954Y508313D01*
X143707Y511560D01*
Y516247D01*
X137002D01*
Y509541D01*
X141688D01*
X144518Y506712D01*
Y502071D01*
X143948Y501502D01*
X143524Y501785D01*
X143621Y502018D01*
X143736Y502894D01*
X143621Y503769D01*
X143283Y504585D01*
X142745Y505285D01*
X142045Y505822D01*
X141230Y506160D01*
X140354Y506275D01*
X139479Y506160D01*
X138663Y505822D01*
X137963Y505285D01*
X137426Y504585D01*
X137088Y503769D01*
X136973Y502894D01*
X137088Y502018D01*
X137197Y501755D01*
X127173Y491731D01*
X126712Y491978D01*
X126734Y492089D01*
Y501565D01*
X127234Y501664D01*
X127426Y501203D01*
X127963Y500502D01*
X128664Y499965D01*
X129479Y499627D01*
X130354Y499512D01*
X131230Y499627D01*
X132045Y499965D01*
X132746Y500502D01*
X133283Y501203D01*
X133621Y502018D01*
X133736Y502894D01*
X133621Y503769D01*
X133283Y504585D01*
X132746Y505285D01*
X132045Y505822D01*
X131230Y506160D01*
X130354Y506275D01*
X129479Y506160D01*
X128664Y505822D01*
X127963Y505285D01*
X127426Y504585D01*
X127234Y504123D01*
X126734Y504222D01*
Y507255D01*
X129216Y509736D01*
X129479Y509627D01*
X130354Y509512D01*
X131230Y509627D01*
X132045Y509965D01*
X132746Y510502D01*
X133283Y511203D01*
X133621Y512018D01*
X133736Y512894D01*
X133621Y513769D01*
X133283Y514584D01*
X132746Y515285D01*
X132045Y515822D01*
X131230Y516160D01*
X130354Y516275D01*
X129479Y516160D01*
X128664Y515822D01*
X127963Y515285D01*
X127426Y514584D01*
X127088Y513769D01*
X126973Y512894D01*
X127088Y512018D01*
X127197Y511755D01*
X124298Y508856D01*
X123988Y508393D01*
X123880Y507846D01*
X123880Y507846D01*
Y505614D01*
X123380Y505444D01*
X123173Y505713D01*
X122348Y506346D01*
X121386Y506745D01*
X120854Y506815D01*
Y502894D01*
Y498973D01*
X121386Y499043D01*
X122348Y499441D01*
X123173Y500075D01*
X123380Y500343D01*
X123880Y500174D01*
Y492680D01*
X112416Y481217D01*
X112106Y480753D01*
X111998Y480207D01*
X111998Y480207D01*
Y471935D01*
X110072D01*
Y469286D01*
X110072Y468970D01*
X109672Y468731D01*
X106629D01*
Y499795D01*
X116802Y509969D01*
X118659D01*
X118664Y509965D01*
X119479Y509627D01*
X120354Y509512D01*
X121230Y509627D01*
X122045Y509965D01*
X122746Y510502D01*
X123283Y511203D01*
X123621Y512018D01*
X123736Y512894D01*
X123621Y513769D01*
X123283Y514584D01*
X122746Y515285D01*
X122045Y515822D01*
X121230Y516160D01*
X120354Y516275D01*
X119479Y516160D01*
X118664Y515822D01*
X118659Y515819D01*
X115591D01*
X114833Y515719D01*
X114128Y515427D01*
X113522Y514962D01*
X101635Y503075D01*
X101171Y502469D01*
X100878Y501764D01*
X100779Y501007D01*
Y464665D01*
Y462925D01*
X97548D01*
X96791Y462825D01*
X96215Y462587D01*
X95900Y462997D01*
X96406Y463656D01*
X96804Y464618D01*
X96874Y465150D01*
X93453D01*
Y461729D01*
X93985Y461799D01*
X94946Y462197D01*
X95198Y461786D01*
X92365Y458954D01*
X92077Y458916D01*
X91262Y458578D01*
X91257Y458575D01*
X84648D01*
X84644Y458578D01*
X83828Y458916D01*
X82953Y459031D01*
X82077Y458916D01*
X81262Y458578D01*
X80562Y458041D01*
X80024Y457340D01*
X79686Y456525D01*
X79571Y455650D01*
X79686Y454774D01*
X80024Y453959D01*
X80562Y453258D01*
X81262Y452721D01*
X82077Y452383D01*
X82953Y452268D01*
X83828Y452383D01*
X84644Y452721D01*
X84648Y452725D01*
X91257D01*
X91262Y452721D01*
X92077Y452383D01*
X92953Y452268D01*
X93828Y452383D01*
X94644Y452721D01*
X95344Y453258D01*
X95881Y453959D01*
X96049Y454365D01*
X98760Y457075D01*
X103645D01*
X104402Y457175D01*
X105107Y457467D01*
X105713Y457932D01*
X105772Y457991D01*
X105904Y458163D01*
X106663D01*
Y462900D01*
X106629D01*
Y465572D01*
X106933Y465876D01*
X109672D01*
X110072Y465636D01*
X110072Y465320D01*
Y462987D01*
X110072Y462671D01*
X110072Y462171D01*
Y459937D01*
X109472D01*
Y458354D01*
X113425D01*
X117378D01*
Y459937D01*
X116778D01*
Y462171D01*
X116778Y462487D01*
X116778Y462987D01*
Y465320D01*
X116778Y465636D01*
X116778Y466136D01*
Y468470D01*
X116778Y468786D01*
X116778Y469286D01*
Y471935D01*
X114853D01*
Y479616D01*
X117532Y482295D01*
X117992Y482049D01*
X117970Y481937D01*
X117970Y481937D01*
Y479711D01*
X117848D01*
Y473005D01*
X120498D01*
X120813Y473005D01*
X121313Y473005D01*
X123963Y473005D01*
X124143Y472580D01*
Y472199D01*
X122598Y470654D01*
X122155Y470837D01*
X121398Y470937D01*
X120641Y470837D01*
X119935Y470545D01*
X119329Y470080D01*
X118865Y469474D01*
X118572Y468769D01*
X118473Y468012D01*
X118572Y467255D01*
X118865Y466549D01*
X119329Y465943D01*
X119935Y465479D01*
X120641Y465187D01*
X121398Y465087D01*
X122155Y465187D01*
X122860Y465479D01*
X123466Y465943D01*
X123931Y466549D01*
X124223Y467255D01*
X124323Y468012D01*
X124223Y468769D01*
X124039Y469212D01*
X125884Y471056D01*
X126105Y471387D01*
X126183Y471777D01*
Y472652D01*
X126536Y473005D01*
X127113Y473005D01*
X127563Y472886D01*
Y469334D01*
X126923Y469069D01*
X126318Y468604D01*
X125853Y467998D01*
X125560Y467292D01*
X125461Y466535D01*
X125560Y465778D01*
X125853Y465073D01*
X126318Y464467D01*
X126923Y464002D01*
X127629Y463710D01*
X128386Y463610D01*
X129143Y463710D01*
X129848Y464002D01*
X130454Y464467D01*
X130919Y465073D01*
X131211Y465778D01*
X131311Y466535D01*
X131211Y467292D01*
X130919Y467998D01*
X130454Y468604D01*
X129848Y469069D01*
X129602Y469171D01*
Y472652D01*
X129956Y473005D01*
X130556D01*
X130910Y472652D01*
Y470472D01*
X130987Y470082D01*
X131208Y469752D01*
X133224Y467735D01*
X133041Y467292D01*
X132941Y466535D01*
X133041Y465778D01*
X133333Y465073D01*
X133798Y464467D01*
X134404Y464002D01*
X135109Y463710D01*
X135866Y463610D01*
X136623Y463710D01*
X137329Y464002D01*
X137934Y464467D01*
X138399Y465073D01*
X138691Y465778D01*
X138791Y466535D01*
X138691Y467292D01*
X138399Y467998D01*
X137934Y468604D01*
X137329Y469069D01*
X136623Y469361D01*
X135866Y469460D01*
X135109Y469361D01*
X134666Y469177D01*
X132949Y470895D01*
Y472652D01*
X133302Y473005D01*
X133912Y473005D01*
X136246D01*
X136561Y473005D01*
X137061Y473005D01*
X139395D01*
X139711Y473005D01*
X140211Y473005D01*
X142861D01*
Y479711D01*
X142397D01*
Y486591D01*
X154471Y498665D01*
X154692Y498996D01*
X154770Y499386D01*
Y517866D01*
X154692Y518256D01*
X154471Y518587D01*
X148128Y524930D01*
X147798Y525151D01*
X147407Y525229D01*
X118769D01*
X101528Y542469D01*
X101197Y542690D01*
X100807Y542768D01*
X96159D01*
X95881Y543439D01*
X95344Y544139D01*
X94644Y544677D01*
X93828Y545015D01*
X92953Y545130D01*
D02*
G37*
G36*
X153256Y542529D02*
Y534161D01*
X161624D01*
X161502Y535401D01*
X160994Y537074D01*
X160170Y538615D01*
X159061Y539967D01*
X157710Y541076D01*
X156168Y541900D01*
X154496Y542407D01*
X153256Y542529D01*
D02*
G37*
G36*
X152256Y542529D02*
X151016Y542407D01*
X149344Y541900D01*
X147802Y541076D01*
X146451Y539967D01*
X145342Y538615D01*
X144518Y537074D01*
X144010Y535401D01*
X143888Y534161D01*
X152256D01*
Y542529D01*
D02*
G37*
G36*
X29634Y540954D02*
Y532587D01*
X38001D01*
X37879Y533826D01*
X37372Y535499D01*
X36548Y537041D01*
X35439Y538392D01*
X34088Y539501D01*
X32546Y540325D01*
X30874Y540832D01*
X29634Y540954D01*
D02*
G37*
G36*
X28634D02*
X27394Y540832D01*
X25721Y540325D01*
X24180Y539501D01*
X22829Y538392D01*
X21720Y537041D01*
X20896Y535499D01*
X20388Y533826D01*
X20266Y532587D01*
X28634D01*
Y540954D01*
D02*
G37*
G36*
X161624Y533161D02*
X153256D01*
Y524794D01*
X154496Y524916D01*
X156168Y525423D01*
X157710Y526247D01*
X159061Y527356D01*
X160170Y528707D01*
X160994Y530249D01*
X161502Y531922D01*
X161624Y533161D01*
D02*
G37*
G36*
X152256D02*
X143888D01*
X144010Y531922D01*
X144518Y530249D01*
X145342Y528707D01*
X146451Y527356D01*
X147802Y526247D01*
X149344Y525423D01*
X151016Y524916D01*
X152256Y524794D01*
Y533161D01*
D02*
G37*
G36*
X28634Y531587D02*
X20266D01*
X20388Y530347D01*
X20896Y528674D01*
X21720Y527133D01*
X22829Y525781D01*
X24180Y524672D01*
X25721Y523848D01*
X27394Y523341D01*
X28634Y523219D01*
Y531587D01*
D02*
G37*
G36*
X38001D02*
X29634D01*
Y523219D01*
X30874Y523341D01*
X32546Y523848D01*
X34088Y524672D01*
X35439Y525781D01*
X36548Y527133D01*
X37372Y528674D01*
X37879Y530347D01*
X38001Y531587D01*
D02*
G37*
G36*
X83453Y515669D02*
Y512248D01*
X86874D01*
X86804Y512780D01*
X86405Y513742D01*
X85772Y514567D01*
X84946Y515201D01*
X83985Y515599D01*
X83453Y515669D01*
D02*
G37*
G36*
X82453Y515669D02*
X81921Y515599D01*
X80959Y515201D01*
X80134Y514567D01*
X79500Y513742D01*
X79102Y512780D01*
X79032Y512248D01*
X82453D01*
Y515669D01*
D02*
G37*
G36*
X92953Y515130D02*
X92077Y515015D01*
X91262Y514677D01*
X90561Y514139D01*
X90024Y513439D01*
X89686Y512623D01*
X89571Y511748D01*
X89686Y510873D01*
X90024Y510057D01*
X90561Y509357D01*
X91262Y508820D01*
X92077Y508482D01*
X92953Y508366D01*
X93828Y508482D01*
X94644Y508820D01*
X95344Y509357D01*
X95881Y510057D01*
X96219Y510873D01*
X96334Y511748D01*
X96219Y512623D01*
X95881Y513439D01*
X95344Y514139D01*
X94644Y514677D01*
X93828Y515015D01*
X92953Y515130D01*
D02*
G37*
G36*
X86874Y511248D02*
X83453D01*
Y507827D01*
X83985Y507897D01*
X84946Y508295D01*
X85772Y508929D01*
X86405Y509755D01*
X86804Y510716D01*
X86874Y511248D01*
D02*
G37*
G36*
X82453D02*
X79032D01*
X79102Y510716D01*
X79500Y509755D01*
X80134Y508929D01*
X80959Y508295D01*
X81921Y507897D01*
X82453Y507827D01*
Y511248D01*
D02*
G37*
G36*
X119854Y506815D02*
X119323Y506745D01*
X118361Y506346D01*
X117535Y505713D01*
X116902Y504887D01*
X116503Y503926D01*
X116433Y503394D01*
X119854D01*
Y506815D01*
D02*
G37*
G36*
X45709Y514464D02*
X44833Y514349D01*
X44018Y514011D01*
X43317Y513474D01*
X42780Y512774D01*
X42442Y511958D01*
X42327Y511083D01*
X42442Y510207D01*
X42780Y509392D01*
X43317Y508692D01*
X44018Y508154D01*
X44833Y507816D01*
X45709Y507701D01*
X46584Y507816D01*
X46847Y507925D01*
X49329Y505444D01*
Y502411D01*
X48829Y502312D01*
X48637Y502774D01*
X48100Y503474D01*
X47400Y504011D01*
X46584Y504349D01*
X45709Y504464D01*
X44833Y504349D01*
X44018Y504011D01*
X43317Y503474D01*
X42780Y502774D01*
X42442Y501958D01*
X42327Y501083D01*
X42442Y500207D01*
X42551Y499944D01*
X19284Y476677D01*
X18975Y476214D01*
X18866Y475667D01*
X18866Y475667D01*
Y459233D01*
X17393D01*
Y453433D01*
X23193D01*
Y455573D01*
X25786D01*
X26214Y455400D01*
X26214Y455073D01*
Y452750D01*
X26214Y452435D01*
X26214Y451935D01*
Y449601D01*
X26214Y449285D01*
X26214Y448785D01*
Y446136D01*
X26214D01*
X26340Y445833D01*
X20539Y440032D01*
X20318Y439701D01*
X20240Y439311D01*
Y435984D01*
X19797Y435801D01*
X19192Y435336D01*
X18727Y434730D01*
X18721Y434716D01*
X18221Y434816D01*
Y438152D01*
Y443842D01*
X19412Y445033D01*
X23193D01*
Y450833D01*
X17393D01*
Y447052D01*
X15784Y445442D01*
X15475Y444979D01*
X15366Y444433D01*
X15366Y444433D01*
Y438152D01*
Y428876D01*
X15366Y428876D01*
X15475Y428330D01*
X15784Y427866D01*
X21825Y421825D01*
X21825Y421825D01*
X22288Y421516D01*
X22835Y421407D01*
X29202D01*
X29202Y421407D01*
X29748Y421516D01*
X30211Y421825D01*
X34391Y426005D01*
X42949D01*
X42950Y426005D01*
X43496Y426113D01*
X43959Y426423D01*
X44765Y427229D01*
X44765Y427229D01*
X45075Y427692D01*
X45183Y428238D01*
X45183Y428239D01*
Y428993D01*
X47093D01*
Y430693D01*
X47520Y430915D01*
X48066Y431024D01*
X48529Y431333D01*
X52163Y434967D01*
X52163Y434967D01*
X52181Y434994D01*
X52860Y435118D01*
X52943Y435059D01*
Y431113D01*
X46554Y424724D01*
X35362D01*
X34816Y424616D01*
X34353Y424306D01*
X34043Y423843D01*
X33935Y423297D01*
Y421522D01*
X32356D01*
Y415604D01*
X33297D01*
Y406931D01*
X33297Y406931D01*
X33406Y406385D01*
X33715Y405922D01*
X34774Y404863D01*
X34576Y404605D01*
X34218Y403742D01*
X34097Y402815D01*
X34218Y401888D01*
X34576Y401025D01*
X35145Y400283D01*
X35887Y399714D01*
X36750Y399356D01*
X37677Y399234D01*
X38604Y399356D01*
X39467Y399714D01*
X40209Y400283D01*
X40778Y401025D01*
X41136Y401888D01*
X41258Y402815D01*
X41136Y403742D01*
X40778Y404605D01*
X40209Y405347D01*
X39467Y405916D01*
X38604Y406274D01*
X37677Y406396D01*
X37325Y406349D01*
X36152Y407523D01*
Y415604D01*
X37093D01*
Y421522D01*
X37449Y421870D01*
X38803D01*
Y419024D01*
X41772D01*
X44740D01*
Y421870D01*
X46418D01*
Y419102D01*
X48887D01*
Y422161D01*
X48735D01*
X48528Y422661D01*
X55379Y429513D01*
X55379Y429513D01*
X55592Y429831D01*
X56092Y429679D01*
Y423119D01*
X56043Y423046D01*
X55935Y422500D01*
X55935Y422500D01*
Y421522D01*
X54066D01*
Y417732D01*
X54038Y417594D01*
X54038Y417594D01*
Y413846D01*
X54038Y413846D01*
X54147Y413300D01*
X54456Y412837D01*
X55250Y412044D01*
Y406066D01*
X54887Y405916D01*
X54145Y405347D01*
X53576Y404605D01*
X53219Y403742D01*
X53096Y402815D01*
X53219Y401888D01*
X53576Y401025D01*
X54145Y400283D01*
X54887Y399714D01*
X55750Y399356D01*
X56677Y399234D01*
X57604Y399356D01*
X58468Y399714D01*
X59209Y400283D01*
X59778Y401025D01*
X60136Y401888D01*
X60258Y402815D01*
X60136Y403742D01*
X59778Y404605D01*
X59209Y405347D01*
X58468Y405916D01*
X58105Y406066D01*
Y412635D01*
X58105Y412635D01*
X57996Y413181D01*
X57687Y413644D01*
X56893Y414438D01*
Y415604D01*
X58802D01*
Y421522D01*
X58790D01*
Y422038D01*
X58838Y422111D01*
X58947Y422657D01*
X58947Y422657D01*
Y438360D01*
X59002D01*
Y445065D01*
X56353D01*
X56037Y445065D01*
X55537Y445065D01*
X53203D01*
X52887Y445065D01*
X52648Y445466D01*
Y451455D01*
X53120Y451800D01*
X53125Y451800D01*
X53878Y451701D01*
X54635Y451801D01*
X55340Y452093D01*
X55554Y452256D01*
X57763Y450047D01*
X58094Y449826D01*
X58484Y449748D01*
X59719D01*
X60072Y449395D01*
X60072Y448785D01*
Y446135D01*
X65336D01*
X66403Y445069D01*
Y443851D01*
X66081Y443604D01*
X65617Y442998D01*
X65324Y442292D01*
X65225Y441535D01*
X65324Y440778D01*
X65617Y440073D01*
X66081Y439467D01*
X66687Y439002D01*
X67393Y438710D01*
X68150Y438610D01*
X68907Y438710D01*
X69612Y439002D01*
X70218Y439467D01*
X70683Y440073D01*
X70975Y440778D01*
X71075Y441535D01*
X70975Y442292D01*
X70683Y442998D01*
X70218Y443604D01*
X69612Y444069D01*
X68907Y444361D01*
X68442Y444422D01*
Y445491D01*
X68369Y445860D01*
X68390Y445892D01*
X68783Y446153D01*
X75007Y439929D01*
X75338Y439708D01*
X75728Y439630D01*
X87953D01*
X88343Y439708D01*
X88674Y439929D01*
X91406Y442661D01*
X92077Y442383D01*
X92953Y442268D01*
X93828Y442383D01*
X94644Y442721D01*
X95344Y443258D01*
X95881Y443959D01*
X96219Y444774D01*
X96334Y445650D01*
X96219Y446525D01*
X95881Y447340D01*
X95344Y448041D01*
X94644Y448578D01*
X93828Y448916D01*
X92953Y449031D01*
X92077Y448916D01*
X91262Y448578D01*
X90561Y448041D01*
X90024Y447340D01*
X89686Y446525D01*
X89571Y445650D01*
X89686Y444774D01*
X89964Y444103D01*
X87530Y441669D01*
X84979D01*
X84879Y442169D01*
X84946Y442197D01*
X85772Y442831D01*
X86405Y443656D01*
X86804Y444618D01*
X86874Y445150D01*
X82953D01*
X79032D01*
X79102Y444618D01*
X79500Y443656D01*
X80134Y442831D01*
X80959Y442197D01*
X81026Y442169D01*
X80927Y441669D01*
X76151D01*
X69464Y448355D01*
Y455196D01*
X69391Y455567D01*
X69416Y455605D01*
X69803Y455861D01*
X75795Y449870D01*
X76126Y449649D01*
X76516Y449571D01*
X80585D01*
X80919Y449127D01*
X80918Y449071D01*
X80134Y448469D01*
X79500Y447643D01*
X79102Y446681D01*
X79032Y446150D01*
X82953D01*
X86874D01*
X86804Y446681D01*
X86405Y447643D01*
X85772Y448469D01*
X84987Y449071D01*
X84987Y449127D01*
X85321Y449571D01*
X95385D01*
X97445Y447511D01*
Y441584D01*
X94499Y438638D01*
X93828Y438916D01*
X92953Y439031D01*
X92077Y438916D01*
X91262Y438578D01*
X90561Y438041D01*
X90024Y437340D01*
X89686Y436525D01*
X89571Y435650D01*
X89686Y434774D01*
X90024Y433959D01*
X90561Y433258D01*
X91262Y432721D01*
X92077Y432383D01*
X92953Y432268D01*
X93828Y432383D01*
X94644Y432721D01*
X95344Y433258D01*
X95881Y433959D01*
X96219Y434774D01*
X96334Y435650D01*
X96219Y436525D01*
X95941Y437196D01*
X99186Y440441D01*
X99407Y440771D01*
X99484Y441161D01*
Y447933D01*
X99407Y448323D01*
X99186Y448654D01*
X96528Y451311D01*
X96197Y451533D01*
X95807Y451610D01*
X76938D01*
X67611Y460938D01*
X67280Y461159D01*
X66890Y461236D01*
X66778Y461348D01*
X66778Y461699D01*
Y461993D01*
X67132Y462347D01*
X69912D01*
X71216Y461042D01*
X71033Y460600D01*
X70933Y459842D01*
X71033Y459086D01*
X71325Y458380D01*
X71790Y457774D01*
X72396Y457309D01*
X73101Y457017D01*
X73858Y456917D01*
X74615Y457017D01*
X75321Y457309D01*
X75927Y457774D01*
X76391Y458380D01*
X76684Y459086D01*
X76783Y459842D01*
X76684Y460600D01*
X76391Y461305D01*
X75927Y461911D01*
X75321Y462376D01*
X74615Y462668D01*
X73858Y462768D01*
X73101Y462668D01*
X72658Y462484D01*
X71056Y464087D01*
X70725Y464308D01*
X70335Y464386D01*
X67132D01*
X67046Y464471D01*
X67069Y465088D01*
X67122Y465131D01*
X67206Y465155D01*
X67753Y465264D01*
X68216Y465573D01*
X70183Y467540D01*
X70492Y468003D01*
X70601Y468549D01*
X70601Y468550D01*
Y472405D01*
X71101Y472505D01*
X71325Y471963D01*
X71790Y471357D01*
X72396Y470892D01*
X73101Y470600D01*
X73858Y470500D01*
X74615Y470600D01*
X75321Y470892D01*
X75927Y471357D01*
X76391Y471963D01*
X76684Y472668D01*
X76783Y473425D01*
X76684Y474182D01*
X76391Y474888D01*
X75927Y475493D01*
X75541Y475790D01*
Y480202D01*
X84142Y488804D01*
X84142Y488804D01*
X84507Y489350D01*
X84635Y489994D01*
X84635Y489994D01*
Y498816D01*
X84644Y498820D01*
X85344Y499357D01*
X85881Y500057D01*
X86219Y500873D01*
X86334Y501748D01*
X86219Y502623D01*
X85881Y503439D01*
X85344Y504139D01*
X84644Y504677D01*
X83828Y505015D01*
X82953Y505130D01*
X82077Y505015D01*
X81262Y504677D01*
X80562Y504139D01*
X80024Y503439D01*
X79686Y502623D01*
X79571Y501748D01*
X79686Y500873D01*
X80024Y500057D01*
X80562Y499357D01*
X81262Y498820D01*
X81270Y498816D01*
Y490691D01*
X72669Y482089D01*
X72304Y481543D01*
X72176Y480899D01*
Y475790D01*
X71790Y475493D01*
X71325Y474888D01*
X71101Y474346D01*
X70601Y474445D01*
Y497618D01*
X70601Y497618D01*
X70492Y498164D01*
X70183Y498628D01*
X70183Y498628D01*
X59061Y509749D01*
Y514435D01*
X52356D01*
Y507730D01*
X57043D01*
X67746Y497027D01*
Y469141D01*
X67278Y468673D01*
X66778Y468880D01*
Y471148D01*
X64853D01*
Y493366D01*
X64853Y493366D01*
X64744Y493912D01*
X64434Y494376D01*
X64434Y494376D01*
X58866Y499944D01*
X58975Y500207D01*
X59090Y501083D01*
X58975Y501958D01*
X58637Y502774D01*
X58100Y503474D01*
X57399Y504011D01*
X56584Y504349D01*
X55709Y504464D01*
X54833Y504349D01*
X54018Y504011D01*
X53317Y503474D01*
X52780Y502774D01*
X52683Y502540D01*
X52183Y502639D01*
Y506035D01*
X52183Y506035D01*
X52075Y506582D01*
X51765Y507045D01*
X51765Y507045D01*
X48866Y509944D01*
X48975Y510207D01*
X49090Y511083D01*
X48975Y511958D01*
X48637Y512774D01*
X48100Y513474D01*
X47400Y514011D01*
X46584Y514349D01*
X45709Y514464D01*
D02*
G37*
G36*
X36209Y505004D02*
Y501583D01*
X39630D01*
X39560Y502115D01*
X39161Y503076D01*
X38528Y503902D01*
X37702Y504535D01*
X36740Y504934D01*
X36209Y505004D01*
D02*
G37*
G36*
X35209D02*
X34677Y504934D01*
X33715Y504535D01*
X32890Y503902D01*
X32256Y503076D01*
X31858Y502115D01*
X31788Y501583D01*
X35209D01*
Y505004D01*
D02*
G37*
G36*
X119854Y502394D02*
X116433D01*
X116503Y501862D01*
X116902Y500900D01*
X117535Y500075D01*
X118361Y499441D01*
X119323Y499043D01*
X119854Y498973D01*
Y502394D01*
D02*
G37*
G36*
X92953Y505130D02*
X92077Y505015D01*
X91262Y504677D01*
X90561Y504139D01*
X90024Y503439D01*
X89686Y502623D01*
X89571Y501748D01*
X89686Y500873D01*
X90024Y500057D01*
X90561Y499357D01*
X91262Y498820D01*
X92077Y498482D01*
X92953Y498366D01*
X93828Y498482D01*
X94644Y498820D01*
X95344Y499357D01*
X95881Y500057D01*
X96219Y500873D01*
X96334Y501748D01*
X96219Y502623D01*
X95881Y503439D01*
X95344Y504139D01*
X94644Y504677D01*
X93828Y505015D01*
X92953Y505130D01*
D02*
G37*
G36*
X39630Y500583D02*
X36209D01*
Y497162D01*
X36740Y497232D01*
X37702Y497630D01*
X38528Y498264D01*
X39161Y499089D01*
X39560Y500051D01*
X39630Y500583D01*
D02*
G37*
G36*
X35209D02*
X31788D01*
X31858Y500051D01*
X32256Y499089D01*
X32890Y498264D01*
X33715Y497630D01*
X34677Y497232D01*
X35209Y497162D01*
Y500583D01*
D02*
G37*
G36*
X149055Y486882D02*
X148298Y486782D01*
X147593Y486490D01*
X146987Y486025D01*
X146522Y485419D01*
X146230Y484714D01*
X146130Y483957D01*
X146230Y483200D01*
X146522Y482494D01*
X146987Y481888D01*
X147593Y481424D01*
X148298Y481131D01*
X149055Y481032D01*
X149812Y481131D01*
X150518Y481424D01*
X151123Y481888D01*
X151200Y481988D01*
X154029D01*
Y479974D01*
X159829D01*
Y485774D01*
X154029D01*
Y484843D01*
X151827D01*
X151588Y485419D01*
X151123Y486025D01*
X150518Y486490D01*
X149812Y486782D01*
X149055Y486882D01*
D02*
G37*
G36*
X86305Y479002D02*
X79600D01*
Y472297D01*
X86305D01*
Y479002D01*
D02*
G37*
G36*
X92953Y479031D02*
X92077Y478916D01*
X91262Y478578D01*
X90561Y478041D01*
X90024Y477340D01*
X89686Y476525D01*
X89571Y475650D01*
X89686Y474774D01*
X90024Y473959D01*
X90561Y473258D01*
X91262Y472721D01*
X92077Y472383D01*
X92953Y472268D01*
X93828Y472383D01*
X94644Y472721D01*
X95344Y473258D01*
X95881Y473959D01*
X96219Y474774D01*
X96334Y475650D01*
X96219Y476525D01*
X95881Y477340D01*
X95344Y478041D01*
X94644Y478578D01*
X93828Y478916D01*
X92953Y479031D01*
D02*
G37*
G36*
X93453Y469571D02*
Y466150D01*
X96874D01*
X96804Y466681D01*
X96406Y467643D01*
X95772Y468469D01*
X94946Y469102D01*
X93985Y469501D01*
X93453Y469571D01*
D02*
G37*
G36*
X92453D02*
X91921Y469501D01*
X90959Y469102D01*
X90134Y468469D01*
X89500Y467643D01*
X89102Y466681D01*
X89032Y466150D01*
X92453D01*
Y469571D01*
D02*
G37*
G36*
X82953Y469031D02*
X82077Y468916D01*
X81262Y468578D01*
X80562Y468041D01*
X80024Y467340D01*
X79686Y466525D01*
X79571Y465650D01*
X79686Y464774D01*
X80024Y463959D01*
X80562Y463258D01*
X81262Y462721D01*
X82077Y462383D01*
X82953Y462268D01*
X83828Y462383D01*
X84644Y462721D01*
X85344Y463258D01*
X85881Y463959D01*
X86219Y464774D01*
X86334Y465650D01*
X86219Y466525D01*
X85881Y467340D01*
X85344Y468041D01*
X84644Y468578D01*
X83828Y468916D01*
X82953Y469031D01*
D02*
G37*
G36*
X92453Y465150D02*
X89032D01*
X89102Y464618D01*
X89500Y463656D01*
X90134Y462830D01*
X90959Y462197D01*
X91921Y461799D01*
X92453Y461729D01*
Y465150D01*
D02*
G37*
G36*
X148760Y479008D02*
X148003Y478908D01*
X147297Y478616D01*
X146692Y478151D01*
X146227Y477545D01*
X145934Y476840D01*
X145835Y476083D01*
X145934Y475326D01*
X146227Y474620D01*
X146692Y474014D01*
X147297Y473550D01*
X147332Y473535D01*
Y471935D01*
X143931D01*
Y469286D01*
X143931Y468970D01*
X143587Y468688D01*
X143502Y468664D01*
X142956Y468555D01*
X142493Y468246D01*
X142493Y468246D01*
X134660Y460413D01*
X134351Y459949D01*
X134242Y459403D01*
X134242Y459403D01*
Y458552D01*
X134207Y458537D01*
X133601Y458072D01*
X133136Y457466D01*
X132844Y456761D01*
X132744Y456004D01*
X132844Y455247D01*
X133136Y454541D01*
X133601Y453936D01*
X134207Y453471D01*
X134912Y453179D01*
X135669Y453079D01*
X136426Y453179D01*
X137132Y453471D01*
X137738Y453936D01*
X138202Y454541D01*
X138495Y455247D01*
X138594Y456004D01*
X138495Y456761D01*
X138202Y457466D01*
X137738Y458072D01*
X137310Y458400D01*
X137268Y458932D01*
X137295Y459011D01*
X143431Y465146D01*
X143931Y464939D01*
Y463087D01*
X143331D01*
Y461504D01*
X147283D01*
Y460504D01*
X143331D01*
Y458921D01*
X143931D01*
Y456787D01*
X143331D01*
Y455205D01*
X147283D01*
X151236D01*
Y456427D01*
X153265D01*
X153265Y456427D01*
X153446Y456278D01*
Y454496D01*
X156505D01*
Y456965D01*
X155047D01*
X154856Y457427D01*
X155662Y458232D01*
X155697Y458218D01*
X156454Y458118D01*
X157211Y458218D01*
X157916Y458510D01*
X158131Y458675D01*
X160003D01*
Y463412D01*
X159854D01*
Y467717D01*
Y474474D01*
X159829Y474664D01*
Y477374D01*
X157119D01*
X156929Y477399D01*
X156739Y477374D01*
X154029D01*
Y474664D01*
X154004Y474474D01*
Y467717D01*
Y465951D01*
X153504Y465549D01*
X153343Y465581D01*
X153343Y465581D01*
X151037D01*
X150636Y465821D01*
X150636Y466136D01*
Y468470D01*
X150636Y468786D01*
X150636Y469286D01*
Y471935D01*
X150187D01*
Y473535D01*
X150222Y473550D01*
X150828Y474014D01*
X151293Y474620D01*
X151585Y475326D01*
X151685Y476083D01*
X151585Y476840D01*
X151293Y477545D01*
X150828Y478151D01*
X150222Y478616D01*
X149517Y478908D01*
X148760Y479008D01*
D02*
G37*
G36*
X160564Y456965D02*
X157505D01*
Y454496D01*
X160564D01*
Y456965D01*
D02*
G37*
G36*
X107223Y456453D02*
X104164D01*
Y453984D01*
X107223D01*
Y456453D01*
D02*
G37*
G36*
X103164D02*
X100105D01*
Y453984D01*
X103164D01*
Y456453D01*
D02*
G37*
G36*
X160564Y453496D02*
X157505D01*
Y451028D01*
X160564D01*
Y453496D01*
D02*
G37*
G36*
X156505D02*
X153446D01*
Y451028D01*
X156505D01*
Y453496D01*
D02*
G37*
G36*
X107223Y452984D02*
X104164D01*
Y450516D01*
X107223D01*
Y452984D01*
D02*
G37*
G36*
X103164D02*
X100105D01*
Y450516D01*
X103164D01*
Y452984D01*
D02*
G37*
G36*
X117378Y457354D02*
X113425D01*
X109472D01*
Y455772D01*
X110072D01*
Y453538D01*
X110072Y453222D01*
X110072Y452722D01*
Y450388D01*
X110072Y450072D01*
X110072Y449572D01*
Y446923D01*
X116778D01*
Y449572D01*
X116778Y449888D01*
X116778Y450388D01*
Y452722D01*
X116778Y453038D01*
X116778Y453538D01*
Y455772D01*
X117378D01*
Y457354D01*
D02*
G37*
G36*
X121850Y455583D02*
X121093Y455483D01*
X120388Y455191D01*
X119782Y454726D01*
X119317Y454120D01*
X119025Y453414D01*
X118925Y452658D01*
X119025Y451900D01*
X119317Y451195D01*
X119782Y450589D01*
X120388Y450124D01*
X121093Y449832D01*
X121850Y449732D01*
X122608Y449832D01*
X123313Y450124D01*
X123919Y450589D01*
X124383Y451195D01*
X124398Y451230D01*
X126630D01*
X130435Y447425D01*
Y446281D01*
X130262Y445853D01*
X129935Y445853D01*
X127613D01*
X127297Y445853D01*
X126797Y445853D01*
X124463D01*
X124147Y445853D01*
X123647Y445853D01*
X121313D01*
X120998Y445853D01*
X120498Y445853D01*
X117848D01*
Y439147D01*
X120498D01*
X120813Y439147D01*
X121313Y439147D01*
X123277D01*
X123484Y438647D01*
X122997Y438161D01*
X109853D01*
X109463Y438083D01*
X109132Y437862D01*
X99356Y428087D01*
X87106D01*
X86923Y428529D01*
X86458Y429135D01*
X85852Y429600D01*
X85147Y429892D01*
X84390Y429992D01*
X83633Y429892D01*
X82927Y429600D01*
X82322Y429135D01*
X81857Y428529D01*
X81564Y427824D01*
X81465Y427067D01*
X81564Y426310D01*
X81857Y425604D01*
X82322Y424999D01*
X82927Y424534D01*
X83633Y424242D01*
X84390Y424142D01*
X85147Y424242D01*
X85852Y424534D01*
X86458Y424999D01*
X86923Y425604D01*
X87106Y426047D01*
X99779D01*
X100169Y426125D01*
X100500Y426346D01*
X110143Y435990D01*
X110402Y435958D01*
X110583Y435432D01*
X95560Y420409D01*
X84351D01*
X84167Y420852D01*
X83702Y421458D01*
X83096Y421923D01*
X82391Y422215D01*
X81634Y422315D01*
X80877Y422215D01*
X80171Y421923D01*
X79566Y421458D01*
X79101Y420852D01*
X78808Y420147D01*
X78709Y419390D01*
X78808Y418633D01*
X79101Y417927D01*
X79566Y417321D01*
X80171Y416857D01*
X80877Y416564D01*
X81634Y416465D01*
X82391Y416564D01*
X83096Y416857D01*
X83702Y417321D01*
X84167Y417927D01*
X84351Y418370D01*
X95983D01*
X96373Y418448D01*
X96704Y418669D01*
X111956Y433921D01*
X115511D01*
X115613Y433421D01*
X115388Y433271D01*
X94657Y412539D01*
X93985Y412817D01*
X93110Y412933D01*
X92235Y412817D01*
X91419Y412480D01*
X90719Y411942D01*
X90182Y411242D01*
X89844Y410426D01*
X89728Y409551D01*
X89844Y408676D01*
X90182Y407860D01*
X90719Y407160D01*
X91419Y406622D01*
X92235Y406285D01*
X93110Y406169D01*
X93985Y406285D01*
X94801Y406622D01*
X95501Y407160D01*
X96039Y407860D01*
X96377Y408676D01*
X96492Y409551D01*
X96377Y410426D01*
X96099Y411097D01*
X116531Y431530D01*
X117092D01*
X117245Y431201D01*
X117264Y431030D01*
X103319Y417085D01*
X103098Y416754D01*
X103021Y416364D01*
Y412888D01*
X95680Y405547D01*
X88556D01*
X86463Y407640D01*
Y412904D01*
X79757D01*
Y406198D01*
X85021D01*
X87413Y403807D01*
X87744Y403586D01*
X88134Y403508D01*
X91027D01*
X91127Y403008D01*
X91117Y403004D01*
X90291Y402370D01*
X89657Y401545D01*
X89259Y400583D01*
X89189Y400051D01*
X93110D01*
X97031D01*
X96961Y400583D01*
X96563Y401545D01*
X95929Y402370D01*
X95104Y403004D01*
X95094Y403008D01*
X95193Y403508D01*
X96102D01*
X96492Y403586D01*
X96823Y403807D01*
X104721Y411704D01*
X104891Y411684D01*
X105221Y411532D01*
Y400914D01*
X99912Y395606D01*
X95222D01*
X95110Y396073D01*
X95114Y396106D01*
X95929Y396732D01*
X96563Y397558D01*
X96961Y398519D01*
X97031Y399051D01*
X93110D01*
X89189D01*
X89259Y398519D01*
X89657Y397558D01*
X90291Y396732D01*
X91106Y396106D01*
X91111Y396073D01*
X90998Y395606D01*
X88497D01*
X86099Y398005D01*
X86377Y398676D01*
X86492Y399551D01*
X86377Y400426D01*
X86039Y401242D01*
X85501Y401942D01*
X84801Y402480D01*
X83986Y402817D01*
X83110Y402933D01*
X82235Y402817D01*
X81419Y402480D01*
X80719Y401942D01*
X80182Y401242D01*
X79844Y400426D01*
X79729Y399551D01*
X79844Y398676D01*
X80182Y397860D01*
X80719Y397160D01*
X81419Y396622D01*
X82235Y396285D01*
X83110Y396169D01*
X83986Y396285D01*
X84657Y396563D01*
X87354Y393866D01*
X87685Y393645D01*
X88075Y393567D01*
X100335D01*
X100725Y393645D01*
X101056Y393866D01*
X106961Y399771D01*
X107182Y400102D01*
X107260Y400492D01*
Y415030D01*
X119359Y427130D01*
X149843D01*
X150233Y427208D01*
X150564Y427429D01*
X155878Y432744D01*
X156099Y433074D01*
X156177Y433465D01*
Y446830D01*
X156099Y447220D01*
X155878Y447551D01*
X151620Y451809D01*
X151289Y452030D01*
X150899Y452108D01*
X150636D01*
Y452622D01*
X151236D01*
Y454205D01*
X147283D01*
X143331D01*
Y452622D01*
X143931D01*
Y450388D01*
X143931Y450072D01*
X143931D01*
Y449888D01*
X143931D01*
Y446923D01*
X150511D01*
X151382Y446052D01*
Y445965D01*
X151450Y445621D01*
Y434311D01*
X148509Y431369D01*
X135509D01*
X135357Y431699D01*
X135338Y431869D01*
X141632Y438164D01*
X141853Y438494D01*
X141931Y438884D01*
Y439147D01*
X142861D01*
Y445853D01*
X140211D01*
X139895Y445853D01*
X139395Y445853D01*
X137061D01*
X136746Y445853D01*
X136246Y445853D01*
X133912D01*
X133596Y445853D01*
X133290Y446226D01*
Y448017D01*
X133290Y448017D01*
X133181Y448563D01*
X132872Y449026D01*
X132871Y449026D01*
X128231Y453667D01*
X127768Y453976D01*
X127221Y454085D01*
X127221Y454085D01*
X124398D01*
X124383Y454120D01*
X123919Y454726D01*
X123313Y455191D01*
X122608Y455483D01*
X121850Y455583D01*
D02*
G37*
G36*
X82953Y439031D02*
X82077Y438916D01*
X81262Y438578D01*
X80562Y438041D01*
X80024Y437340D01*
X79686Y436525D01*
X79571Y435650D01*
X79686Y434774D01*
X80024Y433959D01*
X80562Y433258D01*
X81262Y432721D01*
X82077Y432383D01*
X82953Y432268D01*
X83828Y432383D01*
X84644Y432721D01*
X85344Y433258D01*
X85881Y433959D01*
X86219Y434774D01*
X86334Y435650D01*
X86219Y436525D01*
X85881Y437340D01*
X85344Y438041D01*
X84644Y438578D01*
X83828Y438916D01*
X82953Y439031D01*
D02*
G37*
G36*
X138812Y422161D02*
X136344D01*
Y419102D01*
X138812D01*
Y422161D01*
D02*
G37*
G36*
X52355D02*
X49887D01*
Y419102D01*
X52355D01*
Y422161D01*
D02*
G37*
G36*
X135344D02*
X132875D01*
Y419102D01*
X135344D01*
Y422161D01*
D02*
G37*
G36*
X131197Y422122D02*
X128728D01*
Y419063D01*
X131197D01*
Y422122D01*
D02*
G37*
G36*
X127728D02*
X125260D01*
Y419063D01*
X127728D01*
Y422122D01*
D02*
G37*
G36*
X138812Y418102D02*
X136344D01*
Y415043D01*
X138812D01*
Y418102D01*
D02*
G37*
G36*
X135344D02*
X132875D01*
Y415043D01*
X135344D01*
Y418102D01*
D02*
G37*
G36*
X52355D02*
X49887D01*
Y415043D01*
X52355D01*
Y418102D01*
D02*
G37*
G36*
X48887D02*
X46418D01*
Y415043D01*
X48887D01*
Y418102D01*
D02*
G37*
G36*
X131197Y418063D02*
X128728D01*
Y415004D01*
X131197D01*
Y418063D01*
D02*
G37*
G36*
X127728D02*
X125260D01*
Y415004D01*
X127728D01*
Y418063D01*
D02*
G37*
G36*
X44740Y418024D02*
X42272D01*
Y414965D01*
X44740D01*
Y418024D01*
D02*
G37*
G36*
X41272D02*
X38803D01*
Y414965D01*
X41272D01*
Y418024D01*
D02*
G37*
G36*
X46799Y413799D02*
Y410835D01*
X49764D01*
X49709Y411248D01*
X49356Y412100D01*
X48795Y412831D01*
X48064Y413392D01*
X47213Y413745D01*
X46799Y413799D01*
D02*
G37*
G36*
X45799D02*
X45386Y413745D01*
X44534Y413392D01*
X43803Y412831D01*
X43242Y412100D01*
X42889Y411248D01*
X42835Y410835D01*
X45799D01*
Y413799D01*
D02*
G37*
G36*
X49764Y409835D02*
X46799D01*
Y406870D01*
X47213Y406925D01*
X48064Y407277D01*
X48795Y407838D01*
X49356Y408569D01*
X49709Y409421D01*
X49764Y409835D01*
D02*
G37*
G36*
X45799D02*
X42835D01*
X42889Y409421D01*
X43242Y408569D01*
X43803Y407838D01*
X44534Y407277D01*
X45386Y406925D01*
X45799Y406870D01*
Y409835D01*
D02*
G37*
G36*
X145259Y421522D02*
X140522D01*
Y415604D01*
X140758D01*
Y406143D01*
X140554Y406116D01*
X139690Y405758D01*
X138948Y405189D01*
X138379Y404448D01*
X138022Y403584D01*
X137900Y402658D01*
X138022Y401731D01*
X138379Y400867D01*
X138948Y400126D01*
X139690Y399557D01*
X140554Y399199D01*
X141480Y399077D01*
X142407Y399199D01*
X143271Y399557D01*
X144012Y400126D01*
X144581Y400867D01*
X144939Y401731D01*
X145061Y402658D01*
X144939Y403584D01*
X144581Y404448D01*
X144012Y405189D01*
X143613Y405496D01*
Y415604D01*
X145259D01*
Y421522D01*
D02*
G37*
G36*
X123550Y421561D02*
X118813D01*
Y415643D01*
X120403D01*
Y405538D01*
X119948Y405189D01*
X119379Y404448D01*
X119022Y403584D01*
X118900Y402658D01*
X119022Y401731D01*
X119379Y400867D01*
X119948Y400126D01*
X120690Y399557D01*
X121554Y399199D01*
X122480Y399077D01*
X123407Y399199D01*
X124271Y399557D01*
X125012Y400126D01*
X125581Y400867D01*
X125939Y401731D01*
X126061Y402658D01*
X125939Y403584D01*
X125581Y404448D01*
X125012Y405189D01*
X124271Y405758D01*
X123407Y406116D01*
X123258Y406136D01*
Y415643D01*
X123550D01*
Y421561D01*
D02*
G37*
G36*
X93110Y392933D02*
X92235Y392817D01*
X91419Y392480D01*
X90719Y391942D01*
X90182Y391242D01*
X89844Y390426D01*
X89728Y389551D01*
X89844Y388676D01*
X90182Y387860D01*
X90719Y387160D01*
X91419Y386622D01*
X92235Y386285D01*
X93110Y386169D01*
X93985Y386285D01*
X94801Y386622D01*
X95501Y387160D01*
X96039Y387860D01*
X96377Y388676D01*
X96492Y389551D01*
X96377Y390426D01*
X96039Y391242D01*
X95501Y391942D01*
X94801Y392480D01*
X93985Y392817D01*
X93110Y392933D01*
D02*
G37*
G36*
X83110D02*
X82235Y392817D01*
X81419Y392480D01*
X80719Y391942D01*
X80182Y391242D01*
X79844Y390426D01*
X79729Y389551D01*
X79844Y388676D01*
X80182Y387860D01*
X80719Y387160D01*
X81419Y386622D01*
X82235Y386285D01*
X83110Y386169D01*
X83986Y386285D01*
X84801Y386622D01*
X85501Y387160D01*
X86039Y387860D01*
X86377Y388676D01*
X86492Y389551D01*
X86377Y390426D01*
X86039Y391242D01*
X85501Y391942D01*
X84801Y392480D01*
X83986Y392817D01*
X83110Y392933D01*
D02*
G37*
G36*
X83610Y383472D02*
Y380051D01*
X87031D01*
X86961Y380583D01*
X86563Y381544D01*
X85929Y382370D01*
X85104Y383004D01*
X84142Y383402D01*
X83610Y383472D01*
D02*
G37*
G36*
X82610D02*
X82078Y383402D01*
X81117Y383004D01*
X80291Y382370D01*
X79658Y381544D01*
X79259Y380583D01*
X79189Y380051D01*
X82610D01*
Y383472D01*
D02*
G37*
G36*
X93110Y382933D02*
X92235Y382818D01*
X91419Y382480D01*
X90719Y381942D01*
X90182Y381242D01*
X89844Y380426D01*
X89728Y379551D01*
X89844Y378676D01*
X90182Y377860D01*
X90719Y377160D01*
X91419Y376622D01*
X92235Y376285D01*
X93110Y376169D01*
X93985Y376285D01*
X94801Y376622D01*
X95501Y377160D01*
X96039Y377860D01*
X96377Y378676D01*
X96492Y379551D01*
X96377Y380426D01*
X96039Y381242D01*
X95501Y381942D01*
X94801Y382480D01*
X93985Y382818D01*
X93110Y382933D01*
D02*
G37*
G36*
X87031Y379051D02*
X83610D01*
Y375630D01*
X84142Y375700D01*
X85104Y376098D01*
X85929Y376732D01*
X86563Y377558D01*
X86961Y378519D01*
X87031Y379051D01*
D02*
G37*
G36*
X82610D02*
X79189D01*
X79259Y378519D01*
X79658Y377558D01*
X80291Y376732D01*
X81117Y376098D01*
X82078Y375700D01*
X82610Y375630D01*
Y379051D01*
D02*
G37*
G36*
X133571Y381112D02*
Y372744D01*
X141939D01*
X141816Y373984D01*
X141309Y375657D01*
X140485Y377198D01*
X139376Y378549D01*
X138025Y379658D01*
X136483Y380482D01*
X134810Y380990D01*
X133571Y381112D01*
D02*
G37*
G36*
X39083D02*
Y372744D01*
X47450D01*
X47328Y373984D01*
X46821Y375657D01*
X45997Y377198D01*
X44888Y378549D01*
X43537Y379658D01*
X41995Y380482D01*
X40322Y380990D01*
X39083Y381112D01*
D02*
G37*
G36*
X132571D02*
X131331Y380990D01*
X129658Y380482D01*
X128117Y379658D01*
X126766Y378549D01*
X125657Y377198D01*
X124833Y375657D01*
X124325Y373984D01*
X124203Y372744D01*
X132571D01*
Y381112D01*
D02*
G37*
G36*
X38083D02*
X36843Y380990D01*
X35170Y380482D01*
X33629Y379658D01*
X32277Y378549D01*
X31168Y377198D01*
X30345Y375657D01*
X29837Y373984D01*
X29715Y372744D01*
X38083D01*
Y381112D01*
D02*
G37*
G36*
X93110Y372933D02*
X92235Y372817D01*
X91419Y372480D01*
X90719Y371942D01*
X90182Y371242D01*
X89844Y370426D01*
X89728Y369551D01*
X89844Y368676D01*
X90182Y367860D01*
X90719Y367160D01*
X91419Y366622D01*
X92235Y366285D01*
X93110Y366169D01*
X93985Y366285D01*
X94801Y366622D01*
X95501Y367160D01*
X96039Y367860D01*
X96377Y368676D01*
X96492Y369551D01*
X96377Y370426D01*
X96039Y371242D01*
X95501Y371942D01*
X94801Y372480D01*
X93985Y372817D01*
X93110Y372933D01*
D02*
G37*
G36*
X83110D02*
X82235Y372817D01*
X81419Y372480D01*
X80719Y371942D01*
X80182Y371242D01*
X79844Y370426D01*
X79729Y369551D01*
X79844Y368676D01*
X80182Y367860D01*
X80719Y367160D01*
X81419Y366622D01*
X82235Y366285D01*
X83110Y366169D01*
X83986Y366285D01*
X84801Y366622D01*
X85501Y367160D01*
X86039Y367860D01*
X86377Y368676D01*
X86492Y369551D01*
X86377Y370426D01*
X86039Y371242D01*
X85501Y371942D01*
X84801Y372480D01*
X83986Y372817D01*
X83110Y372933D01*
D02*
G37*
G36*
X132571Y371744D02*
X124203D01*
X124325Y370504D01*
X124833Y368832D01*
X125657Y367290D01*
X126766Y365939D01*
X128117Y364830D01*
X129658Y364006D01*
X131331Y363498D01*
X132571Y363376D01*
Y371744D01*
D02*
G37*
G36*
X38083D02*
X29715D01*
X29837Y370504D01*
X30345Y368832D01*
X31168Y367290D01*
X32277Y365939D01*
X33629Y364830D01*
X35170Y364006D01*
X36843Y363498D01*
X38083Y363376D01*
Y371744D01*
D02*
G37*
G36*
X141939D02*
X133571D01*
Y363376D01*
X134810Y363498D01*
X136483Y364006D01*
X138025Y364830D01*
X139376Y365939D01*
X140485Y367290D01*
X141309Y368832D01*
X141816Y370504D01*
X141939Y371744D01*
D02*
G37*
G36*
X47450D02*
X39083D01*
Y363376D01*
X40322Y363498D01*
X41995Y364006D01*
X43537Y364830D01*
X44888Y365939D01*
X45997Y367290D01*
X46821Y368832D01*
X47328Y370504D01*
X47450Y371744D01*
D02*
G37*
%LPD*%
G36*
X142778Y496078D02*
X134358Y487658D01*
X134137Y487327D01*
X134059Y486937D01*
Y480065D01*
X133706Y479711D01*
X133096Y479711D01*
X130762D01*
X130447Y479711D01*
X129946Y479711D01*
X127613D01*
X127297Y479711D01*
X126797Y479711D01*
X124147Y479711D01*
X123975Y480139D01*
Y480253D01*
X140235Y496514D01*
X142406D01*
X142406Y496514D01*
X142531Y496538D01*
X142778Y496078D01*
D02*
G37*
G36*
X49329Y499754D02*
Y498004D01*
X49329Y498004D01*
X49437Y497458D01*
X49747Y496995D01*
X56092Y490649D01*
Y482831D01*
X55592Y482679D01*
X55379Y482998D01*
X55379Y482998D01*
X53825Y484552D01*
Y488451D01*
X51916D01*
Y489783D01*
X51916Y489783D01*
X51807Y490329D01*
X51498Y490792D01*
X51136Y491153D01*
X51388Y491763D01*
X51488Y492520D01*
X51388Y493277D01*
X51096Y493982D01*
X50631Y494588D01*
X50025Y495053D01*
X49320Y495345D01*
X48563Y495445D01*
X47806Y495345D01*
X47100Y495053D01*
X46495Y494588D01*
X46030Y493982D01*
X45738Y493277D01*
X45638Y492520D01*
X45738Y491763D01*
X46030Y491057D01*
X46495Y490451D01*
X47100Y489987D01*
X47806Y489694D01*
X48563Y489595D01*
X48647Y489606D01*
X49061Y489191D01*
Y486461D01*
X49061Y486461D01*
X49088Y486323D01*
Y482533D01*
X51806D01*
X52943Y481397D01*
Y479324D01*
X52703Y478924D01*
X52387Y478924D01*
X50054D01*
X49738Y478924D01*
X49238Y478924D01*
X47004D01*
Y479524D01*
X45421D01*
Y475571D01*
Y471618D01*
X47004D01*
Y472218D01*
X49238D01*
X49553Y472218D01*
X50054Y472218D01*
X52209D01*
X52416Y471718D01*
X46705Y466007D01*
X46395Y465544D01*
X46287Y464998D01*
X46287Y464998D01*
Y455274D01*
X46287Y455274D01*
X46395Y454728D01*
X46705Y454265D01*
X49793Y451177D01*
Y445665D01*
X48571D01*
Y441713D01*
X47571D01*
Y445665D01*
X45988D01*
Y445065D01*
X43854D01*
Y445665D01*
X42272D01*
Y441713D01*
Y437760D01*
X43427D01*
Y434911D01*
X42356D01*
Y431121D01*
X42328Y430983D01*
X42329Y430983D01*
Y428860D01*
X40646D01*
Y431491D01*
X37677D01*
X34709D01*
Y428860D01*
X33799D01*
X33253Y428751D01*
X32790Y428441D01*
X32790Y428441D01*
X28611Y424262D01*
X27835D01*
X27665Y424762D01*
X28185Y425161D01*
X28746Y425892D01*
X29099Y426744D01*
X29153Y427157D01*
X22225D01*
X22279Y426744D01*
X22632Y425892D01*
X23057Y425338D01*
X22681Y425007D01*
X18221Y429467D01*
Y431720D01*
X18721Y431819D01*
X18727Y431805D01*
X19192Y431199D01*
X19797Y430735D01*
X20503Y430442D01*
X21260Y430343D01*
X22017Y430442D01*
X22722Y430735D01*
X23328Y431199D01*
X23793Y431805D01*
X24085Y432511D01*
X24185Y433268D01*
X24085Y434025D01*
X23793Y434730D01*
X23328Y435336D01*
X22722Y435801D01*
X22279Y435984D01*
Y438889D01*
X23881Y440491D01*
X24258Y440160D01*
X23943Y439750D01*
X23651Y439045D01*
X23551Y438287D01*
X23651Y437530D01*
X23943Y436825D01*
X24408Y436219D01*
X25014Y435754D01*
X25719Y435462D01*
X26476Y435362D01*
X27233Y435462D01*
X27939Y435754D01*
X28545Y436219D01*
X29010Y436825D01*
X29193Y437268D01*
X33917D01*
X34308Y437345D01*
X34638Y437566D01*
X35432Y438360D01*
X36955Y438360D01*
X37455Y438360D01*
X39689D01*
Y437760D01*
X41272D01*
Y441713D01*
Y445665D01*
X39689D01*
X39543Y446105D01*
Y448003D01*
X40091Y448551D01*
X40312Y448881D01*
X40390Y449272D01*
Y450630D01*
X40833Y450813D01*
X41438Y451278D01*
X41903Y451884D01*
X42195Y452589D01*
X42295Y453346D01*
X42195Y454104D01*
X41903Y454809D01*
X41438Y455415D01*
X40833Y455880D01*
X40127Y456172D01*
X39370Y456272D01*
X38613Y456172D01*
X37908Y455880D01*
X37302Y455415D01*
X36837Y454809D01*
X36545Y454104D01*
X36445Y453346D01*
X36545Y452589D01*
X36837Y451884D01*
X37302Y451278D01*
X37908Y450813D01*
X38350Y450630D01*
Y449694D01*
X37803Y449146D01*
X37582Y448815D01*
X37504Y448425D01*
Y445419D01*
X37150Y445065D01*
X36639Y445065D01*
X33990D01*
Y439802D01*
X33495Y439307D01*
X29193D01*
X29010Y439750D01*
X28545Y440356D01*
X27939Y440821D01*
X27233Y441113D01*
X26476Y441212D01*
X25719Y441113D01*
X25014Y440821D01*
X24603Y440506D01*
X24273Y440882D01*
X29526Y446135D01*
X32920D01*
Y448785D01*
X32920Y449101D01*
X32920Y449601D01*
Y451935D01*
X32920Y452250D01*
X32920Y452750D01*
Y455084D01*
X32920Y455400D01*
X32920Y455900D01*
Y458054D01*
X33420Y458154D01*
X33530Y457888D01*
X33995Y457282D01*
X34600Y456817D01*
X35306Y456525D01*
X36063Y456425D01*
X36820Y456525D01*
X37525Y456817D01*
X38131Y457282D01*
X38596Y457888D01*
X38888Y458593D01*
X38988Y459350D01*
X38888Y460107D01*
X38596Y460813D01*
X38131Y461419D01*
X37525Y461883D01*
X36820Y462176D01*
X36063Y462275D01*
X35306Y462176D01*
X34600Y461883D01*
X34218Y461590D01*
X33298D01*
X32920Y461883D01*
X32920Y462199D01*
Y462780D01*
X34320D01*
X34710Y462857D01*
X35041Y463078D01*
X37198Y465236D01*
X37652Y464888D01*
X38357Y464596D01*
X39114Y464496D01*
X39871Y464596D01*
X40577Y464888D01*
X41183Y465353D01*
X41647Y465959D01*
X41939Y466664D01*
X42039Y467421D01*
X41939Y468178D01*
X41647Y468884D01*
X41183Y469490D01*
X40577Y469954D01*
X39871Y470247D01*
X39114Y470346D01*
X38357Y470247D01*
X37652Y469954D01*
X37046Y469490D01*
X36581Y468884D01*
X36289Y468178D01*
X36189Y467421D01*
X36225Y467147D01*
X33897Y464819D01*
X33331D01*
X32920Y465033D01*
X32920Y465349D01*
Y467683D01*
X32920Y467998D01*
X32920Y468498D01*
Y471148D01*
X26214D01*
Y468498D01*
X26214Y468183D01*
X26214Y467683D01*
Y465349D01*
X26214Y465033D01*
X26214Y464533D01*
Y462199D01*
X26214Y461883D01*
X26214Y461383D01*
Y459050D01*
X26214Y458734D01*
X25841Y458427D01*
X23193D01*
Y459233D01*
X21721D01*
Y475076D01*
X44570Y497925D01*
X44833Y497816D01*
X45709Y497701D01*
X46584Y497816D01*
X47400Y498154D01*
X48100Y498692D01*
X48637Y499392D01*
X48829Y499853D01*
X49329Y499754D01*
D02*
G37*
G36*
X52780Y499392D02*
X53317Y498692D01*
X54018Y498154D01*
X54833Y497816D01*
X55709Y497701D01*
X56584Y497816D01*
X56847Y497925D01*
X61998Y492775D01*
Y471148D01*
X60072D01*
Y468498D01*
X60072Y468183D01*
X60072Y467683D01*
Y465349D01*
X60072Y465033D01*
X60072Y464533D01*
Y462199D01*
X60072Y461883D01*
X60072Y461026D01*
X59572Y460977D01*
X59544Y461119D01*
X59323Y461449D01*
X58142Y462630D01*
X57811Y462851D01*
X57421Y462929D01*
X53732D01*
X53683Y462993D01*
X53077Y463458D01*
X52371Y463751D01*
X51614Y463850D01*
X50857Y463751D01*
X50152Y463458D01*
X49642Y463067D01*
X49142Y463217D01*
Y464406D01*
X55313Y470577D01*
X55313Y470577D01*
X55622Y471040D01*
X55731Y471587D01*
Y471845D01*
X56037Y472218D01*
X56353Y472218D01*
X59002D01*
Y478924D01*
X58947D01*
Y491240D01*
X58947Y491240D01*
X58838Y491786D01*
X58529Y492249D01*
X52183Y498595D01*
Y499526D01*
X52683Y499625D01*
X52780Y499392D01*
D02*
G37*
G36*
X57583Y460306D02*
Y455020D01*
X57660Y454630D01*
X57881Y454299D01*
X58570Y453610D01*
X58901Y453389D01*
X59291Y453311D01*
X60072D01*
Y452435D01*
X60072D01*
Y452287D01*
X59983Y451787D01*
X58907D01*
X56717Y453976D01*
X56803Y454626D01*
X56703Y455383D01*
X56411Y456088D01*
X55946Y456694D01*
X55340Y457159D01*
X54635Y457451D01*
X53878Y457551D01*
X53121Y457451D01*
X52415Y457159D01*
X51810Y456694D01*
X51345Y456088D01*
X51053Y455383D01*
X50969Y454746D01*
X50509Y454498D01*
X49142Y455866D01*
Y458633D01*
X49642Y458783D01*
X50152Y458392D01*
X50857Y458100D01*
X51614Y458000D01*
X52371Y458100D01*
X53077Y458392D01*
X53683Y458857D01*
X54147Y459463D01*
X54440Y460168D01*
X54535Y460890D01*
X56999D01*
X57583Y460306D01*
D02*
G37*
%LPC*%
G36*
X47378Y489090D02*
X44910D01*
Y486031D01*
X47378D01*
Y489090D01*
D02*
G37*
G36*
X43909D02*
X41441D01*
Y486031D01*
X43909D01*
Y489090D01*
D02*
G37*
G36*
X47378Y485032D02*
X44910D01*
Y481973D01*
X47378D01*
Y485032D01*
D02*
G37*
G36*
X43909D02*
X41441D01*
Y481973D01*
X43909D01*
Y485032D01*
D02*
G37*
G36*
X44421Y479524D02*
X42839D01*
Y478924D01*
X40605D01*
X40289Y478924D01*
X39789Y478924D01*
X37455D01*
X37139Y478924D01*
X36639Y478924D01*
X33990D01*
Y472218D01*
X36639D01*
X36955Y472218D01*
X37455Y472218D01*
X39789D01*
X40105Y472218D01*
X40605Y472218D01*
X42839D01*
Y471618D01*
X44421D01*
Y475571D01*
Y479524D01*
D02*
G37*
G36*
X40646Y435550D02*
X38177D01*
Y432491D01*
X40646D01*
Y435550D01*
D02*
G37*
G36*
X37177D02*
X34709D01*
Y432491D01*
X37177D01*
Y435550D01*
D02*
G37*
G36*
X26189Y431122D02*
Y428158D01*
X29153D01*
X29099Y428571D01*
X28746Y429423D01*
X28185Y430154D01*
X27454Y430715D01*
X26603Y431067D01*
X26189Y431122D01*
D02*
G37*
G36*
X25189D02*
X24775Y431067D01*
X23924Y430715D01*
X23193Y430154D01*
X22632Y429423D01*
X22279Y428571D01*
X22225Y428158D01*
X25189D01*
Y431122D01*
D02*
G37*
%LPD*%
G36*
X139232Y438647D02*
X134154Y433569D01*
X126902D01*
X126800Y434069D01*
X127026Y434220D01*
X129500Y436695D01*
X129721Y437025D01*
X129799Y437416D01*
Y438794D01*
X130153Y439147D01*
X130762Y439147D01*
X133096D01*
X133412Y439147D01*
X133912Y439147D01*
X136246D01*
X136561Y439147D01*
X137061Y439147D01*
X139025D01*
X139232Y438647D01*
D02*
G37*
D12*
X157044Y461043D02*
X158501Y462500D01*
D29*
X35472Y441713D02*
D03*
X38622D02*
D03*
X41772D02*
D03*
X44921D02*
D03*
X48071D02*
D03*
X51221D02*
D03*
X54370D02*
D03*
X57520D02*
D03*
Y475571D02*
D03*
X54370D02*
D03*
X51221D02*
D03*
X48071D02*
D03*
X44921D02*
D03*
X41772D02*
D03*
X38622D02*
D03*
X35472D02*
D03*
D30*
X63425Y447618D02*
D03*
Y450768D02*
D03*
Y453917D02*
D03*
Y457067D02*
D03*
Y460217D02*
D03*
Y463366D02*
D03*
Y466516D02*
D03*
Y469665D02*
D03*
X29567D02*
D03*
Y466516D02*
D03*
Y463366D02*
D03*
Y460217D02*
D03*
Y457067D02*
D03*
Y453917D02*
D03*
Y450768D02*
D03*
Y447618D02*
D03*
D31*
X147283Y448406D02*
D03*
Y451555D02*
D03*
Y454705D02*
D03*
Y457854D02*
D03*
Y461004D02*
D03*
Y464153D02*
D03*
Y467303D02*
D03*
Y470453D02*
D03*
X113425D02*
D03*
Y467303D02*
D03*
Y464153D02*
D03*
Y461004D02*
D03*
Y457854D02*
D03*
Y454705D02*
D03*
Y451555D02*
D03*
Y448406D02*
D03*
D32*
X141378Y476358D02*
D03*
X138228D02*
D03*
X135079D02*
D03*
X131929D02*
D03*
X128779D02*
D03*
X125630D02*
D03*
X122480D02*
D03*
X119331D02*
D03*
Y442500D02*
D03*
X122480D02*
D03*
X125630D02*
D03*
X128779D02*
D03*
X131929D02*
D03*
X135079D02*
D03*
X138228D02*
D03*
X141378D02*
D03*
D33*
X56434Y418563D02*
D03*
X49387Y418602D02*
D03*
X34724Y418563D02*
D03*
X41772Y418524D02*
D03*
X142891Y418563D02*
D03*
X135844Y418602D02*
D03*
X121181D02*
D03*
X128228Y418563D02*
D03*
X51457Y485492D02*
D03*
X44409Y485532D02*
D03*
X44724Y431952D02*
D03*
X37677Y431991D02*
D03*
D34*
X20293Y456333D02*
D03*
Y447933D02*
D03*
X156929Y482874D02*
D03*
Y474474D02*
D03*
D35*
X103704Y460532D02*
D03*
X103664Y453484D02*
D03*
X157044Y461043D02*
D03*
X157005Y453996D02*
D03*
D36*
X44854Y441512D02*
X44988Y441646D01*
X16793Y438152D02*
Y444433D01*
Y428876D02*
Y438152D01*
X127221Y452658D02*
X131862Y448017D01*
X121850Y452658D02*
X127221D01*
X16793Y428876D02*
X22835Y422835D01*
X29202D01*
X33799Y427432D01*
X29117Y431086D02*
X36772D01*
X25689Y427658D02*
X29117Y431086D01*
X16793Y444433D02*
X20293Y447933D01*
X33799Y427432D02*
X42950D01*
X51221Y441713D02*
Y451768D01*
X47714Y455274D02*
Y464998D01*
Y455274D02*
X51221Y451768D01*
X43583Y448091D02*
Y465109D01*
X44921Y466447D01*
Y475571D01*
X47714Y464998D02*
X54303Y471587D01*
X149629Y483383D02*
X149662Y483415D01*
X156388D01*
X156929Y482874D01*
X131862Y442567D02*
Y448017D01*
Y442567D02*
X131929Y442500D01*
X43756Y430983D02*
X44724Y431952D01*
X44854Y432082D01*
X148760Y470463D02*
Y476083D01*
X147293Y470463D02*
X148760D01*
X147283Y470453D02*
X147293Y470463D01*
X69173Y468549D02*
Y497618D01*
X142008Y454075D02*
Y455965D01*
X138425Y450492D02*
X142008Y454075D01*
X134193Y450492D02*
X138425D01*
X126831Y457854D02*
X134193Y450492D01*
X113425Y457854D02*
X126831D01*
X135669Y459403D02*
X143502Y467236D01*
X135669Y456004D02*
Y459403D01*
X142008Y455965D02*
Y459765D01*
Y455965D02*
X143201Y454772D01*
X147216D01*
X142008Y459765D02*
X143179Y460937D01*
X55709Y511083D02*
X69173Y497618D01*
X67206Y466583D02*
X69173Y468549D01*
X136812Y422952D02*
X139409Y425550D01*
X136812Y419571D02*
Y422952D01*
X135844Y418602D02*
X136812Y419571D01*
X139409Y425550D02*
X150919D01*
X157757Y432388D01*
Y453243D01*
X157005Y453996D02*
X157757Y453243D01*
X46299Y398031D02*
X58602Y385728D01*
X64780Y379551D01*
X46299Y410335D02*
Y411146D01*
Y398031D02*
Y410335D01*
X64780Y379551D02*
X83110D01*
X48418Y417634D02*
X49347Y418563D01*
X49387Y418602D01*
X46299Y411146D02*
X48418Y413266D01*
Y417634D01*
X36772Y431086D02*
X37677Y431991D01*
X43756Y428238D02*
Y430983D01*
X42950Y427432D02*
X43756Y428238D01*
X35362Y419201D02*
Y423297D01*
X47145D01*
X34724Y418563D02*
X35362Y419201D01*
X34724Y406931D02*
Y418563D01*
X48004Y441780D02*
Y446919D01*
X46832Y448091D02*
X48004Y446919D01*
X43583Y448091D02*
X46832D01*
X41839Y446347D02*
X43583Y448091D01*
X54303Y471587D02*
Y475504D01*
X54370Y475571D01*
X47145Y423297D02*
X54370Y430522D01*
X48563Y491708D02*
Y492520D01*
Y491708D02*
X50488Y489783D01*
Y486461D02*
Y489783D01*
Y486461D02*
X51457Y485492D01*
X50756Y498004D02*
Y506035D01*
Y498004D02*
X57520Y491240D01*
Y475571D02*
Y491240D01*
X109644Y457787D02*
X113358D01*
X105591Y453484D02*
X108472Y456366D01*
Y456616D01*
X109644Y457787D01*
X103664Y453484D02*
X105591D01*
X113358Y457787D02*
X113425Y457854D01*
X103704Y464665D02*
X106342Y467303D01*
X113425D01*
X63425Y469665D02*
Y493366D01*
X55709Y501083D02*
X63425Y493366D01*
X143502Y467236D02*
X147216D01*
X125307Y492089D02*
Y507846D01*
X130354Y512894D01*
X119398Y481937D02*
X140354Y502894D01*
X122547Y480844D02*
X139644Y497941D01*
X142406D01*
X119398Y476425D02*
Y481937D01*
X113425Y480207D02*
X125307Y492089D01*
X122547Y476425D02*
Y480844D01*
X142406Y497941D02*
X145945Y501480D01*
Y507303D01*
X140354Y512894D02*
X145945Y507303D01*
X113425Y470453D02*
Y480207D01*
X63492Y466583D02*
X67206D01*
X55466Y413846D02*
X56677Y412635D01*
Y402815D02*
Y412635D01*
X37677Y402815D02*
Y403978D01*
X34724Y406931D02*
X37677Y403978D01*
X44854Y475638D02*
X44921Y475571D01*
X44854Y475638D02*
Y485087D01*
X44409Y485532D02*
X44854Y485087D01*
X54370Y475571D02*
Y481988D01*
X51457Y484902D02*
X54370Y481988D01*
X51457Y484902D02*
Y485492D01*
X45709Y511083D02*
X50756Y506035D01*
X63425Y466516D02*
X63492Y466583D01*
X20293Y456333D02*
Y475667D01*
X45709Y501083D01*
X122480Y476358D02*
X122547Y476425D01*
X119331Y476358D02*
X119398Y476425D01*
X147283Y454705D02*
X147350Y454638D01*
X156363D01*
X157005Y453996D01*
X147216Y454772D02*
X147283Y454705D01*
X143179Y460937D02*
X147216D01*
X147283Y461004D01*
X37677Y431991D02*
Y432582D01*
X41705Y436609D01*
Y441646D01*
X41772Y441713D01*
X41839Y441780D02*
Y446347D01*
X41772Y441713D02*
X41839Y441780D01*
X48004Y441780D02*
X48071Y441713D01*
X44854Y432082D02*
X45115Y432342D01*
X47520D02*
X51153Y435976D01*
Y441646D01*
X51221Y441713D01*
X45115Y432342D02*
X47520D01*
X44854Y432082D02*
Y441512D01*
X147216Y467236D02*
X147283Y467303D01*
X142185Y417858D02*
X142891Y418563D01*
X142185Y403363D02*
Y417858D01*
X141480Y402658D02*
X142185Y403363D01*
X121181Y418602D02*
X121831Y417953D01*
Y403307D02*
Y417953D01*
Y403307D02*
X122480Y402658D01*
X147283Y457854D02*
X153265D01*
X156454Y461043D01*
X153343Y464153D02*
X156454Y461043D01*
X147283Y464153D02*
X153343D01*
X57520Y422657D02*
Y441713D01*
X57362Y422500D02*
X57520Y422657D01*
X57362Y419491D02*
Y422500D01*
X56434Y418563D02*
X57362Y419491D01*
X54370Y430522D02*
Y441713D01*
X55466Y413846D02*
Y417594D01*
X56434Y418563D01*
X29500Y457000D02*
X29567Y457067D01*
X20960Y457000D02*
X29500D01*
X20293Y456333D02*
X20960Y457000D01*
X44921Y441713D02*
X44988Y441646D01*
D37*
X156454Y461043D02*
X156929Y461519D01*
X26697Y501256D02*
X35535D01*
X35709Y501083D01*
X22539Y505413D02*
X26697Y501256D01*
X22539Y505413D02*
Y522584D01*
X29134Y529178D01*
X52067Y385728D02*
X58602D01*
X38583Y372244D02*
X52067Y385728D01*
X126909Y393406D02*
X132697Y387618D01*
Y372618D02*
Y387618D01*
Y372618D02*
X133071Y372244D01*
X146814Y542205D02*
X152756Y536263D01*
Y533661D02*
Y536263D01*
X146814Y542205D02*
Y567421D01*
X58222Y536807D02*
X67894D01*
X35709Y515802D02*
X56714Y536807D01*
X35709Y511083D02*
Y515802D01*
X138579Y567421D02*
X146814D01*
X112362Y555709D02*
X126867D01*
X97894Y570177D02*
X112362Y555709D01*
X126867D02*
X138579Y567421D01*
X32471Y562559D02*
X58222Y536807D01*
X32471Y562559D02*
Y567028D01*
X156929Y467717D02*
Y474474D01*
Y461519D02*
Y467717D01*
X32471Y567028D02*
X35168Y569724D01*
X67441D01*
X67894Y570177D01*
X103704Y460532D02*
Y464665D01*
Y501007D01*
Y460059D02*
Y460532D01*
X103645Y460000D02*
X103704Y460059D01*
X97548Y460000D02*
X103645D01*
X93198Y455650D02*
X97548Y460000D01*
X92953Y455650D02*
X93198D01*
X103704Y501007D02*
X115591Y512894D01*
X120354D01*
X67894Y570177D02*
X81968Y556102D01*
X97480D01*
X118445Y535138D01*
X67894Y536807D02*
X82953Y521748D01*
X92953D01*
X82953Y455650D02*
X92953D01*
X128248Y418583D02*
X135824D01*
X135844Y418602D01*
X128228Y418563D02*
X128248Y418583D01*
X41772Y418524D02*
X41811Y418563D01*
X49347D01*
D38*
X22938Y529178D02*
X29134D01*
X32471Y567028D02*
Y569323D01*
X68445Y447933D02*
X75728Y440650D01*
X68445Y447933D02*
Y455196D01*
X75728Y440650D02*
X87953D01*
X65295Y447618D02*
X67422Y445491D01*
Y442263D02*
Y445491D01*
Y442263D02*
X68150Y441535D01*
X63425Y447618D02*
X65295D01*
X26476Y438287D02*
X33917D01*
X35472Y439843D01*
X21260Y439311D02*
X29567Y447618D01*
X21260Y433268D02*
Y439311D01*
X44783Y516634D02*
X78067D01*
X40787Y512638D02*
X44783Y516634D01*
X40787Y506161D02*
Y512638D01*
X39370Y449272D02*
Y453346D01*
X38524Y448425D02*
X39370Y449272D01*
X38524Y441811D02*
Y448425D01*
X88106Y384547D02*
X100236D01*
X83110Y379551D02*
X88106Y384547D01*
X100236D02*
X109095Y393406D01*
X88075Y394587D02*
X100335D01*
X83110Y399551D02*
X88075Y394587D01*
X100335D02*
X106240Y400492D01*
Y415453D02*
X118937Y428150D01*
X104040Y416364D02*
X118026Y430350D01*
X93110Y409551D02*
X116109Y432550D01*
X134576D01*
X104040Y412465D02*
Y416364D01*
X118026Y430350D02*
X148931D01*
X118937Y428150D02*
X149843D01*
X106240Y400492D02*
Y415453D01*
X78067Y516634D02*
X82953Y511748D01*
X35709Y501083D02*
X40787Y506161D01*
X87933Y470669D02*
Y506768D01*
Y470669D02*
X92953Y465650D01*
X82953Y511748D02*
X87933Y506768D01*
X37942Y467421D02*
X39114D01*
X34320Y463799D02*
X37942Y467421D01*
X29921Y460571D02*
X34843D01*
X36063Y459350D01*
X84390Y427067D02*
X99779D01*
X109853Y437141D01*
X95983Y419390D02*
X111534Y434941D01*
X81634Y419390D02*
X95983D01*
X58602Y385728D02*
Y386024D01*
X76910Y404331D01*
X84769D01*
X88648Y400451D01*
X92210D01*
X93110Y399551D01*
X83110Y409551D02*
X88134Y404528D01*
X96102D01*
X109853Y437141D02*
X123419D01*
X111534Y434941D02*
X126305D01*
X125163Y442033D02*
X125630Y442500D01*
X125163Y438884D02*
Y442033D01*
X123419Y437141D02*
X125163Y438884D01*
X126305Y434941D02*
X128779Y437416D01*
Y442500D01*
X53878Y454626D02*
X54626D01*
X58484Y450768D01*
X51614Y460925D02*
X52697D01*
X53681Y461909D01*
X57421D01*
X58602Y460728D01*
Y455020D02*
Y460728D01*
Y455020D02*
X59291Y454331D01*
X58484Y450768D02*
X63425D01*
X59291Y454331D02*
X63012D01*
X63425Y463366D02*
X70335D01*
X73858Y459842D01*
X63425Y460217D02*
X66890D01*
X76516Y450591D01*
X95807D01*
X67041Y456600D02*
X68445Y455196D01*
X63892Y456600D02*
X67041D01*
X30000Y463799D02*
X34320D01*
X29567Y463366D02*
X30000Y463799D01*
X29567Y460217D02*
X29921Y460571D01*
X35472Y439843D02*
Y441713D01*
X38524Y441811D02*
X38622Y441713D01*
X140911Y442033D02*
X141378Y442500D01*
X140911Y438884D02*
Y442033D01*
X134576Y432550D02*
X140911Y438884D01*
X147649Y448040D02*
X150836D01*
X147283Y448406D02*
X147649Y448040D01*
X150836D02*
X152402Y446474D01*
Y445965D02*
Y446474D01*
Y445965D02*
X152470Y445896D01*
Y433888D02*
Y445896D01*
X148931Y430350D02*
X152470Y433888D01*
X155157Y433465D02*
Y446830D01*
X149843Y428150D02*
X155157Y433465D01*
X150899Y451088D02*
X155157Y446830D01*
X96102Y404528D02*
X104040Y412465D01*
X147750Y451088D02*
X150899D01*
X147283Y451555D02*
X147750Y451088D01*
X121398Y468012D02*
X125163Y471777D01*
Y475891D01*
X125630Y476358D01*
X128386Y466535D02*
X128583Y466732D01*
Y476161D01*
X128779Y476358D01*
X131929Y470472D02*
Y476358D01*
Y470472D02*
X135866Y466535D01*
X118347Y524209D02*
X147407D01*
X153750Y517866D01*
Y499386D02*
Y517866D01*
X141378Y487014D02*
X153750Y499386D01*
X141378Y476358D02*
Y487014D01*
X100807Y541748D02*
X118347Y524209D01*
X92953Y541748D02*
X100807D01*
X117165Y522009D02*
X146496D01*
X151550Y516955D01*
Y500297D02*
Y516955D01*
X138228Y486975D02*
X151550Y500297D01*
X138228Y476358D02*
Y486975D01*
X102363Y536811D02*
X117165Y522009D01*
X87890Y536811D02*
X102363D01*
X82953Y541748D02*
X87890Y536811D01*
X149350Y501209D02*
Y516043D01*
X135079Y486937D02*
X149350Y501209D01*
X135079Y476358D02*
Y486937D01*
X145610Y519783D02*
X149350Y516043D01*
X116279Y519783D02*
X145610D01*
X109390Y526673D02*
X116279Y519783D01*
X88028Y526673D02*
X109390D01*
X82953Y531748D02*
X88028Y526673D01*
X63012Y454331D02*
X63425Y453917D01*
X95807Y450591D02*
X98465Y447933D01*
Y441161D02*
Y447933D01*
X92953Y435650D02*
X98465Y441161D01*
X63425Y457067D02*
X63892Y456600D01*
X87953Y440650D02*
X92953Y445650D01*
D39*
X68150Y441535D02*
Y442212D01*
X109095Y393406D02*
X126909D01*
X131043Y397539D01*
Y413212D01*
X135844Y418012D01*
Y418602D01*
X73858Y480899D02*
X82953Y489994D01*
X73858Y473425D02*
Y480899D01*
X82953Y489994D02*
Y501748D01*
D40*
X29134Y532087D02*
D03*
X152756Y533661D02*
D03*
X38583Y372244D02*
D03*
X133071D02*
D03*
D41*
X32471Y567028D02*
D03*
X146814Y567421D02*
D03*
D42*
X141480Y402658D02*
D03*
X122480D02*
D03*
X56677Y402815D02*
D03*
X37677D02*
D03*
D43*
X55709Y511083D02*
D03*
X140354Y512894D02*
D03*
X67894Y570177D02*
D03*
D44*
X55709Y501083D02*
D03*
X45709Y511083D02*
D03*
Y501083D02*
D03*
X35709Y511083D02*
D03*
Y501083D02*
D03*
X140354Y502894D02*
D03*
X130354Y512894D02*
D03*
Y502894D02*
D03*
X120354Y512894D02*
D03*
Y502894D02*
D03*
X93110Y369551D02*
D03*
X83110D02*
D03*
X93110Y379551D02*
D03*
X83110D02*
D03*
X93110Y389551D02*
D03*
X83110D02*
D03*
X93110Y399551D02*
D03*
X83110D02*
D03*
X93110Y409551D02*
D03*
X107894Y580177D02*
D03*
Y570177D02*
D03*
X97894Y580177D02*
D03*
Y570177D02*
D03*
X87894Y580177D02*
D03*
Y570177D02*
D03*
X77894Y580177D02*
D03*
Y570177D02*
D03*
X67894Y580177D02*
D03*
X92953Y435650D02*
D03*
X82953D02*
D03*
X92953Y445650D02*
D03*
X82953D02*
D03*
X92953Y455650D02*
D03*
X82953D02*
D03*
X92953Y465650D02*
D03*
X82953D02*
D03*
X92953Y475650D02*
D03*
Y501748D02*
D03*
X82953D02*
D03*
X92953Y511748D02*
D03*
X82953D02*
D03*
X92953Y521748D02*
D03*
X82953D02*
D03*
X92953Y531748D02*
D03*
X82953D02*
D03*
X92953Y541748D02*
D03*
D45*
X83110Y409551D02*
D03*
X82953Y475650D02*
D03*
Y541748D02*
D03*
D46*
X121850Y452658D02*
D03*
X26476Y438287D02*
D03*
X21260Y433268D02*
D03*
X25689Y427658D02*
D03*
X39370Y453346D02*
D03*
X148760Y476083D02*
D03*
X156929Y467717D02*
D03*
X149055Y483957D02*
D03*
X135669Y456004D02*
D03*
X39114Y467421D02*
D03*
X36063Y459350D02*
D03*
X84390Y427067D02*
D03*
X81634Y419390D02*
D03*
X73858Y473425D02*
D03*
X46299Y410335D02*
D03*
X53878Y454626D02*
D03*
X51614Y460925D02*
D03*
X48563Y492520D02*
D03*
X73858Y459842D02*
D03*
X118445Y535138D02*
D03*
X121398Y468012D02*
D03*
X128386Y466535D02*
D03*
X135866D02*
D03*
X68150Y441535D02*
D03*
M02*
