G04*
G04 #@! TF.GenerationSoftware,Altium Limited,Altium Designer,19.1.5 (86)*
G04*
G04 Layer_Color=8388736*
%FSLAX25Y25*%
%MOIN*%
G70*
G01*
G75*
%ADD12C,0.06706*%
%ADD13R,0.06706X0.06706*%
%ADD14C,0.06800*%
D12*
X324705Y15807D02*
D03*
Y25807D02*
D03*
Y35807D02*
D03*
Y45807D02*
D03*
Y55807D02*
D03*
Y65807D02*
D03*
Y75807D02*
D03*
Y85807D02*
D03*
Y95807D02*
D03*
Y105807D02*
D03*
Y115807D02*
D03*
Y125807D02*
D03*
Y135807D02*
D03*
Y145807D02*
D03*
Y155807D02*
D03*
Y165807D02*
D03*
Y175807D02*
D03*
Y185807D02*
D03*
Y195807D02*
D03*
X196752Y205807D02*
D03*
Y195807D02*
D03*
Y185807D02*
D03*
Y175807D02*
D03*
Y165807D02*
D03*
Y155807D02*
D03*
Y145807D02*
D03*
Y135807D02*
D03*
Y125807D02*
D03*
Y115807D02*
D03*
Y105807D02*
D03*
Y95807D02*
D03*
Y85807D02*
D03*
Y75807D02*
D03*
Y65807D02*
D03*
Y55807D02*
D03*
Y45807D02*
D03*
Y35807D02*
D03*
Y25807D02*
D03*
X348327Y35728D02*
D03*
Y25728D02*
D03*
Y15728D02*
D03*
D13*
X324705Y205807D02*
D03*
X196752Y15807D02*
D03*
X348327Y45728D02*
D03*
D14*
X225177Y15807D02*
D03*
Y25807D02*
D03*
Y35807D02*
D03*
Y45807D02*
D03*
Y55807D02*
D03*
Y105807D02*
D03*
Y95807D02*
D03*
Y85807D02*
D03*
Y75807D02*
D03*
Y65807D02*
D03*
Y165807D02*
D03*
Y175807D02*
D03*
Y185807D02*
D03*
Y195807D02*
D03*
Y205807D02*
D03*
Y155807D02*
D03*
Y145807D02*
D03*
Y135807D02*
D03*
Y125807D02*
D03*
Y115807D02*
D03*
X295177D02*
D03*
Y125807D02*
D03*
Y135807D02*
D03*
Y145807D02*
D03*
Y155807D02*
D03*
Y205807D02*
D03*
Y195807D02*
D03*
Y185807D02*
D03*
Y175807D02*
D03*
Y165807D02*
D03*
Y65807D02*
D03*
Y75807D02*
D03*
Y85807D02*
D03*
Y95807D02*
D03*
Y105807D02*
D03*
Y55807D02*
D03*
Y45807D02*
D03*
Y35807D02*
D03*
Y25807D02*
D03*
Y15807D02*
D03*
M02*
