M48
;Layer_Color=9474304
;FILE_FORMAT=2:5
INCH,LZ
;TYPE=PLATED
T1F00S00C0.03000
T2F00S00C0.03543
%
T01
X0225177Y0015807
Y0025807
Y0035807
Y0045807
Y0055807
Y0065807
Y0075807
Y0085807
Y0095807
Y0105807
Y0115807
Y0125807
Y0135807
Y0145807
Y0155807
X0295177
Y0145807
Y0135807
Y0125807
Y0115807
Y0105807
Y0095807
Y0085807
Y0075807
Y0065807
Y0055807
Y0045807
Y0035807
Y0025807
Y0015807
Y0165807
Y0175807
Y0185807
Y0195807
Y0205807
X0225177
Y0195807
Y0185807
Y0175807
Y0165807
T02
X0196752Y0015807
Y0025807
Y0035807
Y0045807
Y0055807
Y0065807
Y0075807
Y0085807
Y0095807
Y0105807
Y0115807
Y0125807
Y0135807
Y0145807
Y0155807
X0324705
Y0145807
Y0135807
Y0125807
Y0115807
Y0105807
Y0095807
Y0085807
Y0075807
Y0065807
Y0055807
Y0045807
Y0035807
Y0025807
Y0015807
X0348327Y0015728
Y0025728
Y0035728
Y0045728
X0324705Y0165807
Y0175807
Y0185807
Y0195807
Y0205807
X0196752
Y0195807
Y0185807
Y0175807
Y0165807
M30
